<mxfile host="app.diagrams.net" agent="Mozilla/5.0 (X11; Linux x86_64; rv:132.0) Gecko/20100101 Firefox/132.0" version="24.9.0">
  <diagram name="Page-1" id="eRf72tyfQIs7wseGW-RG">
    <mxGraphModel dx="2074" dy="790" grid="0" gridSize="10" guides="1" tooltips="1" connect="1" arrows="1" fold="1" page="1" pageScale="1" pageWidth="850" pageHeight="1100" math="0" shadow="0">
      <root>
        <mxCell id="0" />
        <mxCell id="1" parent="0" />
        <mxCell id="YOJ8vIp8eEDOzX5zeuK2-4" value="Kubernetes" style="rounded=1;whiteSpace=wrap;html=1;labelPosition=center;verticalLabelPosition=top;align=center;verticalAlign=bottom;container=0;" vertex="1" parent="1">
          <mxGeometry x="410" y="100" width="420" height="685" as="geometry" />
        </mxCell>
        <mxCell id="YOJ8vIp8eEDOzX5zeuK2-1" value="GitHub Repo" style="shape=image;verticalLabelPosition=bottom;labelBackgroundColor=default;verticalAlign=top;aspect=fixed;imageAspect=0;image=data:image/png,iVBORw0KGgoAAAANSUhEUgAAARgAAAEYCAYAAACHjumMAAAT2UlEQVR4nOzdT4id13nH8cdCCy0MM6GGahGIDIXYIPAYFSqDIDIYotCUTKlNZdoghS5icI0UWrAXKVIhUGdlmTgkpQVZuCWCuNimBTskizE1WKaBzEAhWgQqQ6GzaMkVZKGFF+W1zxu/M75/3nPfc87zPOd8P2BMm/jOqTv3p/M79znvPTrbPiXAIZdF5KqIbET8M38b/hngt45oLwBmnBGRN0Tk1yLyUmS4dK6Ef7Z7jScyrRHOEDCQsPP4dxHZFpHNCa+zGV7jpyJyLeH64BQB07ZjIvJm2H2kdklEdsPPQKMImHZ1b/zXRORrGX/GI6EyHc/4M2AYAdOmrsrcEpEnC/yscyJyW0S2CvwsGEPAtOeMiPwy7C5K2RCR9wsFGgwhYNrS7Vx+rFRZ+krGTqYhBEw7ujf4jvJ5iIU1oCACpg397qFkLVpkQ3EXhcIImPqVPNAd6wwHv20gYOrWVxILO5fDNqhL9SNg6mWpFi1CXaocAVMni7VoEepSxQiY+liuRYtQlypFwNTFQy1ahLpUIQKmHp5q0SLUpcoQMHXQGP/PhWsFFSFg/NMc/8+FawWVIGB8q3n0vub/25pBwPjl+UB3LA5+nSNgfKrhQHcsDn4dI2D88TjnMhVzMk4RML60UIsWoS45RMD40VItWoS65AwB40OLtWgR6pIjBIx9LdeiRahLThAwtlGLFqMuOUDA2FXT+H8uXCswjoCxqcbx/1y4VmAYAYMacK3AKALGppmIPCUi+9oLcYSDX4MIGLveE5GHRWRPeyGOcPBrDAFjW7eTOctOJgpzMoYQMPZRl+JRl4wgYHygLsWjLhlAwPhBXYpHXVJGwPhCXYpHXVJEwPhDXYpHXVJCwPjU7WROi8jr2gtxhGsFCggYv+6JyNfZyUThWkFhBIxv9zj4jca1goIImPy6X+iLGV+fg994HPwWQsDk1T/P5bqIvJrx53DwG4+D3wIImHwOP+bygohsZ/x5zMnEY04mMwImj0WPufxBgZChLsWhLmVEwKS37DGX3S/xG9Qlc6hLmRAwaY19+j91yR7qUgYETDqxT/+nLtlDXUqMgEljnaf/U5dsoi4lRMBMN/Xp/11deinxmoa4VhCPawWJEDDTpHr6/+XMOxmuFcTjWkECBMz6Uo+cXygQMhz8xuFawUQEzHpyfZ1ribrEwW8cDn4nIGDi5f4619x1iYPfeBz8romAiTN2zmUq5mTsYU5mDQTMeLlq0SLMydhDXYpEwIyTuxbNw5yMTdSlCATMaqVq0SLUJXuoSyMRMMuVrkWLUJfsoS6NQMAsplGLFqEu2dTXJUJmgaPaCzDqjNE/nbq69GsR+Vam1++vFXS7tq+GgL0ddjYfhr/fC//dzfDX74jISRF5KPyzrel3MuwA57hvtn1Kew3WbIa7RdbCZehG5uf8rmszVLm/M/7vL4e74SxrV3shllCRDvIyGp77WsG6ZmFdj4nIu9qLKYyD3zkImE9ZOdAdK/e1ginuhD/NHxSRV7QXUxAHv4cQMJ+wdKAbI/e1gqm6oHlORB4NZzgtYE5mgIDRn3OZKvecTAq74Q3XyiEodSloPWC81aJFcs/JpDATkccbOgSlLjUeMF5r0Twl5mRSuB3qUis7mebrUqsBM/Uxl1ZZPvgd+ob2Agpq+vGbLQZMqsdcWmX94LfzTsZhQYuaffxmawHjZc5lKqtzMkPXGruW0Mrv3gEtBUwtB7pjeahL2+HwtxXNHfy2EjA1HejGsF6X7ojIm9qLKKypg98WAsb7nMtU1udkWrtSIC3NydQeMK3Vonk+CIeqVv1MewFKmqhLNQdMq7XosBcHj1iw6L9F5C3tRSipvi7VGjCt16KhHe0FjOBhjblUXZdqDBhq0aduO/mU5qb2ApRVW5dqCxhq0UFeRvL3G5uJmafKulRTwNQ6/j/FHe0FRLitvQADqrtWUEvA1D7+vy7Lh7uHETCfqOpaQQ0B0+QI9kheKhIOquZ32nvAcKC73APaC8Daqjj49RwwHOiudr/2AiJUUQkSc3/w6zVgmHMZZ1N7ARE8rbUk13MyHgOGWjTe57UXMFIXLn+gvQjD3NYlbwFDLYpzUnsBI50Nf3BgMZd1yVPAUIviHXPyC2n5trcl7uqSl4ChFq3vsvYCRjinvQBHXNUlDwFDLZrmgoNdzLnw3c4Yx01dsh4wjP+ncd34GceuiDwkIu9pL8QRF9cKLAcM4//pbDmoIfsi8hQ7mSjmrxVYDZhqRqUN+bL2AkbYD58oETLjmX6vWAwYDnTzOC8ip7UXMQJ1KZ7Zg19rAcOBbj6bobOb+yWcg7oUz+TBr6WAYc6ljGe0FzBSX5c8PXJCm7k5GSsBQy0q56/CbIzlT5V6XV36OiETxVRdum+2fUp7DZvsXFTshTMZD2/erfA7sqG9EEfuhh3gruYitHcw1CI93b/zq9qLGGmXuhTNRF3SDBhqkb7nReRtEbnooDJRl+Kp1yWtikQtsueWiHzFwdecUJfiqdUljR0M4/82nRaR/xGRXxh/1CZzMvHUrhWUDhjG/23rH++Q4lGbOecxmJOJp3KtoGTAmB5pRnLXwtlOLlwriFf8PVgqYDjQbdN1EbmU8fWpS/GKHvyWCBjG/9tWYidDXYpT7FpB7oBhzgUSdjIl6hIfYY9XZE4mZ8BQizBUoi4xJxMne13KFTDUIsyTuy69LiKPUZeiZK1LOQKGWoRlrmfu/lwriJetLqUOGGoRxvhRgZChLsXJUpdSBgy1CGM9FCaGqUu2JK9LqQKG8X+sgzkZe5JeK0gRMIz/YwrmZOxJdq1gasAw/o8USs3JEDLjJXlvTwkYDnSREnXJnskHv+sGDAe6yIG6ZM+kg991AoY5F+TEtQJ71p6TORr536cWoYTr4Zf65Uyv38/JvHboUaFd+NwJfx8+2e+B8Ff3BjuRaU3W9XXpqfDvZ5SYgOExlyjpWqgyr2Z6/ddF5Ffh59wUkR+O/OdOhK992RaRL2Ram1V9XRr9+M2xz+Q9Fs5cCJc2PBj+JJ+i+8PoSwnW8qj2V28s8YyI/EB7EQruhgPzlTuZMWcw1CJoyn2tYIpu1/M5EfnLBIHsyehPl1YFDJ8WQVuJawVTzETk+2HX942GDo9Hfbq0LGAY/4cluedkUnhVRP6ood3MymsFiwKG8X9YlHtOJoWfhd3MDe2FFLL0WsG8gGH8H5blnpNJ5aLhw+nUFmbGvID5B2oRjPNQlzrPNXQmsxH+/3LgK4gPB8xVEfnzsusC1uKhLr0Xvo63FedE5J3h/2IYMF2HulJ+TcDaPNSlnYwTyRZ9KWxUPtYHTNed3tBbE7A2D3XphYbOYyRsVM7IIGDON3zHAv5Zr0v3GvpUqfesDAKGQ114l/vbCqba0V5AYadlEDBP6K4FSOL3tRewRFeRfqK9iIK6RvTMkXAr9PPaqwES+DftBazwgvYCCnuxDxjAu72Y55Qo2W3oGkFn40h4tgPgXa7nxqTW0qdJH5/BtPbQHNTJyxt3pr2AknJ9+T1Q2i3tBYzUUkUiYFCFmaM7Px9qL6AkAgY1aKp2eHLEUfIDcKYLmA+0FwFMtKm9gAjHtBdQ0hFHp+/AIp4C5ne1F1DSEUfzA8AyD2kvYCRPYThZv4O5rb0QYKLz2gsYyUsQprDXf4pk/Q4HsIqXKy8ntRdQ0OU+YP5ZeSHAVI842B1sNXSxuGtGO0cG/8Oe8oKAqawHzGXtBRT08fNvhoN2247GrYF5/lB7AUt0O5c/1V5EITMR+Xs5FDB3ROQxB1fegUUsf8Xxkw3NwPxx/8HRvKsC3y2/HiCJzeET7Y35svYCCvnW8PGg8wLmH8PXLHxUdl1AEs8bfAD4xUYeS3st/PVb8wLmN+Ew6vvl1gUkc8zYA8C3w3qOai8ksxth93LAstvUL4rI3bxrArKxsIs53sik/O6if9/LAmY/fOxHXYJHfxF24loHq93P/V74zuaadeHy9KL/cNXzYPapS3DqfhF5KYxelA6ZzfBzLX+qlUJXix5ddtVo7AOnvh12Mjw7Bt48IiI/LvjNpV8VkV828GWGo75Nc2zA9Ae/jxEycKh70/9XgY+wu9f/13D2UrO5B7rzxD4yc7ef0AMcuhI+vEjtRHhvXMnw2tbciDlAX+eZvNQlePZ82M1cSfBR9hPhnOc/GqhEMrYWDa0TMNQleHci1JlfhHszVyPOaLbCR8/dP/fT8F54IPN6LRhdi4amDP/0denShNcAtG2E3cyV8JUiO+Fe3iz8jm+FT4XOhhBq8YsKo2rR0NTpwm+Hvz/bwKQi6teFxwXtRRhzbZ2dS2/q9yJxrQCo11q1aCjVF69xrQCoy8Lx/xipAoZrBUA9lo7/x0j51bFcKwD8Wzn+HyPHd1MzJwP4FD3nskqOgGFOBvBn8oHuPDkCpse1AsCHtedcVskZMEJdAsxLXouGcgcMdQmwK0stGsodMD3qEmBLtlo0VCpgZFCXmJMBdGWtRUMlA4ZrBYC+7LVoqGTA9LhWAOhIMv4fQyNguFYAlJds/D+GRsAI1wqAopKO/8fQfoZL/zyZbzb0xeCW9Q9Z+o32QpDMpOe5TKW1g+kxJ2PHT0TkcyLyuIj8b4LX67r+WwleB+sreqA7j3bA9JiT0fVW+A7llO6E13w58etinCJzLqtYCRjhWoGKd0Tk4RAEuf69/7WIfEVE3uRQv5hicy6r3DfbPqW9hsO2ROR9zmSye1dEzhUO9Gs8JD47EzuXnqUdTI+6lN+N8JT80rtFZqDyMhUuYjRghGsFWd1U/CXsZ6B+rvTza2amFg1ZDRiuFeRxV/tThRAyzymvoTbqnxYtYjVgemyp07oY3uDaboUzIExXfPw/hvWA4VpBOm+Gv6zYDrM3WJ/K+H8M6wEjXCtIxto8yix8ijXTXohTauP/MTwETI85mfV1deQ97UUs8E/aC3DI5IHuPJ4ChmsF67touGL+i/YCnDF7oDuPp4DpMScTZy+M7Vu1q70AR8zNuaziMWCEuhTlBe0FrDDjUuQobmrRkNeAoS6NMwv3jay7pr0A41zVoiGvAdOjLi1nYeZljB3tBRjmrhYNeQ8Y4VrBUr/SXkCEPe0FGOSyFg3VEDBcK1gsxYOjSmEXc5DbWjRUQ8D0uFbgGwN3nzI9/h+jpoDhWsFnWf54GvOZH/+PUVPACNcKPuO49gIQxcX4f4zaAqbHnMwnPD0V8IT2ApS5P9Cdp9aAYU7mE57etFvaC1BUxYHuPLUGTK/1OZlN7QVEeER7AUpcz7msUnvASON16fec1KTUX5niRZW1aKiFgGm5Lt0vIue1FzFC1W+yBaqtRUMtBEyv1bp0VnsBK3Q7rK9pL6KwqmvRUEsBI41eK7ggIqe1F7HEE9oLKKz6WjTUWsC0eq3gpvYClvgT7QUU1EQtGmotYHqtHfx+QUSe1F7EHCcaOuBtaufSazVgWjz4fVZ7AXPsOPsofV3N7Vx6rQZMr6WD37PGhtmuhp1V7Zo50J2n9YCRxurS2yJyUnsRoa5d0V5EAU3WoiECpq26dFxEvqe8hk0Dayih2Vo0RMB8qpW6dFbxT9Vj4dyl9lveTdeiIQLmoFbmZK6LyBvh+TmldDuX1xq4c9R8LRoiYA5qaU5mO5zJlPgUZzs8/MriR+UpUYsOIWDma+XxmyfCGz/nLMp22C1tZPwZFlCL5iBg5mvp8ZsbIQDeDmGQYkdzPOwEu9f9UYLXs45atMB9s+1T2muwrvvluaS9iMJeDnMqsQ/iPhHeaJcaGaATdi7LETCr3S8i3xGRbzp5tkpKPxeR/ww16v/CGdVhXwzBslX40NiCa5y5LEfAjNe9gd5vMGQwHzuXETiDGa+VORmsRriMRMDEaelaAebjQDcCAROnpWsF+CzmXCIRMOuhLrWHWrQGAmZ9rVwrALVobQTM+lq6VtAyatEEBMx0rVwraNEuO5dpCJjpWrpW0JIuXJ7WXoR3BEwa+9SlqnS16FERua29EO8ImLSYk/GPA92ECJi0mJPxjQPdxAiYPJiT8Yc5lwwImHyoS35QizIhYPKhLvlALcqIgMmPumQXtSgzAqYMrhXYQy0qgIApg2sFtlCLCiFgyuJagT7G/wsiYMriWoEuxv8LI2DK41qBDsb/FRAwepiTKYcDXSUEjB7mZMrgQFcRAaOPOZl8mHNRRsDYQF1Kj1pkAAFjA3UpLWqREQSMLdSl6ahFhhAw9nCtYH3UImMIGHu4VrAeapFBBIxdXCsYj/F/owgYu7hWMA7j/4YRMLZxrWA5xv+NI2B8YE7mszjQdYCA8YE5mYM40HWCgPGFORnmXFwhYPxpuS5Ri5whYPxptS5RixwiYPxqqS5Ri5wiYHzr6tJ3w66mVtQixwgY37pgeUFE/kZ7IZlQi5wjYOrwQxHZ015EYoz/V4CAqcM9ETkd/rSvoS4x/l+Jo9oLQDL3wnlF5yXltUzBgW5F2MHU55Wwk9nXXsgaONCtDAFTn4/CG/VhZyHDgW6FCJh6zcJH2B5QiypFwNTNQ12iFlWMgKmb9bpELaocAdMGi3WJWtQAAqYdrxiak6EWNYI5mHZ8ZGROhlrUEHYw7dG8VsD4f2MImPZoXStg/L9BVKQ2lb5WwIFuo9jBtK0/+L2T8Wd8h3BpFwHTtv7g90ER2Un82h+KyOMVP6sGIxAw6D0tIu8meq1bIrKVIbTgDGcw6O2LyFkROSEifyYiT4rIyYjfkV0ReUdEPgh/b+mB5Fjgvtn2Ke01wK7jInI+7EZOi8gXB//ZXpgQ7sLkZuZzHDj1/wEAAP//XmhFlrKzseoAAAAASUVORK5CYII=;" vertex="1" parent="1">
          <mxGeometry x="50" y="251.81" width="70" height="70" as="geometry" />
        </mxCell>
        <mxCell id="YOJ8vIp8eEDOzX5zeuK2-16" style="edgeStyle=orthogonalEdgeStyle;rounded=0;orthogonalLoop=1;jettySize=auto;html=1;entryX=0;entryY=0.5;entryDx=0;entryDy=0;" edge="1" parent="1" source="YOJ8vIp8eEDOzX5zeuK2-2" target="HAClDOSr-csIPDZp6A96-18">
          <mxGeometry relative="1" as="geometry">
            <Array as="points">
              <mxPoint x="380" y="288" />
              <mxPoint x="380" y="424" />
            </Array>
          </mxGeometry>
        </mxCell>
        <mxCell id="YOJ8vIp8eEDOzX5zeuK2-19" style="edgeStyle=orthogonalEdgeStyle;rounded=0;orthogonalLoop=1;jettySize=auto;html=1;" edge="1" parent="1" source="YOJ8vIp8eEDOzX5zeuK2-2" target="HAClDOSr-csIPDZp6A96-6">
          <mxGeometry relative="1" as="geometry">
            <Array as="points">
              <mxPoint x="380" y="288" />
              <mxPoint x="380" y="215" />
            </Array>
          </mxGeometry>
        </mxCell>
        <mxCell id="YOJ8vIp8eEDOzX5zeuK2-26" style="edgeStyle=orthogonalEdgeStyle;rounded=0;orthogonalLoop=1;jettySize=auto;html=1;entryX=0;entryY=0.5;entryDx=0;entryDy=0;" edge="1" parent="1" source="YOJ8vIp8eEDOzX5zeuK2-2" target="YOJ8vIp8eEDOzX5zeuK2-25">
          <mxGeometry relative="1" as="geometry">
            <Array as="points">
              <mxPoint x="380" y="288" />
              <mxPoint x="380" y="683" />
            </Array>
          </mxGeometry>
        </mxCell>
        <mxCell id="YOJ8vIp8eEDOzX5zeuK2-2" value="FluxCD" style="shape=image;verticalLabelPosition=bottom;labelBackgroundColor=default;verticalAlign=top;aspect=fixed;imageAspect=0;image=data:image/png,iVBORw0KGgoAAAANSUhEUgAAARgAAAEYCAYAAACHjumMAABBxElEQVR4nOzdC1xUZf4/8Ie5n5kzwAyKDJopMFi5oONMoSkINmOCUqlBCmZKBaWlefkFaW6aZdB6WUvdpBXNFFtYJdPEhILQvAWOQprKRTN1QGWGYc7MmTv/F6n7N0NlhnPmzOV5v16/128X5jzn487wneec81wYHR0dAIIgiAw0qgNAEOS9YIGBIIg0sMBAEEQaBtUBIPelM9hZhZX6V2vqTXE1DeaxAIBAAIA2LIRxUC5B9qfEcv8l5NPtVOeE3JcfvMkLdaX2gjlm5uobXwEABtznZW25MwXpimHIPhdGgzwILDDQn+gM9oD3tmne+7HONAsAwO7GIUZpBGvH0mmB74UGMX53QUTIg8ACA/1BZ7D7FVZiaYWV+vcxvCPMiSZuZCby/56VxP8XCfEgDwULDARaNDb6Gxta9zY1W8f1tK3gQFrl8umCdJmYfZWYdJAngwXGx23c1/5yfin2MQBASGCzmpRY7orZE/xX8bk0+AHzYbDA+KhGlSX8jQ2tX1xrs48k6xwClHZ8daZwZvRA1hmyzgG5N1hgfFBhBfbSxlLdRxjeIXLB6dRT43lrshL5a/hcmt4F54PcCCwwPqRRZen1xobWjdfa7JNcfe6wEMaBdbOCpvUR0K+7+twQdWCB8RG5RW1ZpdX4+xjeEUxhDPPUeN7/LZwc8AmFGSAXggXGyxVV6Z/a+j22UqW2DaU6y20ClPZbxlh0dloC+i3VWSBywQLjpdQ6G5JToPlnTYM5k+os9xI1gLljSVrg3HARE142eSlYYLxQmRIfvfbr9g9VahtpT4iIgiJ+v2Ul8jPTEtADVGeBiAcLjJfJ3qReXn7S+C7VORwVNYD5yepMYY6QT8epzgIRBxYYL1FxCh/z4Vfa9RrM/gjVWZyFIn71syf4Z6fG8UqozgIRAxYYD9eosvCXF7b9o+6iJYvqLESRRrD+s3y6IKOPgG6gOgvUM7DAeLA9Rw0jNpbqvlSpbeFUZyGaAKVdyRiLZqcloNupzgI5DxYYD1Rdb4ooPqh/v1xpnNL5HlKdh0zSCNa+lDjePIUEOU91FshxsMB4mNW7tC9ur9CvBgD0ojqLC9kzE/mvZyXx86kOAjkGFhgPUV1vClu1U7vu/BVrItVZqBIWwqicNYG/IGEIcoLqLFD3wALjAXKL2mYVHzSspzqHm7DLJZy/Z6cEfATXA3Z/sMC4sUaVpX9ekXZlTYM5heos7kYkpJ9YOi1wqkzMhvdm3BgsMG6qqEqfnles3dTNdXF9lSE9gbdo/qSAtVQHgboGC4ybqa43PZZXpP24qdk6nuosniKyL6NqweSAOTIx+xTVWaA/gwXGTVxttQau3d2+olxpfBXuV+Wc0VGcbbOT+bPDRcx2qrNAN8EC4wbKTuBROZs1FQCAIKqzeAE8O8X/xdQ4dCfVQSBYYCh1tdUqWLu7PbtcaZwNAECpzuNFrKOj2BtmJ/t/GC5iXqM6jC+DBYYiZUpcklek3aXB7PfbORHqGVV2SsCM1DgeXAqCIrDAuJhaZ2N9sEP7yY91Rq+ZnOjupBGszQsmB7w7qB8T7tXkYrDAuFDZCXx8zmbNtlubyEOu1TZvov/r08agX1EdxJfAAuMCap2t19qv2xfsPY6/BQDgUJ3Hl0kjWIVLpwW+HRrEuEJ1Fl8ACwzJNu7Tzc4v1b0DAOhLdRboJhTxa06L5+WlxaMFfC4NPtImESwwJKmuN/VdslVTeK3NHkd1FqhrApR2eHWm8IXogazLVGfxVrDAEExnsNPW721fWHzQ8A681+IR7BNikKXLpgmWUx3EG8ECQ6BGleXhrE9a/6vB7DKqs0AO+y13piBFMQz5meog3gQWGALoDHZeYSWWXlipX4LhHf2ozgM5TTs1nrciYyy6TsiH6wETARaYHmrR2Hq/saF1W1OzdSzVWSBiBAfSqpdPF6TDpSB6DhaYHli5Uzt3R6V+JZyc6JVMKbHc92ZP8F/H59L0VIfxVLDAOKGwAksuOICt02D2/lRncYVRj7HBkDAWCBXSQUubDZz93QJ+qDUCq43qZORDEb/fZ0/wfyc1jgd3N3ACLDAOaNHY2Kt3aXPLTxrfojqLK9D8AHh9PB9EhDL/8ruLzRbwyTc64CufnrAQxre5GYJp4SJmG9VZPAksMN1UWIE9XXAAW63B7I9RncVVnh7GAeNk3Hv+/uhZI/hPle/cCxUJ6U3Tn0LnJcqQb/lcmg/033oOFpgHUOtsyPx8dV7dRcubVGdxJRYDgA+mCwCTcf9tl1bt0oLLN3zrb+3WzpMv9RHQTVRncXewwNxHUZV+4vq97XkY3iGmOourvToOBY/1Zz3wdWd/N4ONpZhLMrkZdWYiOjsryR9OnrwPWGC60NlrySnQbKlpMKdSnYUKgx9mglee5nf79V+UY+Bkk5nUTO4qOJBWtm5W0EvhIqaK6izuiEZ1AHeiM9j9ypR4wvSVN5S+Wlz8/AAYM8SxCd+TR3IBm+nVO9je07U2uyJjzQ1lYQU2ieos7gj2YG4pU+KDiqv0a2oazD67c2InmZgF0hMcX72zshYHu4/ipGTyFGEhjGPZqQGZMjG7luos7gIWmJtLKryWX6pb7+s9us4+SM4LASA4gO7wsfaODrD4Cw0w+uaV0p2s6Qm892co0A+EfLrP/3H5dIGpOIVLP/xKu0qD2UdTncUdJMoQMHYY4vTxh04bwc6ffOex9f2IhPSf5z7nP08hQX6iOguVfLbA5Ba1zSg+aNjk672W2wJ5fuC9dEGP21m2vQ206eGW0bfJh3LWZ6cGvOmrvRmf++OqrjdFpnx47fvig4YCX/z338uEJ+49oM4RU0bzAB3+r/o/5SeNs6evvFFVpsSjqM5CBZ/qwazepZ23vUL/AQCAmL8mLyES0MHbKQGEtVdwQAfqLloIa89L2OVDOe/nvSxcRnUQV/KJAlNdb5Ks2qlde/6KNZbqLO6GSQdg3kR/IBISNyG8RWMD/9ipBTZ4pfQXApR2YvGUgLkJQ5BDVGdxBa8uMFdbrejSbW0baxrMaVRncVdPDeUQdnl0p6pfjKDkMLzhey/SCFbRgskB7wzqx2yiOguZvPZqufaCOSZ56bVfYXG5N3+uH4j7Gzm7qHS220fg+ONuX1HTYE5Ny7teW3YCf4bqLGTyuh5Mo8oSnFekXVLTYM4EADx4Mo0PmzaGB6QRbNLar7toBgUHfHKekiNMYSGM/659TbgoNIhxieowRPOqAlNUpR+bV6zdAgAQUZ3F3Q3oQwdznyXuxu69fLK7HVxosZJ+Hi/QPG+i/xvTxqA7qQ5CJK8oMOcuW0JX7dR+WNNgnkF1Fk8xazwfiPv+dSEporW02cDar9sBbvb8z5krRPZl7F4wOWC2TMz2ip0nPb7AlJ3AFTmbNUVwD6LuixAxwOxkf5edr+SwHlT9ApdOcURKLDcrJzUwn+ocPeWxN3mvtlr7ZheoP8vZrCmBxcUxT0udnw7gjDFDOABh+eZsa2cVHzRszFx7Y1OjyjKQ6iw94ZE9mI372p8trNT/C8M74L0WB40azAaTR/Jcft4yJQ72/ezbs62d1DY1njd/4eSAzVQHcYbH9WCKqvTy/FLsa1hcHBfkTwPjH6dmEPOox9igl7/HfdzcQeCOSv3n237AxlEdxBke9Y43qiwB6/e2/5vqHJ4qPooDOBRdqiBsGpg0Es7QcBJ9TUn73nOXPe9yyaMKzNdHDDMwvONhqnN4ouBAGnjyMfLGvHTHow+xwOD+5D+58lL0kp/0s6gO4SiPKjCFFfp3qc7giTr7LFNHo4DmR/2NVkUP1pvxdaU1+BSqMzjKYwpMo8rCAQD0ojqHJxomZoEBfdxjd9uHgxlgJMU9KU+F4R39qM7gKI8pMBrMHkJ1Bk81VuJevYZxUgQE8jzmo+dWypR4z1cFcyGPeZf5iN8NqjN4ookjuCA40L0mHaIIDSTKyJlk6e0UEkRDdQZHeEyBGdSPhQEA4HBQBzwcTAdxUe75h/zEIA54qLd7FT4P4HEzRz2mwHSSSzifUp3Bkyjc7NLobmnxPEDzqE8gtaQRrEKqMzjKo97e9AR0LQCgjeocnqBvEB0Mfti9V6sIETBAzCB4w7e7UmJ5Hjc3yaMKTPRA1uXMRPR9qnN4gkSZe/deblNIOID6h+fuTy7h5CqGITVU53CURxWYTllJ/mvkEk421TncWdQAptv3Xm4ToHQwcjDsxdxPyijuqrwM4TtU53CGxxWYTnkZwo8XTPKfJEBpZ6nO4m5YDAAmj3L9ZMaeeGoo8kdu6M9QxO+3zER06uxkf4/9QvXI2dS3qXU2pOAANmtHpX4JAID85dk8wDMxCEgY4hmXR3c60WgCX36vpzqGu7BPiEHWZiXyl4cGMTzqsfTdPLrA3FZ2Ah+2ukRbfK3NHkZ1FiohLD+wfHogoNM8867G2t1acLHFRnUMSglQ2qUZCjRl2hj0ONVZiOAVBea297ZpFu09hi/31Eu/nnp9PB9EumAZTLLUXzGDDd963FAPothSYrkfTH8KXRMaxNBSHYYoXlVgwM3tSvrNz1d/pcHsI6nO4kr9etHBgkmef5W4cqcWXGn1rV5McCDt5PLpgpdkYnYt1VmI5nXf9NEDWZdLlgQnZSai81DET0V1HldhMz3zsuhuvQJ8anQvNjWet2T7271He2NxAd5YYDrxubT2rCT/fxbM6zVagNJOU50HgrpwJXemYMLCyQEfCPn0dqrDkMUrC8xt4SJmfcmS4KEpsdxlAAAd1XnI1KKxAQz37M2g2w12cP6y92+aPzqK83HZij79FcOQH6nOQjavuwdzL+cuW0JW7dQur2kwv0J1FrL87WEmePlpPtUxnLbrJz04eNp757NKI1i7MpP4c7xlz6Pu8JkCc1tRlf6pvGLtl966++OQgUyQnoACJsNz7smYLB1g91EDOPKr1xaXK/Mm+s+eNgbdTXUQV/O5AgNuDtDr/cGOtkU/1pneAAB43RhSf64f6BvEACjSdZHx8wMgREAHg/oxQaiQvH/+tTZbZ88RXFXbgM3e9ecMN3X88dRIg3n25d29RPZlfL3qVeFcb9x3ujt8ssDcVlSFTc4rbv8CAOBZY+sJNE7KAU9LiV/t/6czRlBy2ABs3lk3ugObN9F//rQx6OdUB6GSTxcYcHOtX/76Pbr1P9YZX6Q6C1VSYrngyUeJW5iqut4Etlf47rB/aQTrqwWTA94Z1I95keosVPP5AnNbmRKPyyvSbtdgdo9bWJkIK18REDbFYE2JFly67luD5W7RZqcEvJQax/O5ey334tWPqR2hkCBVWxf2ksglnLUAACPVeVzt9+tWQtrBcDu4fMPnikuHNIL176JFvQfB4vJnsMDcITSIcSMvQ/jWxjlBUSIhvZrqPK6kw4npyWLGDnCP+7leSYDSahdM8n86f26vV8NFzBaq87gbWGC6IBOzG7Yu7PWEXMJZDADwua9jqHvkQzlryz8KGZKWgJZRncVdwQJzD0I+vSMvQ7hi5SuCJ8JCGBVU54Hch0hIP5qbIXgy72XhW1RncXewwDxAwhDkRPHi4DGZifwsAIDvPnSFOpnTE3iL9y7rM0IhQY5QHcYTeN0gM7JkJfHzw0SMyuIq/aqaBvMEqvNAriUS0s8snRY4RSZm11GdxZPAHowDFBLkfP7cXskpsVyPXIAZco5cwvlo68JeQ2FxcRwsME7ISQ3M3TgnaHBkX8b3VGeByCNAacdXviIYmZchXCTk071/mjcJYIFxkkzMPrMjJ1ienRLwLIr4naM6D0So1sxENLX8o5CYhCHIYarDeDJYYHooNY73TcmSYEnUAOY/qc4C9Zx8KGf7vvf7iLKS/IupzuINYIEhgJBPx7cs6D1vwSR/hUhI9/n5J55IgNKaMxPRrHenBk7vI4CXQ0SBBYZAaQlo+drXhI9HDWBupzoL1H1hIYxvVmcKH8tK8s/nc2lwKAKBYIEhWLiIeWPLgt7TFkzynyBAaU1U54HuDUX8LmWnBKQVLw5+Nnogy6M3OHNXsMCQJC0B/bb8o5Bw+VAOvDfjhqIGMP9dsiQ4KjWOt4PqLN4MFhiS5b0snJebIUgSCelesVOfp+vstSyY5D95y4Ler3rzav7uAhYYF1BIkNId2b3jp8bz3gUAqKnO46O0cgnnox3ZvR9PS0B3UR3GV8CpAi7C59LwhZMDPhw7DPnv/Hz1Vg1mf4LqTL4iOJDWNH9iwPOKYYiS6iy+BvZgXCx6IOtcyZLg4Smx3IUAAHhjkVz2CTHIotLlIeGwuFADFhgK8Lm0jpzUwFVFi3oPDg6k/UB1Hm8kQGmHNs/v9dCyaYKPqM7iy2CBoVC4iKkqXR7yVGYifxYA4BrVebwENjWe90HJkuCk6IGsq1SH8XWwwLiBrCT+v4oW9Y4LDqSdpDqLJxOgtNOb5/catXBywBI+l+bVWwV7Clhg3ES4iHmudHmIJDMRnQMA0FKdx8PoUmK5y0qWBA+NHsg6RXUY6P+DBcbNZCX5f1q2ok/w6CjOeqqzeAJpBOvzwuzekTmpgUv5XBoxWyNAhIEFxg0J+XTz6kzhG7kZgiEClNZAdR43dS07JUCeP7dX5qB+zGaqw0BdgwXGjSkkSO3Whb2ekEawPoO7G/yPJSyE8Z89S4OfSI3jwQW/3BwsMG4uNIihyZ/b6/XcDEEcfNIEdNkp/lOKFwdPCQ1i/EZ1GOjBYIHxEAoJcnjP0mCxXMJZ1/ktTnUeVxsdxfmiaFHvvqlxcJi/J4EFxoOEBjHa8zKEb+bOFIwMDvSNpSAEKO1yboYgdnWmcEa4iAkfPXsYWGA8kGIY8vP2t3tHTY3nfQAA8NonJ9II1vatC3tJFBLkENVZIOfAAuOhhHy6YeHkgCUb5wRFh4UwDlKdh0giIf14boZgWP7cXtNCgxg3qM4DOQ8WGA8nE7N/LV4cHJcSy33dC3aetMklnMVbF/YarpDAyYneABYYL5GTGvjZxjlBYZF9Gd9SncUZYSGM8o1zgmR5GcIVQj69g+o8EDFggfEiMjH7tx05wRPSE3jpApTmKY+07ZmJ/KzixcEKmZgN52J5GVhgvND8SQGFuRmC4dII1gGqs9xPWAijZml64BNZSfx8qrNA5IAFxkvJxOwLuRmCcekJvOnuOAo4JZb7TvHiYFnycG4N1Vkg8sAC48WEfHrH/EkBXxZm935EGsH6muo8nSL7Mr7fOCdocE5qYC7VWSDywQLjAwb1Yzbkz+01ceUrggQBSqulIgOK+J3NTgl4dkdOsFwmZp+hIgPkerDA+JCEIUhl+UchQ+RDOUtded6wEMZ/S5YED0mN433jyvNC1IMFxgflvSxctmCS/3MClEZqT0IkpF/ITgl4vmBer6lCPt1M5rkg9wQLjI9KS0B3b3+7t/TWUhCEixrA3L72NaEsNY63Ey4E5bv8OjrgmCZfV6bER7dobJv692aE97QtDWZv0xvtaWkJaCkx6SBPBgsM9Ic2zP7Y2cvmL80WMMzZNph0cDaiLzO1dwC9jth0kKeCBQb6H7MVoL9fs8y50mrLBgD4O3JsAI+2YVA/5lIOy+86eQkhTwMLDPQXbZh98G/XrO9p9fbnOz8j93ttAI9WFhpEz+4dQIeTE6G/gAUGuqfrWtsT9Zct71tsHU/7+f25zrCZ4McwEXN57wA6XBcXuidYYKAHstqAn0ptfYxJ9wuy2Tva+vZiUDJYD/I8sMBAEEQaOA4GgiDSwAIDQRBpYIGBIIg0sMBAEEQaWGAgCCINLDAQBJEGFhgIgkgDCwwEQaSBBQaCINLAAgNBEGlggYEgiDSwwEAQRBpYYCBCVdebwqrrTY9TnQNyD7DAQITSYPb+WZ+0/rB6l/ZtqrNA1IMFBiIDur1CnzfhvZafypQ47M34MFhgINKo1LYncwo0x7M3qXPVOhv8rPkg+KZDpCs/aczOKdB8V6bEJVRngVwLFhjIJWoazPKcAs2JzLU31jeqLP2ozgO5BiwwXq5MiQ/PXHujpPaCuT/VWcDNQjMrdcX140VV+glUZ4HIR1+61KX7oEMuojPY+e9s1qzb9B22QaW2PbL7iGHOucsW7uORrKMIm0baPtEClHY1OIB++ezvFp7R3DHwHi/j/3TGlFZTbxJH9mP+3Muf3k5WHohacNFvL7TtB0yypQz7rwazh3Xxa1NmIn9SVhJ/H9k5GlWWh/JLdR+UK43PAAAC7/EyU+5MwVOKYchPZOeBXA8WGC/SqLIIt36PLdp7DJ/3oMtfaQTri8wk/scyMfsM2bnOXbYEV9biz9XUm1NqGsxxAADWXS+xyiWcLRlj+X8f1I+pIjsP5DqwwHiJshP4mNUl2i3X2uwPOXCYXT6Us37+pID/6yOgm0iM9z/V9abIqjpj8vYK/SIAgPDO3wlQWvMMBfrqtDHoXldkgcgHC4wXKFPig3MKNMcBAFwnmzC+lx4of2Y416WXKUVV+pGnL5nH7z2GzwAAiG7/XBrB2pmdGvB6uIgJ97n2cLDAeInqetOjeUXaDU3N1nhnjs9M5M/ISuJ/QXyy7mlUWULLlcYp5Up8eFOz9VkAAH10FCd32bTAZXwuzUJVLqhnYIHxMtmb1G+UnzR+6uhxVBeYu237ARtXVWdMb2q2Bq/OFGZGD2T9RnUmyHGwwHihMiUuKa7Sf1zTYJZ39xh3KzC3XW21BlxV2yJDhfTa0CCGS+4TQcSBA+28kEKCKHMzBGPlQzkeP8gpNIihlYnZP8Pi4plggfFSQj69I+9l4bKNc4IiI/sySqjOA/kmWGC8nEzMrt+REzwpN0MQK0BpZ6nOA/kWWGDckFpn89MZ7Bwi21RIkEMlS4JjMhPRV0RCegORbd9JrbOxdAY7/FxBf4BzkdxMYQU2ftGWtr27jxpe7h1IPxQuYrYQ1Tab6WeSidnK5Bjuv4L8aZdaNLYBGszep/N3UjH7a5mYfaqn5zh0xhT72rrWA0fOmEYCAKwMOjAK+fQ2Qv4BkMeBT5HchFpnY87PVxfWXbQ8f8ePrSmjuAtzXghcS9Z5i6r0L+QVaz/JTOS/TcRTpDIlHp9ToKm482dhIYxyqZj135kKfkEfAR2OafEhsMC4gYpT+Jil29s2YXjHgK5+L41gFWanBrxF5sjWq63WwNAgRo97Gl0VmDuJhPQTowazv+3fm3FqnAz5VsinG3t6Tsh9wQJDIbXOJsgr1n5YrjS+3o2X2zMT+c9nJfHd+onQgwrM3QQorTYllvfPMBHjiEKCwJvQXgYWGIoUVemfXb+3fTmGd0Q5clxYCOO/2akBHxBxv4QMjhaYO4mE9FOhQvqF+GjOzsh+zMZBfZkn+FwaHP/iwRhUB/BVZmtHC4Z3hDp6XFOz9fmsT1oVcglnbV6G8D1y0lFDpbYN6fy/mgbzc7d+dFUu4fwQNYC1J+lxZJeQT7dSHBFyEOzBUOjcZUvk7PWtX2gw+3BnjkcRv3MLJwXMTR7O/Y74dM7pSQ/mQQQo7deRg9nfhQoZF+OjOV8P6seE85PcHCwwbmDlTu2bOyr1azvfD2eOF6C0Uxlj0ffTEtBdxKdzDJkFpguYNIL1XWQ/5qkhYaxjwwexf+BzabCX40ZggXETRVX6sXnF2v/cZ2nJ7mjITgnISI3jHSQwmkNcXGD+IjiQduK5Ebx/S8WsKpmYfZqqHNBNsMC4kUaVRZRXpP1nTYM5tSfthIUwDkx8kvtZcgz3Wz6XvAW+u6LW2QKLD+on19SbJ9c0mKMAAFRtUWIXoLSTYSGMJrkE+W+YiHFOJmafpCiLz4IFxg1t+wFLWlPS3nm5w+5JO2EhjMPPjuAunzYG3U9cuu5T62yMmgbz+PIT+Kjyk8Y3AACETn9wwq9yCacqJZb3sUzMbqI4i0+ABcZNnbts6bdqp3ZFTYN5mrP3Zm5DEb/6tHj03/HRnC2D+jGvEZfSMWVKfEiTyppY3vn/m63jAQB8qrIAANqkEawiqZhdmxyD/Cc0iHGDwixeCxYYAqh1NtqWMuzluCjOIZmY/SuRbZedwBPyirWFGsweQkR7UQOYu9LHoKsVEuq3Cam9YB6wvQKbW1NvHqHB7DEUxzmXmchfJZdwvoZrARMHFpgeunP1OBTxu7w0PTA5YQhC6LX+1VZrn7W72xeWK40zAAC9iGhTJKQfHzWYXSSXIN+7w72J6nrTIFWrLeLQGePTl65Zh5y/YpUCAHgURNFKI1jVyTHcd5OHc49ScH6vAguMkxpVlofyirQ5NQ3mWXf9Ck+J5X40e4L/aj6XpifynFdbrX3X7m5/4+hZ08sY3tGbqHYFKO3MnGf95z/jRuNp1Dobp6nZKqmsNQ47f9ky/twVywAM73jUhRE65BJOYUos7+/wfo3zYIFxQlGV/pm8Yu1nd261cbfO6/vl0wVpfQR0G9Hnb1RZQvNLdYvKlcbZRLXprmvy3qmzt6jR2aM3l+mmXmuzP+2i095IT+DNmz8pYJuLzudVYIFxgFpn8/9gh3b5j3XGOd15vQClNS6eEjAzYQhCyriUc5ct4Rv36Zb+WGec1tO2PKHA3G3PUcPoq2pbfE296ZGaBnMymZdUkX0Z+5ZOE7w8qB+zmaxzeCNYYBwwY9X1orqLlhRHj5NLOEuyUwI+FvLppIxJadHYei/Zqllb02B+wdlVCj2xwNytut7Uv/igfk6Tyjq0qdmaQMKKjfp5E/0nThuDlhHcrteCK9o5IC6KU3LpmpX/2zXbCEeOa2q2jilXGmMj+zEPhwYx1ETnQhGaIXk4d6dUzCru/CO4rrWHGM0dQkfaIGpFOyqFBjG0CglyIDWOtzU+mrM9IpS5n0n3w2k0YNZg9uDOz3sPT8E6etb0Yk296dHHHmYeF/LpWoKiey3Yg3FC5tobuTUN5mwnDu28ns+ZPylgEwmx/qdFY2P/WGdMzSvWrgEABHXnGG/owdxPdb0p/OzvlpgtZdibzk4uvYspOyXg5dQ43nYC2vJasAfjhOTh3HIAOi7UNJjHO/ityK27aHmmshaPC+DRToeLmCoy8qEIzTb4YVZtWjxvdR8BvdZo7sBValv0/QbsEdWDKVPi8akrrteVK3GpBrMPalJZGf17M66wmX6E3+x2RGgQQxM9kFU3XY5uSo5BPuEjtAsAgCsqtS3CyRHGjJ/OmCaVK/HHw0QMJRyo1zXYg+mB6nrT33IKNAUazP64M8dH9mWUZjzNf1chQU4Qn+7P1DobbX81PvnUBfPYcuUfN4X/9EdFVA/mXpMdUcTvZKIM2S9A6RfkEs434SL3uVlaXW8Kq6k3T91zzDBGpbaNcaIJy9R43rKMsWgeXLPmz2CBIUD2JvWm8pPGDGePl0awtmSnBswLFzFdsvq+Wmfzyy/V/d+PdcbnrrXZ/7ifRHaB6UJ71ADm9vQx6PdhIYyycBGzvafnJkKjytIrv1T3Tk29eXxnD8zBw3/PnSkYrxiG1JEUz+PAAkMAncHOLKzEphdW6pdjeMc9x8bcD4r4XRr+CHt9xlj+Vlc+Cq2uNw0tV+KjH+vPOv3MH5d+PePkcg2YNIJVzUdov4x7HNknQGlNMjH7XE+z9ETne3r0nCl2/89/9PrGaTB7WDcPbZdLOOvnPuv/j87LMpJjuj2fLjCNKgs/XMTUEdheZOqK69/3cImCa3IJ57PslIBlQj7dTlQ2VyFqPZjgQNqR6IGsU/KhyBrFMOQ8MemcV1Sln5xXrF0JAOhy54e7CVBaY3ZqwGSFBPHoJ3M95ZMFpvMSofigfm5+KbZCGsHav+pV4RSi1k252mr1X7u7fUW50pjVwzWPNSmx3A1yCbJZJmY3EpHNFUhacMoQ2ZfxdXw0UicVs/ZQuZBUmRIfU1yln1LTYH4JAMB60OtHR3E+WzYtcA6fS/PJ/aB8rsA0qiyPpq64XgwAGHz7Z51FZvl0QVIfAZ2w/zHKTuAjV5doC6+12fv3tC35UM7n8mHIak/Y1sNFK9pZw0IYGzOT+LsUEuQHks/VpRaNzW9zmW558UHDWw8aQSxAaedWZwqnRg9kKV2X0D34TIHRGewB6/e2v3HrA/GXGckClFa5fnbQDCIXkm5UWfxLDhv+b0elfj4AgNvD5uyRfRkHJj7JKxg1mF0ZGsRwyyUFXL1kZuelSFgI45RcgvwnTMRQysTseledG9x8j4PLlXh6YaV+zr02zrtFP+EJ5JO5z/mvFPLphA+2dFdeX2B0BrtfYSWWVlipfx/DO+57ow5F/K7NnuCfmRrH201khkaVRbRhj+7tyjrjawSt6qaVRrCOJMdwN0vFrANE7MhIlDIlLssp0PxIQEF1igClVQ8ZyDo6YTjy1ZCBrGOuemysM9jR0mo8cev32Lu3xhzdy5XMRP6HWUn8f7kiF9W8vsBkb1KvKD9pfMeRYzIT0ZlZSf5biM5SdgKPW12i3XytrdtPJLqjWS7h7JEPRfIUwxC3uFfTqLIIm5qtCcVV+lE1DeYMAIA/RVEa5BLO1+kJ6LLogSzMVSfd9gP28pqS9rz7jaIODqRVLp8uSJeJ2VddlYsKXl9gzl229J29vnWvBrMPdeS40VGcD1dnCt8lI1NhBTat4AC2RIPZIwluumlCDPKfwf1Z3yXKkIN8Ls0tnkKdu2wJrqw1Tm5qtgw8etaUiOEdf3N1BpGQ/lNyDHdvcgzyRWgQg5QR1HfSGez+6/e2v1Z80LD4PgVWk5mIzspK8v+K7DxU8foCA27ekOOmf3y9QoPZn3DkuOBA2pF1s4KeCxeRs45tblHbjOKDhvcBAA+R0LxBPpSzSj4M+V4hQX4koX2ntWhsfl8fMTzT1GxJKVcaZQAARwe09UhYCGNbZhL/XwoJcpjsczWqLP45BZrvmpqt95z/FBxI+27drKCscJH3bSTnEwUG3PwW7T17fes2DWYf68hxKOJ3cfYE/7dT43jFZORqVFnQksOG9Mpa4/+p1LZwMs4hEtJ/DRXSf4mP5hRH9mOelonZZ8g4jzN0BrvfuSsWWU29OaKm3vRsU7N14K2pFz1a6Lw7Ivsyjg4JY3058Une3kH9mJfIOo/OYGfccR/w4a5egyJ+v6fF8z5Ii0e38bk0A1lZXM1nCsxtmWtv7KlpME9w9DhpBGtd/txeb5KT6o+xOcx9P+Mz15S0d/Zo+pB1HnDzG/yIVMz6Pulx7urogSy3G21aXW+KvDXz+SUNZn/KBafUyyWcbZmJ/HfDRUzSJi2qdbbe8/PV6++3plBYCKOzN/NiHwHdLZ8SOsrnCozOYKcv+Fz9eU2DeaajxwpQWsPcZ/1nJw/nHiAn3c1vu9JqfGrJYX3K+SvWZLLOc4dmuYRTkhLL2+iO68HoDHZOaTX+9KXrVtn+ajxRg9mHkdi7sYyO4hQkPo58qpAgpA3mK6zAnlu1q33zfXbxNGcmoguzkvw/JSuDq/hcgbmtsAKbsmpXewEAAHH0WGkEqzgziT9PJmZfISfdTWqdzb/gAPbKnmOG1zC8Q0zmuTxlPRidwc4qrcYVpy+ZR1bWGtPudcnRUyIh/fD0p9D1iTLkKzJulqt1NuSDHdp//Fh373WVRUL6sbnP+c9TSJAjRJ/fVXy2wICb80vi84q1xc5uBZISy12ckxq4gvhkf1WmxKX5+3RLmpqtz5LRvqcUmLvVXjD33l6BZddeMI+91maPIrp9AUo7P0OBzps2Bt1HdNudcv/TNqf4kGHN/Zb3zExE38pK8l9LxvnJ5nELTn1z1JD87heaDaMGs/fyuTS8J20Nfph1US7h7D502jQCwztCHT3+zCXLU8UH9ZMZdNDWtxf9LMIm77FwuIipSo3jfSUVs74MFdLPdPa8VGqbCADAJKJ9T10ys4+AblBIkAPTxqD/kopZpQjL74rV1sFu1dn7EXEpZTR3BB09a0rfc8wQKwqinxzYh9lCTPKbRv2NcyxMxPju6FmT3Gzt+pKppsEcB0BHi0zM9ripBh7Vg2nR2OjpH19v1GD2h8NCGN8XLw6WE9GuWmdj5RVrN5QrjS8720ZwIO34TAX/zdQ43nEiMnVHo8oyoFxpTM0v1b3b021YPbUHcy/V9aYn1n3TnlJ30TKPgLV4b7PLJZwN2SkBi4R8OmGz8MHN97J/6orrB+73yH7jnKCBMjH7IpHnJZtH9WC2V2DzfjpjSu38zxrMHlauxB+/1ZMx9aRdhE2zKSTIN3zE7/yRX00JztyX0Rs7+v50xvTqucuWiCB/WlNoEIPQb7quCPn0NpmY/VNWEv8jqZi1J1TIuHxVbeNieIfDy0UQ1YOprjcNXbWz/d2LLdZHAAAqqqYxhAYxrjz3JK8sLZ73EYvp1wgAsKjUtkd72Kvxa2q2PlFy2JDRorFZhgxk/cxm+hHyDS3k07Upsdx/HztrGtCqs3c91aADgIQhiNtsjtcdHtWDkb55tbXzvbjzZ2EhjG83zgl6hqi1U1o0NvYbG1p/bGq29mivZAFK25edGvB3hQSpISKXI1o0Ns7mMt1rNfXmyU3N1lHdOYbEFe1waQSrICWO9230AFZ5HwGdsmULOnvAt2ZAZ939OXKGAKXVrs4UziB6lnR2gXp5udLY1SjyGzWfhhK2o6creEwPRmewM7aUYx/d/XMNZo+8dM368OOR7O8QNq3HE9tQhGZLlCFfmqwdHb9ctAx3dk0Xo7lDXK40ZlbW4iPtdtAuQGnNPe1pdReK0KyjBnOOpsbxNkvFrGJZBLtSh9v9dLi9w2wFwV0dQ1QPpqnZOuDWHtq3MVVq2xPlSmP69gp9Vk29aezpS+beFluHXwCX1tLZe+zpObsLRWgdowZzvk+OQb7kI35nrqptIc709m4zmjv67D5iSNfhdl7UgD96M4SsKaSQIBU63G7+5aLl7jFA3Kwk/jIizuEqHtODqa43hWR90nrPOSRhIYyaD14STCJyRGajytI3r0j7UU2DOb2nm3ihiF+zLIK9bWoCr1gmZrvsPs3dqutNYlWr7dE9xwxTNZg9oqnZKun8oqFgTd5OamkEq0YqZu2QitmnBvVlnnT1/KnqetOwHRX61yrrjC/0ZFKmSEg/Ofc5/3cVEuRborJt3Kebm1+q++edP8vNEAQrJIjHDMLzmAKj1tmYikUt9/2GEKC0c9vf7j2ij4BO6OjUMiX+ZE6BZgcAoMeLR4GbxfDQiEfZK+dPCiB0WQhnVNebBp393SLpE0hvVAxDfu5pez1ZD0aA0qqlYtaPmYn8XDJH1HalRWMLWb1L+175yT+W1HCafChnad7LQsJ6Gat2aWcVVujX3/7vNZ+Gkj6FgkgeU2DAzXswus7OwANe1vpeeuCLzwznlhJ5bp3Bzl6/t/3/SqvxtzC8o1ubmXWDOiWW+8Xg/qyyZILzUoWoBacEKO3kOBmyOz6aUygTs122Jm91vUmSv083p6bBPMPZNsJCGD998NIf+1gTsnD5xn3tc/NLsc6eTFvNp6ECItp0FY+5B9MJM9oZdRctCQ94GffHOuNUzGg3Pvko5yeizs1m+tlGDeZUPTucm3/mN8ugW08kego5c8kyorLOmJ5fqntDb7SbmQy/dk/exKuLezBOMZo7Qn65aInfewx/M79U19megcXwO99HQM7+3reFBjGak4dzd0vFrOLj50zD9MYOh2e6azB7/50/GV7kcfxORg9kNfQ0k0zMPoYZ7eo+gfSrimEIKQP+yOJRBaZPIL2htBp/0Wy9/xqonT2zuosWRU29qa9UzKokakFvcPORtjE+mlP0SH9m6aVr1l6tOvsjBDXNrbtoGbf3GP5quRJPPH3J/DAfoVn4CO0Gm+nnMZt5EVVg7hJY02BO3n3EMLum3vQ4h+2HIyy/Gz0daHk/oUGM60mPI5uDA+i/nv3d8jejucPR0d6co2dN03S4HTz5GKfHy2U8+Sjn+OCHmb/wuTSP2g/boy6RwM3u4mv5pVi3lxsMC2GcXDcraEQfAd1IRp4yJT48r0i7UoPZR5LRvgClXZSKWd+mJ6CrogeyLpBxDiK5cE3eyymx3M9yUgM/dMG5QPYm9UflJ405zhwrjWDl5c/t5dSxns6jejDgZnexGoCO6zUN5qTuDJrSYPaQ7RX6WQB0qGRidi3RecJFzMvT5WiBAKX9cF1r47TqiJ0PYzR3BDY1W5/YfcQwN79U92ZTs2VAk8o6AABwJTSIQehoUqIw6H6mKzdsXKPZuU3ousn/zCXLmJu7MJoGcNh+unARk7RRrophyPeRfRlVP583D+28fHPkWJXaNqpciceMGsz+zpvWeukOj+vB3FZdb/pbZ8+hqdn6dHePEaC0Q4unBMxNGELeXtDnLlseKjmsn1Vajc/AcMc+iE5oi4/i7Ijsx2yQillfy8TsJpLP5xCdwU4/es4Uf6rpj5nP41Rq2wgyz4cifr+lxaPr4qM5mwf1Y7aSdZ6N+9pfzS/F/gEACHAwX/2qV4UTqdzXydU8tsDctnFf+0v5pdj6B+1Ncye5hLM0OyXgH0I+nbRvE7XO5relDEs/8qtpQVOz1aH1gHvAHBbCKMhM4v8QFsKoDBcx3W68xMZ9uvQjvxqfq7toUTj6B+oAc0osd/FMBX9DHwE573GLxobeGvE9zNFjN84JksrEbNK+5NyJxxcYcLM3MzyvSLu8qdna7cmPIiH956XTAufJxGzCnjR1RWew046eM43e/zM+pbrB9ByGd3Q5kpYEhsi+jOr+wQzlqMc434mC6I2ufNz7IFdbrcLTlyxDDp02PlNTbx7zgK0+nCJAaY3jZMimiU9yvwgXMQlfvf9qqxVdu7t9YbnSON+Ryaa3tsd5PjWOd5DoTO7GKwrMbblFbW8XHzTkOXCILWoA86vVmcJXhXw6aU8kbmtUWYRHfjWNX1PSvhQAQOTWJd0iQGknpWLWL9II9r9T43hutRB4mRJ/svwEnlR+0vjAnRKdoE6J5b6Xkxq4juB2/1BUhY3PK27f1Z2tZO9gzkxEx2Yl+bvV+0A0ryow4NZQ+FU7tevOX7E6sri3JiWWmzf9KfSz0CCGSx4DlinxwaeazM/vr8af12B2l2/j0VlcBSitapwMOcxHaKeTY5BvQ4MY7RTk+Is9Rw2xpy+Zk0qr8RcwvGMggU1fXDDJf0laArqNwDb/UHEKj/nwK+1/NJjdkRX21IXZvUcN6sf8leg87sLrCsxtq3dpZ26v0K++z7qnXWmbN9F/cdLjyOdCvutm/TaqLKH5pbql5UpjEgCgr6vO2wWVfCjnM/kw5FD0AFYFkXt1O6vsBK7YXoHNqrtoeaan88FuCwthlC9JC5wVPZBF6DazLRqb3xsbWn9uarZKu3mIOWUUd0HOC+T0rNyB1xYYcLM3M3DptrYtKrUtzpHjREJ6Q1o874NxMuQ/Qj4542e6otbZOKcumGP2V+OK079ZxqjUthii/qiccEUawToTJmKUxzzCPtq/N0MZLmJS9lj83GVLRMlh/fhDp03TVGqbjIAm26bG8z7JGIuuJXKv6KutVuHcz9QbmpqtL9zvdQKUdnTxlIDshCFIFVHndkdeXWBuK6rSp67f274MwzscHXXbEh/F2TE1gbeViuUKG1WW4DO/WWSVtcbUUxfMf9Ng9u5+M5LBHNmXcSyyH3N/cgz3p1Ah/QRV43Cq601D9hz7Yy+pdGeWOr3L1cxEfl5KLPdTIZ+4Htt7X2pm7z2O//Pu5T4EKO1ixlj0g7QEdBNR53JnPlFgwM3eQa/5+eqP6i5aXnHm+LAQxv7MJH62QoIQPlivu8qU+JAWje2JLWXYbA1mH0JVjlta5RLOD2EhzK+ykvi7qAjQqLIIdh8xTN9eoX+/p/tf39rF83kinzZt+wGbsKakfc/t/y6NYO1cPl3wurfsedQdPlNgbqs4hcs//Eq7ToPZndquFEX8lFmJ/PxxMmQrmeNoHkStszH3V+PPnrtiefyn06ZEDUb8ivqOEAnp+5JjuGVyCaeIjEfC96Mz2LmFlfqMwkpsFoZ3OD0JFUX8WrMS+TPSEtC9RGX75qjh2VW7tKtmT/DPTo3j7SSqXU/hcwXmtuxN6tXlJ43zetJGWAjj88wk/laFBDlEXDLndBacLWXYhJY2W0q50jgCADCAqiwClNY4Q4F+POJRdlm4iOnS+VOrd2ln7vsZf1eD2Z0eBiCXcNZnpwS8JeTTPWaSqbvy2QIDbm6+9mzBAeyfGszeoz9GkZB+ctRg9rdyCfINlavV3abW2fyamq1Da+pNUTX15meuqm0DVWqbwyNOCWCSRrAOS8WsPfHRyDeD+jEbXXHSq63WwMJK/Zv7q/FZGszu1HQNkZD+89rXhC+Gi4hZ08VX+XSBAbcWgl6yVePUVrJdCQthHBvxKPubGQr0EyGfjhHRJhFqL5j7nf3dErfvZ8O4uouWFxwcFEYEc9QAZtmIRzmfZCXxSdt69061F8yB675p/7imwfyqk02os1MCpqbG8VyS1xv5fIG5rahKP3b93vaVGN5B1L2MjrAQxuGYR9jfDQljfauQkDfB0hkVtfjg85etE85ftgysrDMmAwB6+jTGEa0TYpDNowZzihSSni/T+SBlSlxa8J0u9/yV7k8luYNZLuH8Iy9D2NUq/9ADwAJzB53BTi+txl/OK9auAAAQtSzmbUZpBKtIKmb/IhWzimRi9m8Et98jV1ut3EOnTU9fum4dVllrHKtS255wxXlRxO/35Bju2olPcvPJHmdTVKV/auv32MfOXC5G9mVU5s/pNd7XllvoKVhgutCosgTmFGgqm5qtZD4K1sqHctbJhyHHpRGsfe54Q3HjPl1yU7MlvVxpfNwVc6fkQzmfp49B86IHski9V5Py4bWCpmarw5fEApR2ePvbvRVkzdD2RrDA3EPnN/rW77HXSqvxdzDc4eUSHdUsjWCdCBMxSuUS5ERYCEPpismX3aUz2FnnrlgklbXG6Jp60wvnr1hlJC61YJNGsHalxPE+HT6IfYTP7fleV10pqtKnrN/bnovhHQ4VTgFKO7d4SkBKwhCkjoxc3gYWmAdoVFn67z5imLm9Qr/IhTdG9dII1oFHHmJWPDuC+2W4iEnJ9qv30qKxsWsvmsdv/wGbUnfRMtHZzekeJCyEUZWdGvCKTMwmdM7QbY0qS/AbG1q3X2uzO3RvJiyEsb94cXAiGZm8DSww3dT5LV5YqZ9WU29KqmkwT+rhHscOQRG/puGPsL8JC2H+JhWz9rnTui46g51ZWo2POX3JnLD3GD4dAED0Mpl2aQRrx9R43pqEIeRsw7typ/atHZX6Nd14KZYSy31n9gT/z121S6engwXGCY0qizC/VLe4pt78jAazR1AQwRQ1gLkn6XHuLqmY9aOrR87eT5kSf6S4Sr+wpsE8kYj9n+8UHEjbtm5W0KJwEfN3ItsFN3NL8oq0pRrM3qer3wtQ2pncDIFcJmbfc3dR6K9ggemBq61W9ulLlpH7f8aTT10wj9JgdiJm+TrKGhbCONa/N+NCTGcvR8RokonZLt9w/26NKgty5jfL6D3HDNPOXbHEYngHIbtioojfjeGPsP8991n/T0ODGIQW1up6k3jB5+qddw5VQBE/TaIMWTP9KbTzfG51qeoJYIEhUHW96ZE9xwwKVattYk2DeRiJN0If5Jo0gnUqsh/zu/hoTnWokH7SVQtpdUVnsHMqa41j9hwzzKxpMMd1dkYIaLZlajxvRcZYdJ2QTydsP2udwR6w4HP1qpoG80y5hPNlSizvXZmYfZmo9n0NLDAk6byMamq2PpW/T5fR1GwdR3GcdrmE850ApR2cqeBvovIxa6PK0vvIr6aUNSXtywAAPX46FxxIq1s+XZAiE7MJHdJfpsSjqZw57y1ggXEBtc7G2F+NJ3ZeKvx02pSswQjbDdIpKOJXHx/NKR7cn1WdKENK+VyayxbVuk1nsDNKq/FJJYf1U89fsT7Xw+bwlFju+tkT/JdQ8W+B7g0WGAo0qizc3UcMr5z93SKvaTCPIWGRa4cEB9KqZir4+Y88xNwXPZClcfX5y07gku0V2Md1Fy3ODOX/HwFKO7c6Uzg1eiDL5YuDQV2DBYZijSoLX4PZJXuOGZ5StdriahrMjwIAunyS4QKGyL6M4/HRnCKpmH3c1TeLK2rxkTsq9G/VNJiTAQBsJ5vRTo3n5WUl8lfyuTSXrasMdQ0WGDej1tk4nb2amnpTVPFBw2wAwENUZaFqZnh1vSlqyVbNJ9fa7PHOtiGNYG1dPl0wwx0WLvdlsMC4uautVrSy1jjx0nVr+KHTpqdUatsoCmLYw0IY5XIJsi8tnve5qyb8VZzCn1q6ve0fGN4hceZ4AUo7nZsheMkdHtv7KlhgPNCtpRbGX1VbH9p7DJ9CxNMYB1jDQhh7Jz7J/XacDNniikmaRVX6yVu/x/7u5O6P9pRY7oLZE/w/5XNpNhLiQfcBC4wXaNHY/DeX6TI1mP2JcqXx6Z4ugO0Au3wo51P5MOQzhQQ5S/bJsgvUS8qVxoXO/PukEawt+XN7EbKoGNR9sMB4mautVv+rapukstY49PxlS1JNg3koQQPb7sce2ZfxXVo8+unIwez9RG7/cbfqepMkr0i7rKnZmtzdY8JCGAeyUwPek4nZR8nKBXUNFhgv16Kx+dVeNI8tV+KjypXG10lYSOtPggNpp2cq+B+kxvG+IvM8uUVtc4oPGtY+6HUpsdz/y0kNXElmFujeYIHxMY0qS79ypXFyZS0+4vwV62SylloAAFyaGs9bkzEWXU/WNrwVp/DYD7/Sft7VFjSRfRn7F0wOeEMmZrtkoXGoa7DA+LiyE3hs+Uk8q1xplJM0/saUEsvNzkzkbyCj0HT20JZs1WypaTBPv/Ujq3woZ0ney8Jcos8FOQ4WGOgPV1ut/qcvWWT7f8aTqxtMiRje4dTGdPciEtJPJMcg/0iLR0uIXkvl5lo92Ct7juHj5j7nv1ghgavNuQtYYKC/0BnstHNXLJI9xwwJZ36zTGxq/mOJTEJW8xMJ6U3JMciKtHi0mM+ltRPRJuS+YIGBHqi63hRVVWd8fnuFPoeoQiNAabXZqQHTFRLkFBHtQe4JFhg3VqbEnyz4TjdNKmar+/dmKEcNZpeGBjEoW2pBZ7AzNpbqZu2vxlM0mJ2QEcWjozhfLpzs/0ZoEAP2ZrwQLDBuTq2z+eUVaf9VftKYBW4+Bq59bgTvszAR47hCQs4atd1RXW+KXPdNe17dRcs4AACnh821zpvo/9y0MSjle3xDxIIFxkOUKfHYtV+3b1SpbY/e/plISK8d1Jd5bNzjyH/792acHtSPecXVuc5dtkQWHNBNO3rW9CKGd/Rkj2+7NIK1OTs1YFG4iHmNwIgQhWCB8SBqnY2VV6x9v1xpzO7i18Zbez/vzUri51OQjZNfqssuPmhY2sOmruXOFExVDEN+ICgaRCFYYDxQxSn8yQ+/0q7RYPZ7bu8qEtLLkmO438olnB2u7BGodbbAggPY3B2V+rcAAIFONtMhl3BWvDslMJfPpblsmQiIeLDAeLCN+9pT8kuxfz9o8h+K+DUmypDCmEHsvQlDkOMuzPdKfin2HgCgnxOHmzMT0blZSf6fkRANchFYYDxco8oSvLywbVfdRcvIbh7SlpnIXyqXcL5w1Y6R2ZvUOeUnjcu6+4g7LIRxaklaoCJ6IOs6+ekgMsEC4wXUOhut+KA+s/igYem9Ng7rQrM0gnVwagJv05CBrB+FfDqpi2VX15ti8oq0i5qarc/c6zUo4ncjLZ73YXIMN5/Kx/EQcWCB8SK1F8yC5YVtW5uarRMcPPR8Six3U05q4MckRfufjft0qfmluh0AANqdPw8OpB1ZNytoSriIeYnsDJDrwALjhYqq9Onr97Z/hOEdjq7nqx8dxdmclsD7J5mzkBtVlt55RdpVNQ3mFwEAxsxE9PWsJP8tZJ0Pog4sMF5KrbP5Z33SuqOp2ZrkzPFRA5jFbzzjv1QmZp8hPt1N237AJjzyEPO0TMy+QNY5IGrBAuPFdAY7UliJpRVW6v/u5N7QJmkEa+/UBN7ahGjkIAkRIS8HC4wPuNpqDV67u/2tcqVxlrP7ZYeFME5OfJL7j+QY7g4+lwY/NFC3wALjQ8pO4MNWl2h3XmuzOz2kXxrBKlk+XZDVR0CHj5ChB4IFxge9t02zeO8xfHnn++9kE/bRUZxPZifzl4SLmHCkLXRPsMD4qLITeEzOZs0XAICerFxnSonlZuakBm4lMBrkRWCB8WFqnU1YcACbv6NSPxcAgDrbTlgI49CsZP4bCdFw8Sjoz2CBgUDtBbNkfr76Sw1mH9yDZmyZifzMrCR+AYHRIA9HozoARL3ogSxlyZLgoSmx3GUAAJ2TzdDPXbYQulA45PlgDwb6k3OXLX027tP9/cc64ysOTE6snDWBvyBhCHKC/ISQJ4EFBupSi8bGXbJVk1/TYE6/z8vwlFHceTkvBG50YTTIg8ACA91XmRJ/orhKn13TYB4PAGADACxhIYwTjz3MPDz9KXRjuIh5juqMkPuCBQbqlhaNjV570fxQWAijOVzEJHVpB8h7wAIDQRBp4FMkCIJIAwsMBEGk+X8BAAD//7bXIWFXqeZ8AAAAAElFTkSuQmCC;" vertex="1" parent="1">
          <mxGeometry x="250" y="253.62" width="68.19" height="68.19" as="geometry" />
        </mxCell>
        <mxCell id="YOJ8vIp8eEDOzX5zeuK2-3" style="edgeStyle=orthogonalEdgeStyle;rounded=0;orthogonalLoop=1;jettySize=auto;html=1;entryX=0.986;entryY=0.617;entryDx=0;entryDy=0;entryPerimeter=0;" edge="1" parent="1" source="YOJ8vIp8eEDOzX5zeuK2-2" target="YOJ8vIp8eEDOzX5zeuK2-1">
          <mxGeometry relative="1" as="geometry">
            <Array as="points">
              <mxPoint x="210" y="295" />
              <mxPoint x="210" y="295" />
            </Array>
          </mxGeometry>
        </mxCell>
        <mxCell id="YOJ8vIp8eEDOzX5zeuK2-5" value="" style="image;sketch=0;aspect=fixed;html=1;points=[];align=center;fontSize=12;image=img/lib/mscae/Kubernetes.svg;container=0;" vertex="1" parent="1">
          <mxGeometry x="375" y="75.81395348837209" width="71.04" height="68.19" as="geometry" />
        </mxCell>
        <mxCell id="HAClDOSr-csIPDZp6A96-6" value="apps" style="rounded=1;whiteSpace=wrap;html=1;labelPosition=center;verticalLabelPosition=top;align=center;verticalAlign=bottom;container=0;" parent="1" vertex="1">
          <mxGeometry x="550" y="160.46511627906978" width="256.6666666666667" height="108.83720930232558" as="geometry" />
        </mxCell>
        <mxCell id="HAClDOSr-csIPDZp6A96-5" value="" style="aspect=fixed;sketch=0;html=1;dashed=0;whitespace=wrap;verticalLabelPosition=bottom;verticalAlign=top;fillColor=#2875E2;strokeColor=#ffffff;points=[[0.005,0.63,0],[0.1,0.2,0],[0.9,0.2,0],[0.5,0,0],[0.995,0.63,0],[0.72,0.99,0],[0.5,1,0],[0.28,0.99,0]];shape=mxgraph.kubernetes.icon2;prIcon=ns;container=0;" parent="1" vertex="1">
          <mxGeometry x="526.6666666666666" y="136.27906976744185" width="50" height="48" as="geometry" />
        </mxCell>
        <mxCell id="HAClDOSr-csIPDZp6A96-12" value="example-app" style="aspect=fixed;sketch=0;html=1;dashed=0;whitespace=wrap;verticalLabelPosition=bottom;verticalAlign=top;fillColor=#2875E2;strokeColor=#ffffff;points=[[0.005,0.63,0],[0.1,0.2,0],[0.9,0.2,0],[0.5,0,0],[0.995,0.63,0],[0.72,0.99,0],[0.5,1,0],[0.28,0.99,0]];shape=mxgraph.kubernetes.icon2;prIcon=svc;container=0;" parent="1" vertex="1">
          <mxGeometry x="631.6666666666667" y="177.3953488372093" width="50" height="48" as="geometry" />
        </mxCell>
        <mxCell id="HAClDOSr-csIPDZp6A96-13" value="example-app" style="aspect=fixed;sketch=0;html=1;dashed=0;whitespace=wrap;verticalLabelPosition=bottom;verticalAlign=top;fillColor=#2875E2;strokeColor=#ffffff;points=[[0.005,0.63,0],[0.1,0.2,0],[0.9,0.2,0],[0.5,0,0],[0.995,0.63,0],[0.72,0.99,0],[0.5,1,0],[0.28,0.99,0]];shape=mxgraph.kubernetes.icon2;prIcon=pod;container=0;" parent="1" vertex="1">
          <mxGeometry x="725" y="177.3953488372093" width="50" height="48" as="geometry" />
        </mxCell>
        <mxCell id="YOJ8vIp8eEDOzX5zeuK2-6" value="dev" style="rounded=1;whiteSpace=wrap;html=1;labelPosition=center;verticalLabelPosition=top;align=center;verticalAlign=bottom;container=0;" vertex="1" parent="1">
          <mxGeometry x="550" y="317.6744186046511" width="256.6666666666667" height="108.83720930232558" as="geometry" />
        </mxCell>
        <mxCell id="YOJ8vIp8eEDOzX5zeuK2-7" value="" style="aspect=fixed;sketch=0;html=1;dashed=0;whitespace=wrap;verticalLabelPosition=bottom;verticalAlign=top;fillColor=#2875E2;strokeColor=#ffffff;points=[[0.005,0.63,0],[0.1,0.2,0],[0.9,0.2,0],[0.5,0,0],[0.995,0.63,0],[0.72,0.99,0],[0.5,1,0],[0.28,0.99,0]];shape=mxgraph.kubernetes.icon2;prIcon=ns;container=0;" vertex="1" parent="1">
          <mxGeometry x="526.6666666666666" y="293.48837209302326" width="50" height="48" as="geometry" />
        </mxCell>
        <mxCell id="YOJ8vIp8eEDOzX5zeuK2-8" value="&lt;div&gt;nginx-dev&lt;/div&gt;" style="aspect=fixed;sketch=0;html=1;dashed=0;whitespace=wrap;verticalLabelPosition=bottom;verticalAlign=top;fillColor=#2875E2;strokeColor=#ffffff;points=[[0.005,0.63,0],[0.1,0.2,0],[0.9,0.2,0],[0.5,0,0],[0.995,0.63,0],[0.72,0.99,0],[0.5,1,0],[0.28,0.99,0]];shape=mxgraph.kubernetes.icon2;prIcon=svc;container=0;" vertex="1" parent="1">
          <mxGeometry x="631.6666666666667" y="334.6046511627907" width="50" height="48" as="geometry" />
        </mxCell>
        <mxCell id="YOJ8vIp8eEDOzX5zeuK2-9" value="nginx-dev" style="aspect=fixed;sketch=0;html=1;dashed=0;whitespace=wrap;verticalLabelPosition=bottom;verticalAlign=top;fillColor=#2875E2;strokeColor=#ffffff;points=[[0.005,0.63,0],[0.1,0.2,0],[0.9,0.2,0],[0.5,0,0],[0.995,0.63,0],[0.72,0.99,0],[0.5,1,0],[0.28,0.99,0]];shape=mxgraph.kubernetes.icon2;prIcon=pod;container=0;" vertex="1" parent="1">
          <mxGeometry x="725" y="334.6046511627907" width="50" height="48" as="geometry" />
        </mxCell>
        <mxCell id="YOJ8vIp8eEDOzX5zeuK2-10" value="prod" style="rounded=1;whiteSpace=wrap;html=1;labelPosition=center;verticalLabelPosition=top;align=center;verticalAlign=bottom;container=0;" vertex="1" parent="1">
          <mxGeometry x="550" y="462.7906976744186" width="256.6666666666667" height="108.83720930232558" as="geometry" />
        </mxCell>
        <mxCell id="YOJ8vIp8eEDOzX5zeuK2-11" value="" style="aspect=fixed;sketch=0;html=1;dashed=0;whitespace=wrap;verticalLabelPosition=bottom;verticalAlign=top;fillColor=#2875E2;strokeColor=#ffffff;points=[[0.005,0.63,0],[0.1,0.2,0],[0.9,0.2,0],[0.5,0,0],[0.995,0.63,0],[0.72,0.99,0],[0.5,1,0],[0.28,0.99,0]];shape=mxgraph.kubernetes.icon2;prIcon=ns;container=0;" vertex="1" parent="1">
          <mxGeometry x="526.6666666666666" y="438.6046511627907" width="50" height="48" as="geometry" />
        </mxCell>
        <mxCell id="YOJ8vIp8eEDOzX5zeuK2-12" value="&lt;div&gt;nginx-prod&lt;/div&gt;" style="aspect=fixed;sketch=0;html=1;dashed=0;whitespace=wrap;verticalLabelPosition=bottom;verticalAlign=top;fillColor=#2875E2;strokeColor=#ffffff;points=[[0.005,0.63,0],[0.1,0.2,0],[0.9,0.2,0],[0.5,0,0],[0.995,0.63,0],[0.72,0.99,0],[0.5,1,0],[0.28,0.99,0]];shape=mxgraph.kubernetes.icon2;prIcon=svc;container=0;" vertex="1" parent="1">
          <mxGeometry x="631.6666666666667" y="479.7209302325581" width="50" height="48" as="geometry" />
        </mxCell>
        <mxCell id="YOJ8vIp8eEDOzX5zeuK2-13" value="nginx-prod" style="aspect=fixed;sketch=0;html=1;dashed=0;whitespace=wrap;verticalLabelPosition=bottom;verticalAlign=top;fillColor=#2875E2;strokeColor=#ffffff;points=[[0.005,0.63,0],[0.1,0.2,0],[0.9,0.2,0],[0.5,0,0],[0.995,0.63,0],[0.72,0.99,0],[0.5,1,0],[0.28,0.99,0]];shape=mxgraph.kubernetes.icon2;prIcon=pod;container=0;" vertex="1" parent="1">
          <mxGeometry x="725" y="479.7209302325581" width="50" height="48" as="geometry" />
        </mxCell>
        <mxCell id="YOJ8vIp8eEDOzX5zeuK2-17" style="edgeStyle=orthogonalEdgeStyle;rounded=0;orthogonalLoop=1;jettySize=auto;html=1;" edge="1" parent="1" source="HAClDOSr-csIPDZp6A96-18" target="YOJ8vIp8eEDOzX5zeuK2-6">
          <mxGeometry relative="1" as="geometry">
            <Array as="points">
              <mxPoint x="525.5" y="429" />
              <mxPoint x="525.5" y="372" />
            </Array>
          </mxGeometry>
        </mxCell>
        <mxCell id="YOJ8vIp8eEDOzX5zeuK2-18" style="edgeStyle=orthogonalEdgeStyle;rounded=0;orthogonalLoop=1;jettySize=auto;html=1;entryX=0;entryY=0.5;entryDx=0;entryDy=0;" edge="1" parent="1" source="HAClDOSr-csIPDZp6A96-18" target="YOJ8vIp8eEDOzX5zeuK2-10">
          <mxGeometry relative="1" as="geometry">
            <Array as="points">
              <mxPoint x="525.5" y="429" />
              <mxPoint x="525.5" y="517" />
            </Array>
          </mxGeometry>
        </mxCell>
        <mxCell id="HAClDOSr-csIPDZp6A96-18" value="Kustomize" style="shape=image;verticalLabelPosition=bottom;labelBackgroundColor=default;verticalAlign=top;aspect=fixed;imageAspect=0;image=data:image/png,iVBORw0KGgoAAAANSUhEUgAAAfgAAAH3CAMAAABgoL2YAAAB11BMVEUAAAAAAP9VVaoqVaokSZI7YrE7Yp07TrE/X581XqFDXqFDXq89Zq49XK47Yp07WJ1CWq0/X6c/V6c3X6c2Xao8Xqg/Yqg+YKQ+W6Q6X6U+Xqw8X6pBX6o8X6VBX6U+Xqo+XqY9XKc8YaZBYao7X6M7X6c/W6c/X6c/Xqk+X6g9XaU/XaY7XaY8X6lAXKY8Xqc/Xqk/XqY8Xqk+X6hAYadAYak7Yac9Xac9Xao9X6c+X6g8X6g+XqY/Xak+X6c9Xak7X6k7X6Y/X6k9Xqg9X6c9Xqc/Xqc+YKc9Xak9Xac+X6g7X6g+X6Y/X6Y8XaY8YKY+Xqc/Xqc8Xqg+X6c+XqY+X6c7X6g+Xqk9Xqk+XqY+X6Y/Xqc7X6Y9Xag/XqY8Xqg8X6g9Xqc9Xqc+Xqc+Xqk9X6Y+Xqg9X6Y8X6g9Xqc+Xqg9X6g9Xqc9Xqc+X6g+X6k+Xag8Xqg9XqirudnP1+mTpc4/YKjm6vRifbnm6/Sfr9PO1umHm8j+//+Gm8m3w95Laa3O1+ny9fry9Pp6kcPb4e7+/v+1w9+qudmGm8jDzeRvh762w97///9Wc7OSpc5ifbier9Nuh74+X6jz9fpjfbmer9TBzeRKaa3a4O7n6/RXc7NLaq3Kc2WuAAAAc3RSTlMAAQYGBw0NDRATExMZGRoaHyAgICEmLC0tMDEzMzMzOTk6Pz9AQEBAQUZHTU1QU1RZWVleX19fYGBgZmZqbW5wcHBxdXl9fX+AgISJjIyPj5CQk5SYnJ6fn6Oprq+vur6/xcvOzs/W19zd3t/o7u/v8/n+HHta1wAAAAlwSFlzAAALEwAACxMBAJqcGAAACzBJREFUeJzt3fmbHFUVgOEhxjGgLEHGLcagkpiQKIPikm4EBTcQo6KyBCSIohJAtNslIEogCaDQiSRRQ/CPdWYYkp6qc6t76i7n3Hu/98c0Tz1FfU91zamtFxYAAAAAAAAAAAAAAAAAAAAAAAAAAAAAAAAAAAAAAAAAAAAAAAAAAAAAAAAAAAAAAAAAAAAAAAAAAAAAAAAAAAAAAAAAAAAAAACAMBaXdu4pwac/cs1W7W2Zj62fWh4WZN927Q2ah603apcKbnlJe6Nm4Pova2eKYc/7tLerdZ/UThTJ8ge0t6xtpXanfLdyu6+U59ve6f3acaLap7157Spqimu7Xnv7WrWkXSayZe0NbFXhO/xwyDgvuk67S3T7tTexTZ/T7hIff9hLiv+m57tetEW7SgK7tDeyRR/SrpLAzdob2aIawh/Q3sgWEb5ShK8U4StF+EoRvlKErxThK0X4ShG+UoSvFOErNX/4r3/r2/fm6Rs7pyxdwx3Xq+YMf/d9Dz6crfsb/zPLe67U3uz65gp/90+023lphl+xv/rdfo7wt+edXQw/HO6q/Ias2eHv+pl2OF9i+NqfrpoVfnBXxgf3dXL4ysvPCD+4I//urvB1P1c3I/zt2X/PP+wOX/Ud993hB9/XjhaCM/zwo9qbX093+Du0mwXhDn+w3i/7zvCDH2g3C8IdfrhTe/ur6Qxfxg7fFf6g9vZX0xn+O9rJwugIP7xWO4CWzvA/1k4WRlf4ar/rO8P/VDtZGF3hq328qiv8QLtYIF3hq31fRlf4Qv626wxf7V93tYcfagfQQvhKEb5ShK8U4StF+EoRvlKErxThK0X4SlURftBBO4CWMOEfecyyR+7rsHfv3k9ccYV2hvT8wx9+4pk/nMvbc49/7Yba2vuGf/TXuVdf99AN2inS8gz/RCHZV32vqp3eK/zhZ7RjBfVkTTu9T/hHf6+dKrCnKyrvEf5wad2rKu8R/rfamSJ4XLtHMv3D/0I7UgyjO7WDpNI7fHEH+Hc9u027SCK9wxe5w6+4R7tIIr3Dl7nD17PL9w3/mHagWEZf1U6SRt/wv9EOFM1D2knS6Bu+rHN2057WTpJG3/AFnaNv0k6SRt/w2nUi+rB2kyQI30J4wheM8C2ErzP8iPCELxjhmwhP+JIRvonwhC8Z4ZsIT/iSEb6J8IQvGeFbCE/4ghG+hfCELxjhWwhP+IIRvolxjvAlI3wT4QlfMsI3EZ7wJSN8E+EJXzLCNxGe8CUjfAvhCV8wwrcQnvAFI3wL4QlfMMI3Mc4RvmQK4c++1fSvAL3OtJa65vSmF0T4WOHfmjT9w2Np615qLXTNmc0vifA5hXd0/3uPRRE+o/By97/16U74fMIfl7ufONlraYTPJfzxU3L3Y/0WR/hMwgfuTvhMwju6/6Vvd87c5RHe1X3z8/slhM8gfITuhM8gfIzuhLcf/n8xuhPefPh3Lord3/brTnjr4V3dL3is2yrC2w4fqztzvO3wju7/9e1OeNvhHd1f81ivdYS3HD5ed8JbDu/o/rrHWl1CeLvhHd3/47FSlxHebPio3QlvNnzc7oS3Gj5yd8IbDR+7O2fubIZ3dO91W6UD4Q2GT9Cd8AbDy91PBO1OeHvh/31e7N7/9joR4a2FT9Od8NbCy909bqeVMc4ZC+/o7nm7TRvhbYVP1Z3wtsIn6054U+HTdSe8pfAvputOeEPhX5Sy+99WKSO8mfBJuxPeTHi5+18jdSe8lfBy9xC3VcoIbyN86u6csrURXu4e5HZaF8IbCC93D3i7jYDw+uFfUOhOeP3wKt0Jrx5epzvhtcMrdWecUw4vdw97e52E8LrhtboTXje82D3w7bQywmuGl7uHvr1ORHjF8IrdCa8YXuwe/HZaB8KrhZe7R7ndRkB4rfBi9+dTdSe8Vnh5jgvxQ1XzIbxOeLn7ZOyZc36EVwk/lrv3+iGxfgivEd7xM2IrzvPHXVC2wru7TyanYt1d2UD49OG7uic7zBM+efju7pNJv9+R2yzCpw4/q3uiwzzhE4ef2X0y+WOgtp0InzT8n+fonuYwT/iU4R0/J9VyNlhfJ8InDD9v98nF48ECuxA+Xfg/id1PSP8Y/zBP+HThHa89eFn65+inbgmfLrzk7dPnTr8ifRD7Oh3hVcOvvfbgpPTJxcinbgmvGf61d+u+Ln32UpjALoRXDP/e4+8Xnpc+jXuYJ7xe+MuPSR2TPo576pbwauGnH487I/0HUa/QEl4r/MbHIsWZbuyVthvhlcI3HpOSZ7qIV2gJrxL+1dbjceJMF/EwT3iN8NJjUuJMF+/ULeEVwouPx8kz3dhjDToRPn14x2NS4kwX7Qot4ZOHdz4eJ850FyMd5gmfOnzHY5HiTBfpME/4xOG73kYtz3RxTt0SPm347reQizNdnMM84ZOGn/VWYnGmi3KFlvApw898K7E80/3TYzVcCJ8w/BxvLZRnugiHecKnCz/XW8jFme58+BuxCK/9StMmcaYLf5gnvLXw8kw39lgTEeGthXfMdHP/+PycCG8uvDzThb5CS3h74eWZ7pTHuggIby+8Y6Ybe6xMG+ENhpdnuskbHmvTQniL4eWZLuhhnvAmw8szXcgrtIQ3Gd4x073gsT4NhLcZXp7pAl6hJbzR8PJMF+7ULeGNhnfMdMGu0BLeanjHTBfqCi3hzYZ3zHSBrtAS3m54eaYLdJgnvN3wjplu7LFSlxHecHjHTBfkME94y+HlmS7IqVvCWw7vmOlCvCqD8KbDO2a6scd6rSO87fDyTBfgVRmENx5enun8D/OENx7+3Flxl/e+Qkt46+EdM93YY9VWEd58eHmm871CS3jz4c8dE9937vljBoS3H94x0/kd5gmfQXjHTOd16pbwOYSXZzqvHzMgfA7hHTOdzxVawmcR3jHTefyYAeHzCO+Y6fof5gmfR3jHTHf+nb7LI3wm4R0zXe/DPOFzCe+Y6cY9l0b4bMI7ZrqeV2gJn014x0zX8wot4fMJ75jp+p26JXxG4R0z3bjPsgifUXjHTNfrCi3hcwrvmul6HOYJn1V4x0zX4zBP+LzCO2a6zZ+6JXxe4R0z3eYP85WE/2Ax4R0z3aZP3VYSfjF9+JNvNoV5gc2F1nLXtH66coZKwi/cljy8cbWEv4nwG9US/jrCb1RL+C3u73rCF23HgPDTqgm/5VbCT6sm/MLVrl2e8IXbQfgpFYVf+Ky8zxO+eLvE8oQv38ek8oSvwOLudnrCV+Gq3bcNBsPBFMLX4uqd+w5MueV+N+088dQYvqHrkq12nngIT/haEb5ShK8U4StF+EoRvlKErxThK0X4ShG+UoSv1BbCV6rj8SrtPPEQfmFhP+HrdCPh6+S8457whfsC4eu05NzltfPEQ/hVzufqtPPEQ/hVzqO8dp54CL9mB+Er5XiuTjtPPIRfJz9Xp50nHsK/Z8dASK+dJx7CX7J467CVXjtPPISfsnRgpfyGHV87TzyE32Bxad+BLxIe2nniIXwn7TzxEL6Tdp54CN/pOe0+0Yy0N61tT2r3ieZX2pvWth9p94nm59qb1rbd2n1iGX1Je9Ma9zvtQpGMtmlvWePu0S4UyQPaG9a6bc9qJ4qCYW6mb2o3imH0Xe3NmoEj2pUieEp7o+Zg+1HtTMEd5Yt+HsWVp/ucyio/eoruczs00s4VzOiHTPCbsP1IGelHRz6jvSlzs/3QL0e5O3qI7H1s2/35g/n6ysf5jgcAAAAAAAAAAAAAAAAAAAAAAAAAAAAAAAAAAAAAAAAAAAAAAAAAAAAAAAAAAAAAAAAAAAAAAAAAAAAAAAAAAAAAAAAAAAAAAOH9HzEMxNyiwetNAAAAAElFTkSuQmCC;container=0;" parent="1" vertex="1">
          <mxGeometry x="430" y="382.6" width="82.85" height="82.69" as="geometry" />
        </mxCell>
        <mxCell id="YOJ8vIp8eEDOzX5zeuK2-20" value="monitoring" style="rounded=1;whiteSpace=wrap;html=1;labelPosition=center;verticalLabelPosition=top;align=center;verticalAlign=bottom;container=0;" vertex="1" parent="1">
          <mxGeometry x="550" y="628.1851162790698" width="256.6666666666667" height="108.83720930232558" as="geometry" />
        </mxCell>
        <mxCell id="YOJ8vIp8eEDOzX5zeuK2-21" value="" style="aspect=fixed;sketch=0;html=1;dashed=0;whitespace=wrap;verticalLabelPosition=bottom;verticalAlign=top;fillColor=#2875E2;strokeColor=#ffffff;points=[[0.005,0.63,0],[0.1,0.2,0],[0.9,0.2,0],[0.5,0,0],[0.995,0.63,0],[0.72,0.99,0],[0.5,1,0],[0.28,0.99,0]];shape=mxgraph.kubernetes.icon2;prIcon=ns;container=0;" vertex="1" parent="1">
          <mxGeometry x="526.6666666666666" y="603.9990697674418" width="50" height="48" as="geometry" />
        </mxCell>
        <mxCell id="YOJ8vIp8eEDOzX5zeuK2-24" value="prometheus" style="shape=image;verticalLabelPosition=bottom;labelBackgroundColor=default;verticalAlign=top;aspect=fixed;imageAspect=0;image=data:image/png,iVBORw0KGgoAAAANSUhEUgAABLAAAASmCAYAAAA+rlJJAAAABGdBTUEAALGPC/xhBQAAACBjSFJNAAB6JgAAgIQAAPoAAACA6AAAdTAAAOpgAAA6mAAAF3CculE8AAAABmJLR0QA/wD/AP+gvaeTAACAAElEQVR42uzde5ycZX3///fnntlsTgRCSLK7SZBAEMjsbsB4omqNh9ofRSC7y1RtpdLWUg9V2tpW29oaj9X6tZ7aqnhCUBGGHAggVVHiAVAxEHazHCMBkuxsEnLglOxmZ+7P748E5JDD7s49M/d9z+v5eODjISQz9/2+7r3v6/rsdV23BAAAAAAAAAAAAAAAAAAAAAAAAAAAAAAAAAAAAAAAAAAAAAAAAAAAAAAAAAAAkCqez2e2n3vKUSQBAABQW0YEAAAgCTYuPf2YidIxZY0ck8naMQo1RW6TZZripgkmP9pdWTM/2j1olsLJkk2RaYJCHe1mWTM/WtIEuaY85+OPkin7rH/jmihp0hgOcbdM/pzP2CNp+Fn/xrTbXSMmPWHSXjcNWajH3bxkpl0eWsllj1vgQ5LtlesJc42EgXZ5qCcD+e4mK+8eyhyze17h1r1cGQAAoBFQwAIAADWz8cITJk7YNXVmYN5qZrNcfqzLjrHAjnGFx5jbMS4dI+kYyY6R/BiZjpFrOukd1LCk3XLtltluyXebtNul3Wa+OwyDXWba7fLdGfftHvhWC7PbZ6/s3W56TrENAAAgxihgAQCAimzKnznJh3dOzwYTWj0TtgWhpocKWi3wtgOFp1a52mSaLqmF/kdseoG7FKoo0y6ZBiQV3bXLzAZcYdFC7coEwcCsGRM22SVrRwgMAADUt+sCAABwCPeftaB52uRJc8ph2GYKWkPpRAu8TVKrpBPlOkn7Z0wh3T3GXZIecKlo7gPuwQOBwmIYBANZ6YFZO2Y8bGvWlAgKAABUrzsCAAAa1mBX56xyJlxgrhMlm+vS3MD9eDfNk2uupONICaMwIqko6WHJHzYFm0P5Zskfynjmgb1HP7Zh/qUPDhETAAAYLwpYAACk3ENnd0xvatKJZjoxlE4085xMC+VaIOloEkKNep27JD0g6QGTP6BQd7kH/RObJmw4trD2UQICAACH70oAAIDE25RfNCcIw9PMdZKbLzDXAplOOlCkmkRCiLmtkjbIbYMs3OCm35rs/mBycHfL5b1PEg8AAKCABQBAgjx0dsf0pglhTkGwUPKcXAsldUqaRTpIqaKkfpnukqxfYXhXU7l058zV9z5ONAAANA4KWAAAxNDD557SlmmasNCkE59RqFokaSbpAJKeU9hy6YEgyN7ZWrhjO9EAAJA+FLAAAKijjReeMHHiY1M63IIzJD9DbmdIvlDSUaQDjMvDkvoku0PudwTZ4I6WQu9GYgEAINkoYAEAUCPbzz3lqJFMdpECWyz3hZLlJL1YUjPpAFXkekymPpnWWuhr3YP+XU1hX67Qv49wAABIBgpYAABUwe/2qrLFcu3/x3SqpIB0gFgYket+mdbKtFahr1Vp4u1t167dQzQAAMQPBSwAACrkFy1uKm7b16mMv/IZxaqFJAMkTkmu+/YXtewXpvLNLcvvusskJxoAAOqLAhYAAGP08LmntDVlJrzCgwMFK5YBAul1YPmhmf8ilG72sHzL3JX37CAYAABqiwIWAACH8dS+Va7gFQr8leZ6mXgTINDoHpB081NLD3dl9Wv20wIAoLooYAEA8AwPn3tKW6Yp+2pze5Vcr5bpNJ6XAI7gSUm3mtnP3bVmeNrjv55/6YNDxAIAQHTokAMAGtrTywEtfL3cXknBCkAESjLdafIbQ+nmScHEnx1bWPsosQAAMH500AEADWVrT8eJYRi+0k2vkOwPJM0nFQBVVpZpnaSbLbRflLLhj+cV+ncSCwAAo0cBCwCQapt6Tjs5q8zr5Xq1S78vqZVUANRZWdKdkv3MFd40oVS6aebqex8nFgAADo0CFgAgVbblc1NHQr3GXG9khhWAhCjLtG7/ksPgxt1B+DM2hQcA4NkoYAEAEs2XLMkWj9mxyE2vN/PXS3q1pCaSAZBgT0q61d1uNNeNbav61hIJAKDRUcACACTO1p6OE8vS6yV/vUL9oUzTSAVAihUl3Whu17J/FgCgUVHAAgDE3s784qOHS/ve4NLZZvoDl7eRCoAGVZa0VvIfWKjrWk7v/40tU0gsAIC0o4AFAIilwXzn/DD0P3D5OeZ6g6QJpAIAz/OITDdZ6Nc1Zydec2xh7aNEAgBIIwpYAIBY8Hw+Uxy553QP/BwzvVGuxaQCAGNSkvQrd7vWAl3TtrzvHiIBAKQFBSwAQN1syueOzZaC17n5OdpftJpOKgAQmQdkus5l17bNmPBTu2TtCJEAAJKKAhYAoKa2Lm0/qRR4j7neKLPfk5QhFQCouh1y3WCy1TbVvt9yee+TRAIASBIKWACAqtv/1kA/R668pN/j+QMAdTXkphuD0AvsmwUASAoGEACAqij2LMyFHuTNlZdpIYkAQCyVJf1SpkJmRN+bvXr9ViIBAMQRBSwAQGSeLlrJ3yLZC0kEABLl6WJWaWSkcPzqeweIBAAQFxSwAADj5ssUFO/M/Z4Cy8vVLWkuqQBAKoQy3eGu68KMf3teoX8DkQAA6okCFgBgzIo9C3OSXeBufyaplUQAIPWjhrWSLs8GfuWsQv8ggQAAav8oAgBgFIpLTz8htPKbzMK/YHkgADSsA8sM7bLmPXu/N+OGDY8RCQCgFihgAQAOaVN+0ZxMWD7/wNsDX0EiAIBnOPA2Q7tsZza8Jlfo30ckAIBqoYAFAHiWjUtPP2aijZwbBpY31/8nKUsqAIAj2C3pWjcvtO2YeYOtWVMiEgBAlChgAQC08cITJk58fOq5Lv8Tuf1/kppJBQAwTpvd9D0v+3fmrupfRxwAgChQwAKABvaMzdj/UtJxJAIAiJTrLpddlpF9s2Vl7zYCAQCMFwUsAGgwD53dMb1povKSv1Ou00kEAFAD+9z0wyC0y1pmTlhll6wdIRIAwFhQwAKABuD5fGYgvOc1Jr9IrqWSmkgFAFAnRZkKZenr85av7yUOAMBoUMACgBQb6Ok41RRe6G5vk9RCIgCAmI1G1kq6vBz45fMK/TsJBABw6EcGACBVduYXHz1cGjrPzS6Q9Dru9QCABBiS6VqXXdK2vO/HJjmRAACeiUENAKTEwNKOxQrCiyT7U0lTSAQAkNAByobQ7WtWGv5627X3PUIiAIADzwcAQFJtvPCEiRMfPeocN79Y0itIBACQIsMyrXbZJXOW991IHADQ2ChgAUACbe5a9MJMUPoLd3u7pBkkAgBIubvd7VulfbrkBdf37SIOAGg8FLAAICH687kJx5aC89z8IrG3FQCgMT0u+RVhqC/NXdW/jjgAoHEw+AGAmNuUXzQnKIVvNfO/kTSXRAAA0IE3GNol2jfh223Xrt1DIACQ9ts+ACB2XLLi+e1/oFDvlXSWpIBUAAA4qEdM9g3PhP/TVuh/mDgAIJ0oYAFAjNx/1oLmqROb3+Rm/yipnUQAABi10E3fl+zzbPoOAOlDAQsAYmBbPtcyUrZ3mPRuSceRCAAAFbldZl8ZPurxy+Zf+uAQcQBA8lHAAoA6GljasViBXyzpzZKaSAQAgEgNuvQVG9n3323X3vcIcQBAclHAAoAa82UKBvpyZ5vbeyW9nkQAAKi6YUlXBWX7dMs1fX3EAQDJQwELAGpkZ37x0UPh8IVy/b2k40kEAIC6uNncPt+SPXWFFQpl4gCAZKCABQBVNpjvnF8O/X3m/ueSJpMIAAAx4LrXTZ/es3fo2yffsGGYQAAg3ihgAUCVDJ7X0RFm/B8lvUVSlkQAAIilrS59eV+Y/dz8Vet2EwcAxBMFLACI2EBX7pUe2PvNdTb3WQAAEuNxmb5ZGhn51PGr7x0gDgCIFwZWABABl2ygJ/dGc/uApN8jEQAAEmtY0lWeCT4+p9B7L3EAQDxQwAKACvhFi5sGtw+9xWXvl2khiQAAkBqhm74fuH+kdUX/bcQBAPVFAQsAxmHwgs4p4Z7w7XK9T9I8EgEAINVudvNPzVnefy1RAEB9UMACgDHYuPT0YyYGpYtdeq+kY0kEAICGGj79yuQfbV2x/nqyAIAa34GJAACObPu5pxy1LzPhXRb4++WaTiIAADT0IKpXbh9rWdl3tUlOIgBQk3svAOBQni5cmX9A0jEkAgAAnjGYopAFALW75wIAnmtTPndsULb3mnSxKFwBAIDDj6r6LLSPUsgCgGreagEAT9vcdeoMs+x7KFwBAIBxWG/un25Z1P9tW6aQOAAgOhSwAEDPKlz9raSjSQQAAFRgfyEru/A7ViiUiQMAKkcBC0BDGzjnhcdZU/M/uvxdkqaSCAAAiHC01WfuH2lZ0b+cpYUAUOktFQAa0OAFnVPKT/jfsDk7AACogfXm9pHWlX0FogCA8aGABaCh9OdzE6aHwYVy/7CkFhIBAAA1dItk/9y2ou9nRAEAY0MBC0BD8GUKBu/s6HHzT0o6kUQAAEAd3RiG/o9zV/WvIwoAGB0KWABSzSUrdrV3yfQxSaeRCICIbZdpi1ynSJpEHADGIJT0nSATfKil0LuROADg8ChgAUitLT0drzf3T0h6CWkAqJjrLplulfyXZbNfl4564r75lz44NNCVe6XMfka/CsA47XOzrzYF4cdmFfoHiQMADo6OFoDUKS7NvVSmT7jZ60gDQAVc0q3mWlnK+qp5hf4Nz/sDyxQUe9t/JenFxAWgQk9K+vxwmP30/FXrdhMHADwbBSwAqbGp57STM8p8Uq4u7m8AKvCoTN+S7Etty/vuOdwfLPbk3uZulxIZgAjtNNd/PDE09MWTb9gwTBwAsB8DPACJt7nr1BmBsv8m07skNZEIgHEqyvXJYGrw9ZbLe5880h8evKBzSvhkeK+kOUQHoAo2mukDLcvXF2z/jFAAaGgUsAAkVn8+N2F6GPyN5B+UazqJABinbTL7VDmY+qV5hVv3jvYvbeluX2bSh4gPQJUHbLeagr9vWdH7S9IA0OD3QwBIni09uXPM7bOSTiINAOMUSv61iZmJ/3RsYe2jY/mLO/OLjx4qDz8o6RhiBFALbrouK7t49vK+B0gDQCOigAUgUQZ7Fr4s9OAzkl5BGgAqcEvo/q65K/vvHM9fLnZ3/JvLP0KMAGps2F1f2OfZT7DRO4BGQwELQCJsOa99nmX0cUlv5d4FoAIjLn2iLXPaR61QKI/nAw7sffWgpOOIE0Cd7HS3/9ydDT+bK/TvIw4AjYBBIIBY25bPTR0p2z+Y9H5JE0kEwLi57vIgfOuc5XfdUcnHbOnqeL+Zf5JAAcTgxnafefDB1pV9BbIAkHYUsADEszu2TEGxt+OvJP+opJkkAqBCXx+e9sTfzL/0waFKPmTjhSdMbH5s6oOSZhMpgNj0m2Q/ybhd3LKydz1pAEgrClgAYmegp/3F7vqiSS8nDQAVKrnbB+es7PtURPent8p1ObECiOP9TvJvhF7+l7kr79lBHADShgIWgNjYls+1lMr2KUkXcH8CEIGtHqh7ztXrb4nqAwe6238hXiIBIOZdKjf9c1vH+kttmULiAJAWDBAB1J0vWZItznjk3XJ9WNLRJAIgAr8tW/msecvvvj+qDyzmcwu9bP1ECyAhI721YWjvmbuy71bCAJAGAREAqKdid+41xWMfuUOuz4niFYBoRm2/skzTmVEWryQpLNu7yRZAYrgWB+Y3D3S3XzbY1TmLQAAkvodHBADqYSCfO17l4DOSn08aACIbr5muC4Oj/nhe4da9UX7uxgtPmNj86NStMk0jZQAJHPXtcteH2nYe9yVbs6ZEIACSeSsDgBrqz+cmTA/tnXJ9TNJUEgEQoeuf3DvUc/ING4aj/uCBno6lcl9JxAAS7h4Furjt6vU/JAoAScMSQgA1M9jV/sbpZbv7wHJBilcAorRyV8a7q1G8kiSF3kPEAFLgVIX6v2J3+xUPn3tKG3EASBJmYAGouk35RXMyYfkLcnWTBoAqWNl6XPOb7JK1I9X48PvPWtA8ZdLErWKfPgDp8qi5/2vLov4v8bZCAEnADCwAVePLFAz0dFyUKZXvongFoEpuGp72xJ9Uq3glSUdNnPgHongFIH2OdrP/Lva23zbQ0/5i4gAQd8zAAlAVW3oWnmEefEXSS0gDQJX8pqk08tqZq+99vJpfMtDTcYnc/4q4AaRYyU2fy0wOlrVc3vskcQCIIwpYACK1LZ+bWgr1Ebm9R1KWRABUhetelfa9su3a+x6p9lcVu9vvd2kBoQNoAA8Frr9pWbn+OqIAEDcUsABEZrCr/Y2h6b8lvYA0AFTRzrKVXz5v+d33V/uLtpzXPs8yepjIATQSN12nkt4155r1m0gDQFywBxaAim3vPq11oLv9stB0rSheAaiuEZOfX4vilSQFgb+GyAE0GnO90TK6e0tXx/s9n8+QCIA4oIAFYNye2qR9xDP3SLqARABUf1Rlf9O6ov+mWn1daKKABaBRTTHzTxbL99xW7M6xpymA+ncDiQDAeAx2dbaHFn5DbNIOoGa9Fv9s2/L+v6/lVw50td8j0ymED6DBlcz8M0NHPbls/qUPDhEHgLp0BYkAwFj4kiXZgek73mfmH5bUTCIAatRhuXVnxpfkCv37avWdgxd0TgmfDB8TM9YB4Cm/Nbe/bF3Z91OiAFCH/iAAjHIwd15HR5jxb0h6MWkAqKGtpdLIi45ffe9ATe95PQtfFnrwS+IHgGdxyb+azeh9swr9TxAHgFrhN4oAjqg/n5sw0J37SJjxtaJ4BaC2SgqCfK2LV5JU9qCd+AHgeUyyi8plu2Ogu+P3iQNArVDAAnBYm7tyi6aXg19K9m+SmkgEQG35h9uu7v15nTpJi8gfAA5xd5YWSL5moDv3le3nnnIUiQCoQd8MAJ5v44UnTCz25D4ZmP1G8jNIBEDtR0f+89bMwv+o3+DMTqYRAOCwTLKLRrLZ3i09Ha8nDgBVvuEAwLMNdne+PFT4DUmnkQaAOnnUwuzpravWPVivAxjo7lgveY6mAIBRjy4L5cDfMa/Qv5MwAESNGVgAfjdYO2fx5IGe3H+FCn8hilcA6sjN31nP4tWBo5hDSwDAWG6bymfKdmexp+OPCANA1JiBBUCSVOzOvcTdLpfpFNIAUN/eiV/Ttrx/aT0PYfu5pxw1km16jMYAgHG7vKk08u6Zq+99nCgARIEZWECD8yVLslu6Ot7vspspXgGIgR2ZEfvreh/ESKZpLk0BABW5YCSb7eVNhQCiQgELaGBbezpOLB77yBoz/6R4wyCAGHDz98xevX5rDI5kBq0BAJWyEyS/aaCn/fP3n7WgmTwAVIICFtCIA0TJtnS3v6fsvl7SK0gEQCyGObLVc5b3XxGLg8nYZFoEACIac7reO2XyxF8OdnW2EweA8d9MADSUbflcS7G7/VqTviBpEokAiIk9CjMXx+ZoyppKkwBAhFynhxbetqWr4/2+jHEogLHjxgE0kGJXR75UtvWSziYNAHFipmX1f+vgMw9IU2gVAIjcRDP/ZLG3/edbl7afRBwAxoICFtAAduYXHz3Q3X6Zm18liX1dAMSM9bfMaP5crA7JKWABQBX9Xtl0+0BPx0VEAWC0KGABKbelp+P1Q+Xh9ZIuIA0AMeSm8D12ydqROB2UyTM0DQBU9UY7Te5fGehuv3rgnBceRyAAjoQCFpBS95+1oHmgu+Oz5v5DSbwOHkA8uX2vdUX/TbE7rCAYoXEAoCZ61DShd/P5na8jCgCHQwELSKHBfOf8yZMmrpH8byUZiQCIqb2y0j/H8cBcXqJ5AKBmWoMw/NFAT/vn+/O5CcQB4GAoYAEpU+zK/VlYDntNejlpAIg3+0zbirsfimUHKaSABQC1fijI9d7pZfsFG7wDOGj/jAiAdNh+7ilHDXS1X+5m35J4/TuA2NvavHfvp+N6cG4BBSwAqI+XlE23D3R3/AlRAHgmClhACgz0tL+4lG26Xaa3kgaAZPAPzrhhw2OxPTqFT9BGAFAnpmmSf2egu/2rA+csnkwgACQKWECyh3+SDfS0XyzXzS4tIBEACXF/686Zl8a7h2SP0EwAUHdvV9Pw2s1Lc6cTBQAKWEBCFfNnzCx2t18r1+cksdklgMRw93+3NWvivUTPgh20FADEwqlBYLcO9LRf7LycCGhoFLCABBrsyr1W5dI6SWeTBoBEMfW1Leq/Ku6H6aV9zMACgPiYKNfnij25lZu7Tp1BHEBjooAFJIgvWZId6G7/RGj2I5e3kQiAxHU8Qv2LLVMY9+Ocs+ieXVL8jxMAGqszbOcFlr1jS3fuFYQBNB6mYAIJsS2faymV7AqZlpAGgIT6TduK9S9JysEOdLcXJbXQbAAQOyNyf3/ryv7PmeTEATQGZmABSRhEnd/5qnI5WEvxCkCimX08SYfr0oM0GgDEUpPM/muwu2PVxqWnH0McQGOggAXEe/C0/y2DYfhjlgwCSPgN7a7Wjr7VSTpkc9tIwwFAnB8tfm5zUPr1pp72TtIA0o8CFhBTO85aMK3Y3XHVgbcMNpEIgEQPMgL/WBL2vnoW8wdpOQCIvZMzrl8NdOX+iiiAdKOABcTQlp6FZwxPmniH5OeTBoCkM2lDW7DwqsQduDszsAAgGSbK7JKB7vavbbzwhInEAaQTBSwgZga6cn9lHtwi6UTSAJAK7p+zQqGcwE7Sb2k8AEiUv2x+7Khbti5tP4kogPShgAXExMYLT5g40N3+VZldIonfHAFIB9OuTFbfSuKhh6WRXhoQAJLGzyibbi9251jJAKQMBSwgBjb1nHbyxMem/krS20kDQLrGEfryrEL/E0k89LZr73tE0iCNCAAJY5rmsqsGeto/7xctZi9ZICUoYAF1tqU7d24mzPzGJd6eAiBtRkIF/5vwc+ijGQEgkUyu9xa3D/+wmD9jJnEAyUcBC6gTl6zY0/HvJlsp0zQSAZC+kYOWz13RuznZN2ungAUAyX4YLfHyyG1behaeQRhAslHAAupg+7mnHFXsbl/u7h/m5xBAWrnsS4kf9wRiHywASL4XmAc3D3R3/AlRAMnFwBmosU353IKRbNMtkrpIA0CK3d26ou/nKegp3UZTAkAqTJL8OwPdua/4kiVZ4gCS2C0DUDMDPbk/zIT2a0ntpAEgzcz9f0zypJ9HS6H/bkm7aVEASM0T6qLisY/cyL5YQPJQwAJqZKCn/WK5XS/XdNIAkHJPNGcnfjsVw5z9RThmYQFAurzayyO/GVjasZgogOSggAVU2cA5iycXu9uvkOtzkjIkAiDtTCocW1j7aHrOyH9JqwJA6hyvwNcUu3PnEwWQDBSwgCra3N05V03DP3XpzaQBoFG47NI0nY/JfkWrAkAqTXXZVcWe3Cd9GWNjIP59MgBVUezOvcZlV0k6jjQANJCNrSvWn5SG/a+esimfOzZTtu3iF38AkGbXT8w0/2m6ZhAD6UJHDKiCge7c2132A1G8AtBgTPpWmopXkjSv0L9T0jpaFwBS7eyh8vBtW/KdpxAFEE8UsIAIeT6fKfbkPinZVyU1kQiARrsNBqG+ndJzu4nmBYDUO9nK4S3F89uXEAUQPxSwgIhsy+emDpbvWeFu7ycNAA3qltmr1v82jSdmFLAAoFEc66F+UOzJvY0ogHihgAVEYFN+0ZxS2X7q8nNJA0CjcunKtJ5btjTyM0kjtDIANIQJ7nbpQE/759ncHYgPfhiBCg32LHxZplz+jaQXkQaABhaWSyPL03pyM1ff+7hJv6GZAaCBuN5b7O24cuCcxZMJA6g/ClhABYrdufNDD34iqYU0ADR4J/9nx6++dyDlZ/kDGhoAGu4Bd74mDN+85bz2eWQB1BcFLGBc4zTZlq6O97vsSkn8RgZAw7NAVzXA3f/7tDQANGTn//QgY78cWNqxmDCA+qGABYzR/WctaC52t19q5p/kZwgAJElh1sur0n6SLZ39ayVtpbkBoPG4vE2Br9nS1XEeaQD1weAbGIPNXafOmDJp4g8l/RlpAMBT7LaZK+4upv4slymU2//R3gDQsKaa+cot3e3LiAKoPQpYwCht7lr0wsCyv5b0+6QBAM8UXtcoZ2oBywgBoMGZSR8a6G7/X8/nM8QB1A4FLGAUNnd1nBlY+WZJJ5IGADxb6Lq2Uc51qJz9oaQRWh0AGt47i+Fdy3lDIVA7FLCAI9jSnTs3ML9R0nGkAQDP8/Dclf13NsrJzl+1brekNTQ7AEBu56lp+KZi/oyZhAFUHwUs4DAGutrfYbIV4k2DAHBwpsZbUudaQcMDAA54qZf3/WJrTwcrNYAqo4AFHHRsItvS3b5Mpi9JYm07ABz6hvnDRjvlTFkrJYU0PgBgP3th2f2WgaUdi8kCqB4KWMBzx2JLlmSLPR1fMelDpAEAh1UeGbY1jXbSs1ev3yrplzQ/AOCZjwcF/tNid/vZRAFUBwUs4Bm25XNTizO2r5b7X5EGABzRr15wfd+uRjxxc62k+QEAzzHFpWsGejouIgogehSwgAO25XMtpbL9VG5nkQYAHJlLP2rUc7dssHx/BAAAPEtG7l8udnf8G1EA0aKABUjaku88pVS2WyS9iDQAYHQsCH7cqOfeUujd6NKvuAoAAAd7RLr8IwPdua94Ps9+ukBEKGCh4Q12d77cyuHNkuaTBgCM2vDw1Mdua/DRyRVcBgCAwzwpLhos371yU/7MSWQBVI4CFhpasTv3mlDhDyXNIA0AGJPb5l/64FBjd6KC70kqcSkAAA7FpXMypcd+sDO/+GjSACrtewENaktXx3ku+76ko0gDAMbs540eQMvK3m1y/YRLAQBwWGavGirvu2mwq3MWYQDjRwELDWmgu/0CM79a0kTSAIDx9MXtF6QgmRnLCAEAo+BnhBbeurWn40SyAMaHAhYaTrG7/X2SviUpSxoAML5e+L4h3UoM0oS9e1dIGiIJAMAonFh2X7Ml33kKUQBjRwELDWVLV8f7Xfp/kow0AGC8/P4XXN+3ixykGTdseEyy60gCADBK86wc3jLYs/BlRAGMDQUsNMZQS7KB7o7PmvknSQMAKvYbInjmQ8ZZRggAGItjQw9u3NLT8XqiAEaPAhbSP65YsiRb7Or4puR/SxoAEAEL1hLC7zw5NHS9pN0kgXEalrSKGICGM9Xcrxvobu8iCmB0KGAh1e4/a0Fz8dhHrpL520gDACLizMB6ppNv2DBsrhUkgXHYoSD4A5dNIwqgITVLuqrY3XEhUQBHRgELqbUzv/joKRObfySJ32oAQHS8qbTvDmJ4tjDgbYQYs3syZi910zaTv4Y4gIaVdfnXi925dxEFcHgUsJBKm7tOnTFUHv6JzF5FGgAQqQdnrr73cWJ4trbg1JskFUkCo3TTyLD93uzlfQ9YWP5r8XIZoOHH5S77n4Gejg8QBXCYHxQiQNoU82fMzFj2J5JeRBoAEC039ZPC81mhUHbXt0kCo3DZroz/fy+4vm/XpvyZkyS7kEgA7H/I+n8Uezr+nSCAg6OAhVTZls+1eLl0k0udpAEAVeg4uN1FCgdn0jdJAUfwtdbO9X+eK/Tvk6Rs+NgfyzWdWAA8xd0/PNDV/jGSAA7SDyUCpMW2fK6lVA5ulDxHGgBQpY61fD0pHFzbyvV3u/RLksDBmOsbrZ3r/9qWKXz6X4a6gGQAPP+GoX8d6G7/fwQBPBsFLKTClvPa55XL9nOKVwBQZSEzsA475nD/Bing+ReGfbVl0fq/embxauu57bPdbAnhADiE9w10tX/O2SMPeBoFLCTeQD53vGV0k0sLSAMAqqt5eO/9pHCYfIaGr5S0hyTwDF9v7eh7x7NmXkkqZ/QmSRniAXBIpouL3bkv+zLG7YBEAQsJt3Vp+0kq288lnUQaAFB1j8y4YcNjxHBoB/K5miSwf/BpX21d8eyZV88YmL6JgACM4kZyUbG3/SsUsQAKWEiwzV2LXlgOtEbS8aQBADXpRP+WDEaRUsBm7pDcdF1rcOo7TfLn/reBfO54SWeSEoBRenvxzo5v+5IlWaJAI6OAhUQa6Go/LbDyGklzSQMAasPkG0nhyFquXv9TSRT7GvpnRbeGwVF/bIVC+aD/vWx5sa8NgDHdWPwtxek7LqOIhUZGAQuJM9DVfppMP5bUShoAUDvuFGVGNcaQ3GTfIomG9YB5sHRe4da9h/xZks4mJgBjf8D4W4rH7rjCL1rcRBhoRBSwkCiD53V0yPQzUbwCgHrYTASjE5b9Uukg+x4h7baXM/6HLSt7tx3qD+w4a8E0Sa8kKgDj4+cXHxm+kiIWGhEFLCTGlnznKWHGfyjpONIAgDp0mc0HSGF05lyzfpNcN5JEQ9nrgZbOK/RvONwf2jep+Q2SGHgCqERX8ZHhK1hOiEZDAQuJsLlr0QutHN4kqYU0AKBOnYZQg6Qwem76Bik0UnP7n825ev0to/iTZxEXgAj0FI995FLP5zNEgYbpixIB4m7r0vaTAiv/RCwbBIC6Ct2KpDB6+6Y9cY2knSSRfu76f60r+q8+4p+TzE0UsABE5U8Hynd9zZcxrkdj4EJHrA3kc8eXA/1I0hzSAID6jtHbZjczA2sM5l/64JBM3yaJ1LulbWbzv47mD27t6syJX8gBiJDJLhy8s/2rFLHQCLjIEVtbzmufp7KtkTSfNACg7j3k3XbJ2hGCGGts4SWkkGqDTSqfP9qfjVAhm7cDiJyb/mKwN/d5l4w0kGYUsBBLW89tn20Z/VAUrwAgJr1j7SaEsWtdfle/pJtJIpVK5vbmmSvuHv3SWuPtgwCq9Zi2vyl2tX+WJJBmFLAQO4NdnbPKGf1E0qmkAQAxYXqUEMYZnflXSSGF7er659aVfT8d41+jgAWgms/qiwe6cp8hCKQVBSzESjF/xszQ/CcyLSQNAIgRp4A1XqVg2lUy7SKJNI0RbXXLyvVjGiRuOa99nqQXkB6A6t6g7O8HunMfIQikEQUsxMbmrlNnqDxyo+Q50gCA2A3YKWCN07zCrXvN2cw9RbaZ21+Z5GP6W1ln9hWAWj21/22gO/dBckDaUMBCLOzMLz46sOwPXeokDQCIH5c/TgoVDCU8YDP3tPwsuF3UsrJ325ivgVAvJj0ANXzyfLTY3f4+ckCaUMBC3W3KnzlpqDy8WtKLSAMAYtoNlvaRwvi1rOxdb9KtJJH4n4NvzlnZd814/q5bcDoJAqgllz490JX7K5JAWlDAQn1vqhctbsqUHy9I+n3SAIA4d4J9hBQqZczCSrbN+4Zt3LMZTM4scwA1f/DI7EvFnvY/JgqkAQUs1G8wtExBcfu+b0k6mzQAIOb3bAsoYFWolJl6JZu5J1Zo8j97wfV942q/gXzueEnHESOAOsi46/Li0o6ziAJJRwELdVPs7fiMzN9CEgAQfxZ6iRQqs38zd/8OSSTxB8A/37qi/6bx/nUv63RCBFBHEzzwqwe6crxMAolGAQt1MdDV/jHJ/5YkACAZPBAzsCJgZTZzT6CN2jexord5GS+pAVB/kxXY6sHzOjqIAklFAQs1t6W7/T0y/StJAEBymFPAikLLNX19Lv2SJBLUWXa9t+3atXsq/Al6IUkCqDvX9DDjN27Jd55CGEjkM5kIUEvFrtyfmfR5kgCAxPV6WUIYFdNXCSExbbWiZeX66yr/GC0gTAAxMcvK4Q8P7M0HJAoFLNTMQE/HUjf7+v5+HAAgUeN4CyhgRSQMjrqCzdwTYY+Vs++L4oOcAhaAeDle5eD7m7tOnUEUSBIKWKiJwa7ca+X+PUlZ0gCA5HFnBlZU5hVu3euy75JEvJn0762r1j1Y6efsOGvBNEkzSRRAzJ7sucCy399+7ilHkQWSggIWqm6wZ+HLQrNrJDWTBgAktJvLEsJo8wxDlhHGmamv5bjmL0TxUcOTJjP7CkBcvXQk27Ti/rMWME5DIlDAQlVt7lr0wtCD6yRNJQ0ASPB4niWEkZq7sv9OyX5FErHk7v5Ou2RtJC8uMJVPJFIAMfb6qZMmXurLqA0g/rhIUTXF/BkzAytfJ+k40gCAxI/oeQth1JnKmYUVT9+ds6L/5sja2WwOkQKI9/NIby72tv8nSSDuKGChKgbOWTw5LI+slnQyaQBACjoMJmZgRcxGmq+QtJskYmVfxuzfI/3E0FuIFUACvG+gO/e3xIBY90eJAFHzixY3qWnfcpNeThoAkJJ7OzOwItd27do9kq4gifgw2edmL+97IOLudivJAkjIXfAzxa6OPDkgrihgIdoBjmSDjwx/RfL/jzQAIE0De/bAqoYw9EtIITZ2DIWZ/6jCD89sogWQlPqAm182cH7nq4gCsbxAiQBRKnbnPuzSn5MEAKSM+R5CiN7cVf3rJP2aJOJwjeuj81et2x39x3ob4QJIkIkKw2s39bR3EgXihgIWIjPQlfsryf6NJAAglaP7J8igOlxiFlb9/XZX4F+qUvvOJF4ACXN0xrX64XNPoQCPWKGAhUgUu9vPltn/kgQApJO7KGBVSWZK8D25HiOJ+jH5B3KF/n1V+vhjSBhAAr0gm236wcalp3MPQ2xQwELFiktzL3XpSklZ0gCA1A7xKWBVScvlvU8q0HdJom5+07Kif3k1PtiXLMlKmkTEABKqvTkoFfrzuQlEgTiggIWKbO3pONEDWy1pCmkAQHqFTgGrqvmG/mVSqA+Tlpnk1fjszTO3TyNhAAn3+mPL9i2XjChQbxSwMG4D57zwuND9BxJv1wFwULuJID3C8hAFrCqau7L/Tkm3kUTN/aZlxfrvV+vDM+XwKCIGkHQuvbnY3f4xkkC9UcDCuPTncxPUNGG5SwtIA8AhnjBvGhm2Y03+Usne4a6rJG0nmGSaMlKmgFX1EYJ/lRBqHLn5R6o1+0qSAm+igAUgLf6l2JN7GzGgntizCOMyvRRcIvPfJwkAhxTqz15wfd8PtX9WyW2SvuKSFc/vfKWF4Z+7lJc0laCS4dipZzwpbSCIanbKsrqiVNZnJFH0qAXT2rbl/ddV+Tu4xwFIDXf7ysD5nQ+0Xd37c9JAPTADC2M20NPxAZlTfQdwJF3bzz3lqGeP5eRtV/f+vHXF+r/IZrxVrotNNkBUsbfXCoUyMVTXrEL/EzL7HknUaiBW3dlXkhR6mV8WA0iTZoXhiq1L208iCtQDBSyMyUBXe7fcP04SAEZhcqkp2324wXrbyvVfGJr2+Elu9h5JW4kstlg+WCNWDr9GCjVxe9uK/mur3p6mJqIGkDLHlQNdt3Hp6ccQBWqNAhZGbWBpx2KZLue6ATBa7vbHR/oz8y99cGjO8r7/Hg6zp0r6kqSQ5GLncSKojdZV/b+WdCdJVP3eVPXZV5IUujEDC0AandoclAp+0WKK9KgpChEYlU35RXMs0GpJk0kDwBi8bmd+8dGj+YPzV63b3bZi/btM/nK57iK6WNlJBLXjZszCqmrAuqttZd/qmnS0KWABSK/XFx8Z/iIxoJYoYOGINuXPnJQpl1e6vI00AIxR81B539lj+QutK/pvGz76icUyfYH44sIeIYPamRRMuFzSHpKoDg/0mVrMvpKkMBNSwAKQZn890J37W2JArVDAwuE7ecsUZMqPf1fSS0gDwDh1jfUvzL/0waG25esvdunNYvlaDITMwKqhYwtrH5W0nCSqYnDPnqHv1K4jJSNyAOlm/2+wq/2N5IBaoICFw/fyejv+Q9JSkgAw/gGcv2G8eyTMWbH+yqBsr5D0EEHWsw1tOyHUfEDAMsLq+OLJN2wYrllHOwxGiBxAymVC0xWbu3KLiAJVf64SAQ6l2N1xocv/iSQAVDYO17SBR4ZeOt6/3nJNX1+TymdK+g1h1qkJzXaQQm21rej7maS7SSJSe0IvfaWWXxhmRAELQCOYGphdvym/aA5RoJooYOGgBrpyr3T5V0gCQCRcb6jkr89ccXcxmBIskXQjYdaj/VhCWA8mfZ0UoszTvzF35T01Lcaa2TDJA2gQc4Jy+er7z1rQTBSoFgpYeJ4t57XPk9nVkiaQBoCIRnFvqPQjWi7vfXJ42hPnSPo+gdZWKDEDqx4yTZdJ2kcQkSgHFny25h1tL9F+ABqnuye9fOrEif9LEqjac5UI8EwbLzxhomW0QtJs0gAQYYdm8eAFnVMq/Zz5lz449OTeoW6TrSbVWvYWAt5CWAethTu2y3QNSURyF1o5e3nfA7X+1tCzLCEE0FDc9BfFrty7SQJV6ZISAZ6p+bGpX5H0YpIAELEmPVF+WRQfdPING4Z3ZsK8pB8Qa62UmYFVr4FAqK+SQuXM9d91asC9pA+g4Z5dZp8d6O74fZJA1Chg4WkDXbm/k/RnJAGgOp2Z4BVRfVau0L9PI83dkm4h2RooMQOrXtpWrr9R0m9JoiJ3t6zs+1k9vriczTxG/AAaUJPkKwbznfOJAlGigAVJ0mBX7rUy+0+SAFAtLn9FlJ/Xdu3aPZZpWirXvaRbXZlpAZu414lJLtM3SaKSe4++ZJLX47ubVXqUFgDQoGaEYVjYlD9zElEgKhSwoOLS008Iza6UlCUNAFW0OOoPbC3csT3IBmdJYoZQ9TzRcnnvk8RQP6WRkW9KKpHEuDw5KdN8Wb2+fGah/0lJZZoBQENyLc6UH+fN9ogMBawGN3hB5xQPSqskHUcaAKrsuC3ntc+L+kNbCr0bTf7HktgsuTq9zwEyqK/jV9874Kb/I4lxMPvusYW1dZsFdWAGHcsIATSyCw5sVQNUjAJWIw9JJPMnw69JWkQaAGoi66dX42NbV/Tf5NL7CLgqQ/AtZBCDVghZRji+zo59OQYdLgpYABr8IWafHujK/X8EgUpRwGpgA10d/+TSm0kCQO0eOsEZ1frsOSvWf9Fc3yDlyAsAg4RQf7uyfp2k7SQxhktX+mXbit7bY3AovMUTQKPLyOzbbOqOyscSaEhbutr/wMw/ThIAajui9NOq+fFDRz/xbpN6CTrKIoBvJoX6yxX698n1XZIYQyfX/UuxOBDzrbQGAGiGl8NVgxd0TiEKjPvZTgSNZ2tPx4kW6EpJGdIAUEsuO6Wanz//0geHzIM/lbSXtCMaewfMwIqLUM4ywtF7tJSdVojFfc9FAQsAJLnUGT7hXyUJjBcFrAaz8cITJpblV8k1nTQA1KHr8kKXrJrf0LKyd71cf0/WUQ2+nT2wYmLuyv47JbuDJEble/MKt8aikG0uisAA8Lub4luKXbl3EwTGgwJWg2l+/KgvyKN/lT0AjNKULd2dc6r9JW0r139Z0krijqCfKSuSQny4sc/bqHIKdFmMfoiYgQUAz3qW2WeKS3MvJQmMFQWsBjLQ3fEncv8rkgBQ1wdPoNps4Dmy7yJJ20i8MpmQGVhxEgbhdyUNk8Rh3d929fpb4zNQo4AFAM/R7IFdPXDOC48jCoxpHEEEjWGwq7NdYr0xgDiMwH1eLb6m7dr7HnHzvyXwypTLzczAipF5hf6dMq0micO61CSPy8GYBxSBAeAgjzQ1TbjC83n2ZcaoUcBqANvyuamhhVdJmkwaAOrNXfNq9V1zlvdfIdMKUh/vyFu72q5du4cgYtYsZWMz90MLvazL43VIpYdoFgA4qNcXy3f9MzFgtChgNYBSaN+QdBpJAIjFg8fCubX8vmzg75ZpF8mPpxQgZl/FUEvTqT+UxKyeg/vxnGvWb4rTAbXunL1FUommAYCDsWWbz+98HTlgVOMIIki3gZ72i+XKkwSAuHAFLbX8vlmF/kGT/pXkx9On1CZCiGGzFApluV9OEgdN59LYHdGaNSXJN9M2AHBQmSAMv7spv2gOUeBIKGCl2OaujjPl+jRJAIgV95pv2NkSnHaJTGsJf6wjb20khHgKlf2mYrTPUzzuLXqsnJka07ePGssIAeDQZmXK5Sv9osVNRIHDoYCVUgPnvPC4wPxKSdwEAMRsHKeaF7CsUChb2d8lKaQBxlAPcKeAFVNzV955n6RbSOJZ95ZV8wq37o3nD5M9SAMBwGG9orh96JPEgMOhgJXGAccyBWqa8G2pdhslA8AY1OWVya2r+n8ts68T/5g6CQ+QQqyf+JeSwe9YaN+L7bGZfksLAcARb5Z/V+zOnU8QOEzfFGkz2NfxQUl/SBIAYurouvWLguy/SnqUJhgdN2aNxFlTqXSlpCdJQpK0s2XWhBvj+8Oke2giADhyV81lX9uUzy0gChwMBayUGTi/81Xu/u8kASDGJtTri1sLd2yX9CmaYHTKgTMDK8Zmrr73cUnLSUKS2XK7ZO1IbH+WFN5HIwHAqBydCe17/fncBKLAc1HASpFN+dyxCsPvSMqQBoAYy/iSJdm6DSQzR31OEm8EOxLXY/MK/TsJIt6MZYQHLlddFevjy067T+zBBwCjvakvPia0jxMEnosCVppGhGX7utj3CkACbJ45XLcXTMwr3LrXzD9IKxwBbyBMhJYV/Wskf7DBY9jetmPGmjgf4IHN5TdxxQLAKLshrvcNdrW/kSTwTBSwUqLYlXu3pKUkASAJSiN7m+s66O/ov1zSnbTEYXuODxJCAppJcjNd2eAxXG1r1pQScJzsgwUAY3jEhaavbcvnWogCT6GAlQLFnoU5N/s0SQBIikkW1nVfA1um0N0+REscFvtfJac3d1mDj3G+l4SjdFMfFysAjMnsUsm+5cuoW+CpLg8SbeCcxZM9DK6SNIk0ACRFOQyb630MbSv7Vku6ndY4hJA3ECZFa6H/LjXujMJia2ffL5JwoObq5WoFgLHePPWGgd7cPxAEJApYydc0/HmZFhIEgCTJmur+ZhmT3OUfpjUO2UFgBlaCuPy7DXrqq2xZMjZHLxvLlgFgfH02+/jmro4zSQIUsBKs2NWRl/R2kgCQNOWMNcXhONpW9F8r01pa5Pk86xSwktReynxXjfiWO/NrknKojwV+j6R9XK0AMGbZwPzyHWctmEYUjY0CVkIVl55+gptfQhIAEvnwCWw4FmNfZmEdSmmntIEYkmPuit7NLlvTYKf96K5ANyXlYHOF/n2S7uZqBYBxOWl4UvOXiKHBxxBEkDy+ZElWQem7ko4hDQBJZMPhnrgcS9vy/uvE5srPfdI8cGCwjUT9YPl3Gup0pRsSeJ2yjBAAxn/n/5Nid8eF5NC4KGAlUPHYRz7sEmuAAST44TMSmwKWSW6h/z9a5ZmZBPeQQvJM3DN0taS9jXK+obQqacfsZrdxpQJABfdR+X8P9HScShKNOoZAogx0d/y+pA+QBIAkO65l6lCcjqdl5sQrJG2iZQ4UBtzvJYXkmXHDhsdkuq5BTnd44t6hGxLX8S6Hv+ZKBYCKTJH8237R4iaiaDwUsBJkWz431eRfp90AJNyIXbJ2JE4HZJesHTHp8zTN070DZmAllIfWGMsIzX8y44YNjyXtsHc2aZ2kYa5UAKjkYafFxUf2/TtBNGIXFckZ8ZX1RZcWkASAhHc6YrnEKVsauUTSbhpIklHASqq2mRO+L2lH+u8jwTVJPOwDe3b1cqUCQMUPgn8ZOL/zVeTQWChgJcSWro7zTHYhSQBIPNOeOB7WzNX3Pu6mr9FAkpdLLCFM6o/XJWtHZCqk/RItlfZdm9iDN2MZIQBULlAYfn3wgs4pRNFIjY7YG+zqnGXml5AEgJSI7SbTWdmXJIUN3j7b5668ZweXaXK5+7fTfYa27vjV9w4k9ujlv+QqBYBInBzuCXkRTwOhgJUAoYX/K2kWSQBIiV1xPbDZy/secNP3G7x97uYSTba2Ff23SHogtSfonuif0dCDNVylABDVM0F/XexuP5sgGgMFrJgb6M69XVIPSQBIkWKcD85C/58G7wmy/1XCmeRyXZHaK9T8hiQf/9wVvZsl/ZYrFQCieey59I3Brk4mfDQAClgxNpjvnC/Zf5EEgLTd3uJ8cK0r+38g+X2N2w0M2P8qFT08S+cyQtOutp0zf5WCM1nDRQoAkZkVWvgVYmiA7g0RxJMvUxCWyt+SdBRpAEiZbfEeH8vl+nKjNo65U8BKgbblfffItDaFp3ajrVlTSsF5/JSrFAAitXSgu/0CYkg3ClgxNdCb+weZ8VpQAOnj8Z6BJUmhypdJGm7E5gnL6uUiTQv7bupuH6HdkIrzKDMDCwCq4IsD+dzxxJBeFLBiqNizMGeyD5MEgFQOqWXFuB/j3JX37JBpdQM2z84516zfxFWaDqHbVZI8Rafk5fK+H6ThRA78nD3AVQoAkTpaJX3bl1HnSCsaNmbuP2tBszz4rqSJpAEgjdy0NSGj/280YPPcyRWaHnNX9G526VfpOSNbd/zqewdSczbOLCwAiP7maq8q3pm7mCDSiQJWzEyZNOmDLnWSBIC0Cj0YTMJxtmYX/khSg81GMgpYqevHWyE9Z+P/l67WcfbBAoDqPPw+vrlr0QsJIn0oYMXIlp6FZ0j+fpIAkGbN5aFiEo7TCoWyZN9qqP4eM7BS2NMLr1ZKlhGa/EdpahrPMgMLAKpkUqDS11hKmMJuDRHEpBNz0eImU/ANSU2kASDFts1cfe/jSTnYjOmbStceQocVWpkCVsq0FfofTskywr1D0568NW1tI2kjVykAVIHZqwZ6299NEOlCASsmBh/Z9wG5TicJACm3IUkHO3t53wOSbm2QthnZs2ffXVyiaezDp2IZ4c3zL31wKIXN8xOuUACo0vNP+o/BfOd8kkgPClgxMNDVfprL/5UkAKSe2/3JO2S7okE6eXeffMOGYS7SFP7YlbyghM8kdLcbU9o813OFAkDVTAnL4dddMqJIBwpY9e6QLVmSlelbkppJA0D6nzqeuAJWEGSvlFRK/fOI/a9Sa8416zdJ9uskn4MF/uNU3hKnBD+UNMRVCgBV85pid8dFxJCS5yYR1Fdxxo5/kPQSkgDQCExKXAGrtXDHdkk/boC2oYCV6vb1JC8j3N0anHZHGtul5fLeJyXxNkIAqCb3/xzI544niOSjgFVHW/Kdp8j9QyQBoHH6D8GGJB63mad+GWFoRgErze1b1lVK7jLCm/a/FTSdzP1arlAAqOaNVtNUNpYSpgAFrHoN4pYpsHL4DUkTSQNAo2jeuyeRBawJe4ZXKuXLfDKh9XKFpleSlxG6Wao3OncLr+MKBYCqe/1gd8fbiCHZKGDVSfHO3MWSfo8kADSQrTNu2PBYEg98xg0bHjPZD9PaMCYbaFnZu41LNN2SuozQQk/1Et62FXc/JFMfVygAVJeb/9f27tNaSSK5KGDVwaZ8boHMPkYSABrMvcke/YcrUtuhk/+ay7MBOu4qX63kLSMcbFu5/u4GaByWEQJA9e+100cs+BJBJBcFrJr/zMgyZfuapMmkAaChmNYl+fBLga5VWt9GaPYrLtD0a1tx90OJW0Zo+nkjtE3oxjJCAKjJgNzO29KVezNBJBMFrBorduf+UtKrSQJAozG3RL9FbF6hf6ekNelsm5ACVqP8HCZsGaHLftYI7TJnUd+vJG3lCgWAGjwLzT730Nkd00kieShg1dDmrlNnSPYfJAGgEZU9vCPp52DylSlsmnDC3uG1XKGNIWlvI/QwbIgZWLZMoctv4AoFgJqY3dQcfpIYkocCVi3DtuxnJR1HEgAa0L5Hs0r8PjYjpdIqSWHKhs53J3VzfYxdwt5GuHvOov6G2dzcLLiGKxQAanbXffuW7twryCFZKGDVyObzO18n6a0kAaBBOwn9uUL/vqSfxfGr7x2Q7LZUtYw7ywcb7acxOcsIb7FlaSsYH9rwUY//n6RHuUIBoCYCk33ZL1rcRBQJajQiqL77z1rQHIThf0sy0gDQkANm9ztScy4pW+bjARu4N5qkLCN0b4z9r54y/9IHh+S2iisUAGqmvfjI8D8QQ3JQwKqByROb/0XSqSQBoGEHzAl/A+GzBtWm61PVNuXw11yhjWX/MkL9JvYHauEvGvBu+T2uUACoqX/b2tNxIjEkAwWsKtvcteiFZvZPJAGgkaVpBlbr8vVrJQ2m5HT2zNk9cz1XaONx6fsxP8S9e/YO/6bR2qV118wbJW3jCgWAmplUDv1LxJAMFLCq2zm0wMqXSJpIGgAaWCmbTc8MLJPc5f+XjgeVr7U1a0pcoo0nY2Hcl8L++uQbNgw3WrvYmjUlmVZwhQJATTt3b9jSlXszQcQfBawqGujquFDSq0kCQIPrnVXofyJVD0+zVOyD5bJfcnk2ptkdd92meM/0ublhx1GhsYwQAGp97zX73ENnd0wniZj3wYmgOjZ3nTrDzD9FEgAavkOQwoFoc9D8A0kjie8EmLP/VaP+XC5TKPmNcT0+N2/Y4mrLor6fS9rMVQoANTW7aaJ/ghhi3nclgmoF2/QZSTNJAkCjC81vTds5HVtY+6ikxBd/SpnsrVyhDSzGMwkzYaZh345pyxTKvMAFCgA15rpoy/ntv0cQ8UUBqwqK57cvkfmfkQQASObhLans47j/ONHtIm2YV7hzC1doA/9sBk0/kBTG8NB+27Kyt6E3MjfXFVyhAFBzgbm+7BctbiKKmDYQEUQ8oLlocZOH9t/7xwYA0PC2tK24+6FUDjAtSHQBy6Wfcnk2ttbCHdslxfFNfw2/N1vriv7bJP2WqxQAat5B6ihuH/obgognClgRKz4y9G7JcyQBAJJMt6T11HZlwl9KejLBp0ABC3KP3xs13Xi5wIEkLiUDAKhH/9U+tPXc9tkEET8UsCI02NU5S7IPkQQAPC21bxLLFfr3SfpFYk8g4xSwoEwMC5nmdgstI5Uz2W9KKpMEANTc0aWsf5IY4ocCVpQdDSt/StIxJAEAT7s5zSdnpqQuI3ygrdD/MJcnNDXzK0mlGB3R3tbjmvpoGOnAHnU/IAkAqEMfT/a2we7Ol5NEvFDAishgd+fLTfY2kgCApz3euuO4dWk+Qfdk7oNlLB/EAS2X9z4p050x+qH6jV2ydoSWedrXiAAA6tNdChV+0ZdRM4kTGiOKvtYyBaHCL4qN2wHgd/dG009tzZpSms+xtbN3naTdyeuSsXwQzxKbmZIu9r961j3muObrJG0lCQCoixcX78z9JTHEBwWsCBy4qF9MEgDwO+b+49Sf4zKFMr81acftHq7hCsXT13GMCliB7DZa5Bltc8naEXddRhIAUK8bsf3H5q5TZxBEXPoJqMhDZ3dMl9nHSQIAnvOA8cyNDXGibknbyH1T24q7H+IKxVNGRkZicw0HgdbSIs+5xSjzNUlOEgBQFzMylllGDDHpJxBBZbIT9VFJM0kCAJ5l2+yVvf2NcaoJK2C5/YTLE890/Op7ByTVv6hp2jVred9GWuTZ5q688z6l/IUYABDrrpPsnZu7cotIov4oYFWg2LMwZ+5/TRIA8LxH/Y3WIDMGnty791eShpPTCWMDdxz0yrg5BhfnWmOm0UGZ7OukAAB1kwnM/tvZ87ruKGCNfwBg7sH/SsqSBgA89x7ZOLN8Tr5hw7Ck3yTleLMBBSw8n7luqfsxyG6nJQ6RzRQrSHqUJACgbl450JN7MzHUFwWscSp2d7xF0u+TBAAc5OESZn/cSOdr5klZRrhx9vK+B7hC8Vxhxu6IwVGwgfshtFze+6Rk3yQJAKhjf8/t09vyuakkUccxBhGM3cA5iydL/imSAICD+m3rqnUPNtTgPwazV0bV8ZJfz+WJg2ky75UU1rVTagEzsA6jnAn/p95tBAANbk6pZB8ghjr2FYhgHCYM/52kuQQBAM/n0g8abvCf0a+TcaT2f1yhOJhZhf4nJN9Qx0PYyQbuhzev0L/BTd8nCQCoZ1dKf7/lvPZ5BFEfFLDGaLCrc5ZC/RNJAMAhHywNN8CaVegflPRwzA9zOJNx9r/CIbnbujp+PRu4j0aoLxACANTVJMvo48RQt3EGxtRvsPJHZZpGEgBwUHt9pPmmxjx1i/ssrJ/tn2UDHOIKNq2r33c7ywdHoW3l+hsl3U0SAFBXfzqwtGMxMdQeBawxGOhqP02yvyAJADikm9quXbunEU/c474BtbF8EEe4RML6zcAKw/oVzxLVRpKb6YskAQB1FSjwzxBDPYLHWHoNn5WUJQgAODg3u6FhH6hBzGdghX4DVygOJxuU1tWvi2V30gKjvM/ua/6WpJ0kAQB19eotXR3nEUON+9tEMDqDXbnXSvpDkgCAwwyAy41bJMmY/0ZSOaaHt6lt5XqWHeGwZq64uyhpax2+em/rruPupwVG58As12+SBADUl5l/pj+fm0AStUMBaxQ8n8+EgX2OJADgsO6evWr9bxv15A/sLxXXIhFvLsNoravDd/bbmjUloh9DBz4T/I/iWzAHgEZx0jFl+2tiqOHzjwiOrFi+68/l6iAJADgsiiTSHbE8Kva/wmi599fhW1k+OEYthd6Nkq0kCQCocxdL+tDGpacfQxK1QQHrCLblc1Ml+whJAMARHijuDV/AsngOxEcmBhNu4grF6H6Qg3tr/ZVu9ds8PsnCMPy4JCcJAKirGRMypX8lhhp1U4jg8Epl/ZOkVpIAgMPavSOrXzT8gNJiuBG16+ZjC2sf5RLFKK+Xe2r9lebqJfixm7uqf51cPyIJAKgvc71na0/HiSRRfRSwDmNTftEcyd5HEgBwRNfnCv37Gv6hGmRjV8Ay6XouT4z6GnardQHLh8MMBazx/nybf5IUAKDumsviflyTfgoRHCacculjkiaTBAAcYRAlX0UKUmvhju0mG4jVsyywFbQMRqtlZe82STtr943+0PxV63aT/DjvOSv6b5LsVyQBAHXmOn9zV8eZBFHlfi0RHFyxZ2HOZBeQBAAc0d5MRmwS/lT/xcIYzcKyO2Yv73uAVsEY1WwWlilg9lXlIfJbfwCIwd04kH+CGKqLAtahBiAefExShiQA4EhjJ/vRrEL/EyTx1AMkRhtSmy+nQTD2n2nVbCN3V13eepgqrcv7rpG0niQAoO4P0CUDPbk/JIjqoYB1EMWluZdKOo8kAODIQtcqUnjGgNw9PjNKQrF8EOO4bLx2+2C5UcCqeLwkN/dPkwQAxKEjaJ9wyQiiOihgHbwn8Alx0QHAaJSsNHwtMfxOJgziMSB33dW2cv3dtAjGoWYFLA/KdxF35VpmTrxC0kMkAQB196LBnvY8MVQHBazn2NLT8Xo3ex1JAMBoRp/6Rdu19z1CEL/z+L6990kq1/1AjM3bMU6ZTK2WEJbD4Oh7CDyCH/dL1o7I/eMkAQAx6B6H+ogvWZIliehRwHrWOExmro+RBACM8r5pLFF7rpNv2DAsqe4bp4ceXk1rYDz2PLHnQUlhDb7qgXmFW/eSeDRaZ068VNJvSQIA6sx0ysCxj7yNIKJHAesZij25bslfRhIAMCpuGb+GGA7WcfF6L4t6YO7K/jtpCIzHgSLslhp8FftfRXnbuWTtiJl/lCQAIAb3ZOlDGy88YSJJRIsC1lOjsHw+o9A+QhIAMOoH8y/bCv0Pk8RBhLq7vm1jzL5CpTZWv/NFAStqLcHCb6uGe5gBAA5pXvOjU95JDNGigHXAQHj322RaSBIAMMqxp3uBFA7OVOcClpVZ2okKf8Ct6gUsD5wCVtQ/+4VC2c35hSwAxOKmbP+y46wF0wgiOhSwJPXncxPM9UGSAIDRjz2V1XJiONTA3Oq5hHDL7OV3/ZpWQGV9bq96ASuUUcCqgraO/itN6iUJAKi74/ZNmvh3xBAdCliSpof2TknzSQIARjm4ZfngYWUDv0eS1+XLXVdbvb4bqeHVfxFBuXTUE/eRdBXuz8sUuuvDJAEAsXievm/gnBceRxLRaPgC1vZzTzlKrn/hUgCAMTyMWT54WLMK/U9IGqxP49jltAAq73B7tQtYD8+/9MEhkq6O1pXrV0q6nSQAoO6OUrbpn4khGg1fwBppanqvpFlcCgAw+rGth2wSPoqUNtT+S62/bVXfWsJHpcqlUnWXELruJ+Uq3gkkD4Pgn0gCAOJwU7Z3PXzuKW0EUbmGLmBty+emynUxlwEAjMktc65Zv4kYjjA+N/229v0j/xbJIwrzVt9blLS3itcqywerbO7VvT+W9H2SAIC6m5jNNPFLhQg0dAGrVLb3SJrJZQAAY+HMvhrVAN1qPQOrXAoy3yV5RHL97t9H7aGq3UXcmIFVk/tQ+E+SyiQBAHV/sF60vfu0VoKoTMMWsLblc1Ml/T2XAACMSRgqQwFrNAP00Gs7A8v143mFO7eQPCK8pqr4ogZmYNVC6/K7+iX/OkkAQN1NGlGWWVgVatgC1kgpeLck3gYAAGPz87krejcTwygesLVeQmjG8kFEfE2pakuFM0FAAatW9yLP/Jtcj5EEANSbv4O9sCp8pjXiSQ9e0DnFzJl9BQBjHtAaS9RGad9wULslhK7HNDJhFakj0h93Va2AtW/WjhkPk3BttKzs3WaBfYYkAKDuJmYz2fcRw/g1ZAHL94TvEm8eBIAxDzrLQcjywVF6wfV9uyTtrMV3mXR127Vr95A6ohRWbwbWA7ZmTYmEa8cm22dMNkASAFDvG7K9Y+u57bMJYnwaroA1eEHnFHf9A00PAGN94PoN8wr9OwliTB6sUeNcRtSIXFidApbJWD5YYy2X9z4p6V9JAgDqbnI5q38khvFpuAKWPxG+U8y+AoDxDDpZPjh2tVgm9VDLor6fEzUi/5kPrCoFrNDYwL0eWjr7LpN0G0kAQN29c7Crk5rEODRUAWvjhSdMdOPNgwAwDo/7vubriGGsFYDqF7Dc/Vu2TCFhI/JO4mSr1gys+0m3DrejZQpDt4slOWkAQF1NLitkVdh4+iaNdLLNj055p6RWmh0AxshtBXssjWPAGFbvLW4HhNkg4O2DqIqWy3uflGlX5D8XHlLAqpO5K/tulYm9DAGg3n1E07uK+TNmksTYNEwBa+OFJ0w0C6hyAsA4uPw7pDCup2yVZ2DZD2cv73uAoFFFm6P+wFImyxLCet6WguD9koZIAgDqaorKJeoTY+5aN4jmx6a8w+VtNDkAjNm2tl3H3UQMY2ceVLWA5Qq/RMpQdS+yqGcRPjm3cCdvw6ujlkLvRrl/jiQAoN6PWH83e2GNTUMUsPrzuQmSUd0EgPE9Xa/glffjs680XM0C1qa2zMLrSRlVZbYl4k/cYOzBVHdN5dInJG0lCQCoqymhwvcSw+g1RAFrell/JmkOzQ0A4xm/snxwvOa96N5BSfuq0i6yr1qhUCZlVJOHYTHiC5flgzEwc/W9j0v+QZIAgHp3tPU3O/OLjyaI0Ul9AcuXKZAz+woAxun+1hX9vHZ9vH2S/W8H3FKFjx4ZKe37Ogmj6h3FwAaj7ZiJDdxjojWz8JsyrSMJAKiro4fLw28nhlH2S9J+gsW+XJdMp9DUADCesaa+SwqVMWkw+oaxq49ffS/7CKEG9wCLdAaWmTMDKy73pkKhbKa/IwkAqHt/++/2b3uEI0n/EkK3f6KZAWCct1DPUMCq+DGkYtSfGQTlz5MsatJR9GhnYIVmzMCKkdar16+R+TUkAQB1NeeY0N5KDKPol6T55IrduddIeinNDADjctvclXcyW6JC7tHOwHLply3L7/oVyaIWQo1EWoDNlIMNpBqze1SQeb+kEZIAgPox1z/4ssbYo7wSqQ7I3T5AEwPAeJ+kYvP2SB600c5gCUyfJVXUypN7RwYV3VsD97Ss7N1GqvEyp9B7r5tdQhIAUFenFfs6ziWGI/WrU2pzV26RTH9AEwPAuISlkZECMVTOPYyygLWlZUbzSlJFrZx8w4ZhmXZH9HEPkWhMBwRB9sOSHiUJAKhrp/GfCeEIz6u0nljG7AOSjCYGgHH5MZuER9QXCaJbQujyL9gla1nqg9oKI9vH7WHCjKfWwh3bJf0nSQBAXb202NXxamI4tFQWsLb2dJzoUp7mBYDxMXOWD0aVZXRvcXt04t7hL5Moas0tqmWwzgysGCtnjvqspE0kAQB1fOYG4ftJ4dBSWcAqy/9RUobmBYBx2ZMdKa0ghmiEHkQ1A+t/Ztyw4TESRa2ZPKIirFHAirF5hVv3mvm/kQQA1JHbWVt6Fp5BEAeXugLW1nPbZ8t1IU0LAOO2cubqex8nhmjs3btnexQfkynpC6SJOommCOsUsOKupaP/cpnWkQQA1I+5/QMpHFzqCljlrC6WNJGmBYBxPxkuI4TonHzDhmFJT1Q07pe+OXv1+q2kifp0pKPaxy2kgBX3tl6m0Nz/niQAoK534zdtXdp+EjkcbJiSIgPnLJ4s6a9pVgAY5+NSNtBqp/2YJKLmj1Twl8vZUP9Fhqjb1RvRPm4eMgMrCVpX9N8k8xtIAgDqJlM2vYcYni9VBSybMPw2ScfSrAAwPqH7d6xQKJNE1A8o2zH+Ub99e/aq9b8lRNTtvpCJZBP3UtuE03izaVIGCGHmnyTxLACAuvUd9Rc7zlowjSCe83xKy4m4ZO56L00KAOOXCe1yUqhGBUDjLWCVQwWfIEDU9b5g5QhmYPlmiuPJ0bKyd73LeR4AQP0cNTyx+S+J4dlSU8Aa7Ok4S9KpNCkAjNvtLdf09RFDNYxvBpa5vjV35Z33kR/qqRTJJu4sH0zcXUvhMknDJAEAdbsRv9fz+QxB/E56ZmCFfjHNCQAV3Un5bXu1+h8WjqeANRIE9nHSQ73NLfTvkjRU4cdQwEqYthV3PyTXl0kCAOrWgzyhWL77XHL4nVQUsIr53EKZ/oDmBIBxK2Uz+h4xVEc4vhlY35q9vO8B0kPdu8+SS6rwLZhOASuRT4Z9H5PrMYIAgLphos4zpKKA5WV77/7+FQBgXPdR0//NKvQPkkTVjLWANSyVP0ZsiI+KN3J/mAyTp+3a+x5x+edIAgDq5tVbehaeQQz7Jb6A9dDZHdMlvZWmBIAKHgahXUYKVRz6S7vH8ufd9MW2FXczYwUx4hVt5O4WPEiGydSU1aclbSMJAKhTPzLMMAvrqTFL4h+qE/XXkqbQlAAwbruHjn78WmKo4tDfbfRLcEy7wsD/g9QQr95zZRu5exgwAyuhZhX6n5DZp0gCAOr1DPY3b8vnWggi4QUsX7IkK/d30YwAUJEr51/64BAxVE9G4eOjrxPoP+YV+neSGmLV5/KK9sByz07eRIrJNXzU4/8rloECQL00j5TtHcSQ8ALWwIzteUnzaEYAqGBkydsHq5+xabQFrC2l4Kj/JjHEr8PolSwh2zqvcOteUkyu+Zc+OOTSR0gCAOrDpHdtvPCEifRHkj0ieC+XMgBU5LdtK/pvIYbqKnv20VH2Tj7AQB8xVUkBi5k7KdC287hvSbqHJACgLmZOePSotzR6CIktYA32LHyZSS/nOgaA8TPpcpOcJKqr2faNZgbWLa3L13+HtBBHHmQqWEJoFLDS8LxYs6bk0jKSAIA63YfNG34z98QWsEIP3sMlDAAVjknNWD5YA+UpTUfaxD1UaO+lmIjY3iysghlY5gMkmA5tnesLkvWTBADUxaJiV8erGzmARBawBs554XGSerh+AaCSEan/YvbyvgcIovpmX967R1L5MI3xtbZVfWtJCnG1byQY9wwsD40CVkrYMoUu/yhJAEC9bsTe0Ju5J7KA5dnmv5Q0kasXACrC7Kta9TX2z6x64hD/cZdlJnyQlBBn81et2y1peHydzbBIgunR1rm+IFMfSQBA7bnUvfXc9tmNev6JK2D5MgVmfhGXLgBUZGjYmwrEUFMH3QfLQv+31sId24kHCTCuZYSesUGiSw9bptCkj5EEANTFhHJWf9GoJ5+4AlbxztwbJJ3IdQsA4+eu1QdmVKBWgz5p6CD/9lct2YVfJh0k5CIeVwErKAcsIUyZluXrCyb1kgQA1MU7PJ/PNOKJJ66AZRa8k+sVACqTYflgzfnzC1j7zMp/aYVCmXSQkKt4XAWskWyZAlbKmOQyfZwkAKAujh8cuecNjXjiiSpgbe7unOvys7leAaAi22fPbP4BMdTc3ucUAz7Vuvwu3uaFxHDXeDZyH55b6N9FeunDLCwAqKNA72jM007UwZYvkpThagWA8TPpe3bJ2hGSqPno/xkzsPy+4WlPfoJQkKh+mI2rgDV44CUGSN+zxOXGXlgAUI9upfzsge7TXtBwfZHENNBFi5tMwV9yqQJAhUL/NiHUZbj31AyscujBhfMvfXCITJCsznKwbex/R7yBMMVaFvUt542EAFAXGSn79kY76cQUsAYfGTrP5W1cpwBQ0Qj03tZV/b8miHo8cf2pAtan5q7su5VAkMAbyJgLWEYBK9VsmUIPndmkAFCf5/Jf+kWLmxqqO52gQdc7uEABoOK7Ppu312ug5zYk2R27Mv5h0kAiu8nh2JcQuhkbuKdcW3ZhQdL9JAEANdc6+MjQeY01lEmATfncAjd7LdcnAFQ2/gyC4LvEUKfw5Y8GZb0tV+jfRxpI6DU8jhlYzgyslLNCoSzXf5EEANTl4dxQE30SUcDKlPROScbVCQCVPOD8Fy2F3o0EUaf4y/axlmv62CsGiTUhO44ZWK5Bkku/4aOfuFSirQGg5v1Ls9duyXee0ijnG/sC1sYLT5goswu5NAGgYiwfrKM516zfRApIspnbZz4iKRxTRzNkCWEjOPBSii+QBADUnFmpfFGjnGzsC1gTHp2yVNKxXJcAUJGhYW8qEAOAcfeQ16wpSdo5lr9TtpACVoNo3jv0P5J2kwQA1PoBbW/rz+cmNMKpxr6AZbI/54oEgIpvptfOX7WOgQWASm8mY1pGmFWGPbAaxIwbNjxm5l8hCQCo/S14etnOboQTjXUBa8t57fNkej3XIwBUxt2/TQoAKr6XaEz7YJVmL+p9hNQaR9bDz0saIgkAqC2TGmLiT6wLWJbxtykhG80DQIzt2J3R/xEDgMo7yOFYNuoetGVj2zMLyTZzxd1FyS8jCQCoLZfO2t59WmvazzOIcQOYyd7GpQgAlQ44/YpcoX8fSQCI4I4yliWBLB9sQBkLPiWpTBIAUFPZkmXemvaTjG0Bq9jd8SqXFnAdAkCFw01j+SCAyG4oo96U3W1Myw2RErOX9z0g0zUkAQC15Z7+ZYTxXZ7n+gsuQQCo2P2zl9/1a2IAEE33LBz1rKrAtZ3EGpOF9gVSAICaO22wZ+HL0nyCsSxgbcvnpsq8h+sPACoebl5mkpMDgEg6jjb6JYShiw3cG1Tryr6fSrqTJACgtkIPUj0LK5YFrJHQ/ljSVC4/AKiIB5nMd4gBQGQdYwvGsK+V7SCxBn4ASV8kBQCouTcPnLN4clpPLpYFLPPGeAUkAFTZLS2F3o3EACAqE4aHR70HlgJnCWED27N36NuStpEEANTU0cru60rrycWugLWp57STJb2C6w4AKuPSlaQAIEozV9/7uKQnRncTcpYQNrCTb9gwLOnrJAEAtWUKUzshKHYFrIxn/lyScdkBQEXCcmlkOTEAqILRLSMMjAJWgytnMv8jaYQkAKB23Oy1W3s6TkzjucWqgOXLFEh6K5ccAFTsJ8evvneAGABUwagKWF7OUMBqcPMKd25x10qSAICastD9gjSeWKwKWAN3tr9O0jyuNwCokPtVhACgKr3i0c7A0jCbuEMmZzN3AKj1UEC6wFO4si1eSwjN/4RLDQAqNhKqvIIYAFSlU2w+mtmd5TmL7tlFWmhb2f8LSb8hCQCoqZO2dne+LG0nFZsC1sYLT5hobt1cZwBQsR/OXXkPMx8AVIXJRjMDa6ctU0hakCQ3fYkUAKDG916FqZsgFJsC1sRHjzpHpmlcZgBQ8ejye4QAoHod4lEsIXRtJyk8JTM5uFKux0gCAGr6vH6TL1mSTdM5xaaA5eZv4RIDgIoNNe8ZWk0MAKoltODIBSyjgIXfabm890mZ2JsRAGprVvG4R16bphOKRQFrx1kLpkk6i+sLACpkunbGDRv4LTeA6nUey+Fo9sDiDYR4zqAj+DopAEBteZiuiUKxKGANTZqYlzSRywsAKn5MXUkGAKpp2LOj2QOLAhaepWVF7y9N6iUJAKgdc+velD9zUlrOJyZLCI23DwJA5R4vB9O+TwwAqmn+qnW7Je057B9yClg4yGXhfikpAEANmaZly4+dnZbTqXsBa3v3aa0mfzVXFgBUbNW8wq17iQFADQwe/j87b0LF84QqXyZpmCQAoHY8RROG6l7AGrHsWyRluKwAoDImsXwQQK0cfhmhGTOw8DxzV96zw13XkAQA1NTZm/K5Y9NwIvVfQui8fRAAIrBzZ8Z/RAwAasJ02I3cLaSAhUP6GhEAQE1NCMrWlYYTqWsBa3PXohdKejHXEwBUbEWu0L+PGADUhOvhw/+BkCWEOKi2Ret/LPmDJAEAtROkZOJQXQtYZmU2bweACIRB8D1SAFC7Tpw2He4/ly27m5Bw0EtnmUKTXUoSAFA7brbk4XNPaUv6edS3gCWWDwJABAbn2ClriAFADXtxDx3uv2blu8kIh1L2zBWkAAA1lclmsm9K+knUrYC1eWnudMleyHUEAJWOI3WVFQplggBQM26HXUK4I1veTUg4lLkr77xP0u0kAQA1HDKY5ZN+DnUrYAVB0MMlBABRjCN5+yCAGhsZOlwBaw978uHIAymx9B0AajlmkF6+5bz2eUk+h3ouIeziEgKAim1uu3r9rcQAoJbarr3vEUlPHuI/P0ZCOOJAKvAr94+nAAA1YsraeUk+gboUsLbkO0+RPMf1AwAVP4ZWGAMAAPVxqI3cdxENjqSt0P+wpFtIAgBqOHQIPdEr4epSwLJyOc+lAwBRPIRsBSkAqJODbuTu0qNEg9FwM5YRAkBNBw961WBX56ykHn59lhCasf8VAFTukZZdM24mBgB16s89fPC+se0mHIxqIBJkr5RUIgkAqJlMGPjSxD43av2Fg/nO+XKdznUDABW7xtasoeMPoE784DOw3NkDC6PSWrhju6Q1JAEAtXx8e3dSD73mBSwPw/O5YgCgchbaclIAULf+r/yBg96bjD2wMJbriLcRAkCNvXZTPndsEg+89gUsZ/kgAETg0Z1N4Y+JAUDdOpGuDQf79yZjDyyM2r4wu1zSMEkAQM00ZUOdk8i+Ry2/bFN+0RzJX8r1AgCV8utzhf595ACgXvYNBwctYLmxhBCjN3/Vut2S3UQSAFDLoUQyJxbVtICVKZV7JBlXCwBUyMTbBwHU1Quu79slacfzbk/uLCHE2B5pHl5HCgBQOy69YcdZC6Yl7bhru4TQxPJBAKjc3mBy5v+IAUD92fNmYbkHLCHE2AZSWV27fzwFAKiR5qGJzX+UtIOuWQFrsKtzlqRXcJ0AQKXjRf9hy+W9TxIEgPrzDc/vXDoFLIxJW6H/YZP6SAIAajiksCBxE4xqVsAKVT5PUobLBAAqHC66XUsKAGJxP9LzN3IPM8zAwriuJZYRAkBt77xnbcqfOSlJR1yzApYHdi4XCABULGzK+PXEACAOTPrt8zqXZbEHFsYxKAn45QwA1NaUptLjr0vWs6IGNuXPnGSu13J9AEDFw8XbZhX6B8kBQByE/vw9sMphyAwsjNnszt5fS9pKEgBQw+d4oLOTdLw1KWBly4+/VtJkLg8AqIxJzL4CECMj9z3330ya0PwYuWDMz7dlCl1+A0kAQA25znbJknK4NSlguemNXBkAULmyh6tJAUBczF15zw49Z9bM9O1H8ZIJjIsZ+2ABQI3N27I0tygpB1v1ApZLJqeABQAR2DRnZX8vMQCIE5f1P+P/DtmaNSVSwXhkA/1A0jBJAEDtBEFy6jVVL2AdqObN5bIAgIpdZ5ITA4A4MfP1z/i/zL7CuM0q9D8h109JAgBqx2WJ2Qer6gWsTBCcwyUBABEMEkPjDU0A4nh3euYMLApYqOxqCnQjKQBADe+70ku3nts+OwnHWoslhGdzSQBAxZ4cOubxm4gBQNy4hxSwEOXYgWcdANRWEGbtrEQcaDU/fLCrc5bkL+F6AIAKmd84/9IHhwgCQNzsC5soYCEyrcFpd0jaTRIAUDsuT8Q+WFUtYJWD8I2q0ZsOASDdT5WAV4sDiKX5q9btlrTlQA/4CRJBJaxQKJv0c5IAgJr6w/vPWtAc94OsanHJWD4IAJHImH5ECgBiy9V/oPPHDCxUfjm5s4wQAGpr6uTJk14V94OsWgGrP5+bINcfcB0AQMVd+ftmL+97gBwAxJapT5LcKWChcqH0E1IAgBo/ysP4LyOsWgFrutsSSUdxGQBApeNC+wEpAIgzN197oGPJEkJUbM7K/l5Jj5AEANR00HFO3A+xeksIy/ojrgAAiOBZ4vohKQCIszDQbQc6v8zAQgRjKLlMPyMJAKipE7fkO0+J8wFWr4Bl+kPaHwAqti/I+hpiABBncwv9v5W0w5mBhYi4jH2wAKDWyuEb4nx4VSlgbcovmiPpVFofACp286xCPwNCALFmksu1lhlYiG6QUqaABQA1v/fGex/zqhSwglK8q3YAkBTu7H8FIDFukzsFLESiZfldd0naShIAUMOxh7TEL1rcFNfjq0oBy8TbBwEgkoeIhxSwACSk02u3ibcQIrrxhEu6hSQAoKaOKu4ceXlcDy7yApZLJvPX0e4AULGtc1b130kMAJKgKRv+ygP2wEKkbiMCAKixsBzbCUmRF7C2LM0tkjSLVgeAit144DfQABB7swr9g1YO7iMJRMXNKGABQK3vvbLGKWBlMsbyQQCI5OnhPyUEAEnS2nTqOlJAVPaVM78Rv8gBgJoy6SUPnd0xPY7HFv0SQhcbuANABMpBuIYUACSq01solEkBUZm/at1uuZjVBwC1lWma4K+J44FFWsDaeOEJEyW9gvYGgIoV5y2/+35iAAA0OJYRAkCtBfF8MV+kBawJj059laRJtDYAVOwnRAAAAAUsAKg5b4ACliT2vwKASB4a7H8FAEBgwa9JAQBq7qStPR0nxu6ZEOWHmbH/FQBEgf2vAACQ9k57bJ2kfSQBADUej8RwFlZkBazBrs5ZkjppZgCoGPtfAQAgaf6lDw5JWk8SAFBrnt4CVjkov06S0cgAUPHD4iYyAADgaeyDBQC1Znqt5/OZOB1SZAUscy2hhQEgAq41hAAAwFOPRQpYAFCHm+/0gbA/VqvsItwDy36fFgaAyoXKsoE7AAAHZCxkCSEA1IEpiFWdJ5IC1oH9r06heQGgYo/MWXkn+18BAHBA0559d0tykgCAmktfAcvlrxb7XwFAxUy61eikAwDwtBk3bHhM0maSAIAac/2+x6jWE80SQgtZPggAkTwj9EtSAADgee4iAgCoueMGexYujMvBRDMDy+zVtCsARHBTdqeABQDA8wYc3k8IAFCXEUpsJixVXMDalM8dK1eORgWAioVNQ8O/IQYAAJ7NzZiBBQB1uQErPQWsoBS8SpG+zRAAGpNJ6w/s8wEAAJ4ho4AZWABQBy7FZsVdxYUnE/tfAUA0DweWDwIAcDBNe/fcJV5yAgD10Lqp57ST43Aglc+cCtj/CgCi4B5QwAIA4CAOzFDeQhIAUHuBZ2IxcamiAtaOsxZMk+t0mhMAKmfMwAIA4HBYRggAdRmnKPkFrH3Nk14hKUNzAkDFdrcuWn8vMQAAcKgRlLOROwDUx2vicBAVFbDc2P8KACLyG1umkBgAADjE2MONGVgAUB/zBrpPe0G9D6KyPbDMKGABQBSdctM6UgAA4HADF3+AFACgPsyDuu9/Pu4C1v1nLWiWtJhmBIAIHgihrSMFAAAOM3Cx4CFSAID68MDOrPtzYLx/cdLESS+S1EwzAkDlLCivIwUAAA5t1owJmySVSQIA6uLl9T6AcRewAgtfRvsBQCSGW3bMYgN3AAAOwy5ZOyJpgCQAoA5cHdvyuan1PIRxF7BMRgELAKLRZ2vWlIgBAIAjDaD8QUIAgLrIlEtBXbeRGncBy+Uvp/0AIBLriAAAgFEwe5AQAKA+wjovIxxXAWuwq3OWZCfQfABQOTe7kxQAABjVU/NBMgCA+jDzuq7EG1cBqyw/k6YDgKgeBBSwAAAYDZfxJkIAqJ/kzcCqd9UNANLUF59oTb3EAADAqAYiFLAAoH5aB/K54+v15eMqYDkbuANAVDYeW1j7KDEAAHBkYRA+SAoAUD8WWt1mYY25gOXLFJj7i2k2AIjgASD1kwIAAKPzmPSwpJAkAKA+6vlCvzEXsLbe0ZGTaRrNBgCVC033kgIAAKOTK/Tvk1QkCQCoE6/firwxF7DCTMjyQQCIiMnuJwUAAMaEfbAAoH5e1J/PTajHF49jDyx7Oe0FANGwkBlYAACM0VYiAIC6mXhsWYvq8cXj2cSdGVgAEJFMNqSABQDA2GwjAgCon7BOE5vGVMDals9NlXQazQUAEXA9NqvQP0gQAACMhW0nAwCo411Yekk9vndMBayR/dPEMjQXAERy57+PEAAAGCN3ClgAUN+BzIvq8a1jW0JowRk0FABEhuWDAACMkctZQggA9b0TnzpwzuLJtf7WMRWwgtApYAFARMyMGVgAAIxRhj2wAKDut2LLDLXX+kvHVMByMwpYABCRMAwpYAEAMPZxEwUsAKgzD2q/Qm/UBaz+fG6C5AtpJgCIhlmGAhYAAGNHAQsA6j6Y8dNr/ZWjLmAdPaKFkpppJQCIxsiwbyQFAADGZnb2lB2SyiQBAHXkqvlG7qMuYFmmPrvMA0BKPfmC6/t2EQMAAGNjhUJZ0k6SAIC66vAlS7K1/MJRF7ACZwN3AIiMazMhAAAwXsYyQgCor0mDM7e/sJZfOOoClosN3AEgun63NhECAADj5RSwAKDed+JSbTdyH1UBy5cpkNRJ8wBAVHd720IIAACMj7GROwDE4Gbs8Stgbblz0QJJR9E6ABBZz5sZWAAAjJPLHyUFAKj3vdjiV8AyK7N8EACixR5YAACMf9T0BCEAQH2Z+RkuWa2+b1QFrMDYwB0AIr3ZyylgAQAwTm72OCkAQL1vxppe7D7t+Fp93ej2wHI7nZYBgOiUnQIWAAAVDGIoYAFAHFi2ZhOeRvsWwnZaBQCi41n2wAIAYNzPUdeTpAAAcbghhzWrFx2xgLVx6enHSJpDqwBAZPbOK/TvJAYAAMaLJYQAEAseLKzVVx2xgDUhW1pIiwBApLYTAQAAFYyXxCbuABAL5vEpYFnoFLAAINKbvJh9BQBABTIKmYEFAPFwqi9Zkq3FFx15DywTBSwAiJJrFyEAAFDBo9SZgQUAMdG8ZfquE2vxRUcuYLlRwAKAaDEDCwCACrixBxYAxEUQhDWpG43mLYQ5mgMAImRGAQsAgAp4yAwsAIjPTdnrX8DacdaCaeINhAAQKWMJIQAAFdlnWWZgAUB81L+ANTJp8kJJRlsAQHTcKGABAFCJE3YfwwwsAIgLq83KvcMWsMoWsv8VAESNGVgAAFQ2VlqzpiRpL0kAQCzGN6d6Pp+p9tcctoBlzhsIASDyTreziTsAAJU/UDVECAAQCxM366751f6SI2zibmzgDgARK2fYxB0AgIq5SoQAAPEQlKs/AeoIBSxnBhYARH3jLfluUgAAoGIUsAAgJqwGE6AOWcDals9NlTSPZgCAiG/uTSF7dgAAUDkKWAAQF17HGVjlsk4TbyAEgGr0tveRAgAAUTxSAQCxEOi06n/FIbiCk2kBAIhehgIWAABRoIAFAHERquo1pEMWsMy0gBYAgOhlKWABABAFClgAEBemacX8GTOr+RWHnoHlfhItAADRG6aABQBAFIMlClgAEKfbcrlc1TrS4d5CyAwsAKiCicOlEVIAAKBCbhSwACBGQgurWkc6XAGLGVgAUAW7R8rMwAIAoGJOAQsA4nRXdtW+gLUtn5sqaTbxA0D0FtywgQIWAAAVMvbAAoB43ZddtV9COBI6byAEgOoYMcmJAQCAyrgzAwsAYnVftjrMwArCDPtfAUB1MPsKAIAoGHtgAUCsbsuqQwHLA/a/AoAqYQN3AACi4DxTASBmjtu49PRjqvXhB9/E3Z0ZWABQnc52QAgAAETA2AMLAOKmWeWqTYg61ECKAhYAVKezPYEQAACI5KHKL4UAIGY8qN6EKApYAFBbFLAAAIhikMQzFQBix6q4kfvzClib8mdOktRG7ABQnfuuL1mSJQYAACocJMkpYAFA3O7NrtotIWwqPXmSJCN2AKiO4lGP0+EGAKByPE8BIGZcNSxglYPyfCIHgOoZCfc1kwIAABViX0kAiKMTq/XBzytgBaGOJ28AqJ6JGZY8AABQsZACFgDEUKtftLipGh8cHOTfzCNvAKieEr8xBgCgYsbzFADiKFN8ZE9V9lV/XgHLnQIWAFRTlg43AAAV4y2EABDXG3RQlbrS82dgyeaSNgBUT5kCFgAAUWgiAgCIH6/Syr6DFLCcPbAAoIqCIJxGCgAAVIyXogBAHIVBVepKzypg+TIFkrWRNgBUj5czx5ICAAAVm0QEABBDtZiBten2U1rEWnIAqCrP+AxSAABg/DZeeMJEUcACgFgKvAYFrAlNGTZwB4BqC8UMLAAAKpDZ2cyzFABiylWDApa7UcACgGrf0I0CFgAAlZiQoYAFADEe8dRgD6wqTfMCADzzxssSQgAAKhGaU8ACgPiaMXDO4snRj6Oe/f8oYAFAlbmYgQUAQEXPUtd0UgCAGN+nJ45EXl96dgHLAwpYAFB1xgwsAAAqwy+DACDOQq9yAUvMwAIAOt0AAMRbwBJCAIi3UNUtYBkFLACoBWZgAQBQAZYQAkC8BRb9Ru5PF7A8n8+4fDYxA0DVtRABAADj50YBCwBifZ+WWqP+zKcLWFtL986QlCFmAKi6ycX8GTOJAQCAcQ9imM0MAPEW+QSp3y0hDJl9BQC14iOl40kBAIBxPkfZ+gQA4m5W1B/4dAGrnBUFLAColcApYAEAMH4UsAAg3qo3A8tCClgAUDv+AjIAAGAcT9B8PqMq7K0CAIhUFZcQBhSwAKBmTMzAAgBgHIq6a46kLEkAQKxNHThn8eQoP/B3M7AUziJfAKgVYwYWAADj4GWWDwJAIkY8mXKkdaanC1ihMwMLAGqIAhYAAOMaETGLGQAScbvO7Iu0zvS7GVhGAQsAasbpfAMAMM5nKDOwACABym7VKWAp4g8GABzWzMELOqcQAwAAYx7AUMACgAQwqTpLCCVmYAFALY3sCU8iBQAAxsaNAhYAJIJVYQaWSyZpJukCQO1k3NpJAQCAMfKAZfgAkAzRz8DanM9NlzSBbAGglh1wX0gIAACM4dEpmeQnkwQAxJ9F/LLAQJIyJfa/AoDa39GVIwQAAEav2H3a8ZKmkgQAxJ9Xo4AlM5YPAkCNmcQSQgAAxjQaCk4jBABIjCps4m4hBSwAqHUfXDpxU/7MSSQBAMBoRy8By+8BIClMMyJ9BEiSux1DsgBQh254+OipxAAAwCi5MwMLAJJjeqSDpwP/cwy5AkDtmQL2wQIAYPQoYAFAckyIcsXJ/hlY8qPJFQDqIHQKWAAAjB4zlwEgQXx4Z2SzsAJJMrGEEADqwcwoYAEAMAqDXZ2zpGj3UwEAVFdTc/aYqD7rwB5Y0a5LBACMli0mAwAAjszF/lcAkDRhhHuu75+BZWIJIQDUpzPetrm7cy5JAABwpJGL8wZCAEjcrTviApaLGVgAUL+bevhSUgAA4AhCvZgQACBZPFS0e2CJtxACQN2Y2ctIAQCAIwyCAr2EFAAgYWMdhcdE9VkUsACg3h1yOQUsAAAOY+CcxZPlYg8sAEjaWCeIeAmhKGABQD292JcsyRIDAACH0DyyWBLPSgBIGI+w3hQcGDRNIVYAqJspW6ZvzxEDAACHGgE5ywcBIIHMIyxgFY8aOEaSESsA1E8QBCwjBADgkAMgClgAkNA7+DGRjZnKE5uOIVAAqPNtPWQfLAAADsUl3tgLAMm8gx8T1ScFmZHgaAIFgDrf1nkTIQAAB7UpnztW0nySAIAEMk2P6qMCC8JpJAoA9eYLi/kzZpIDAADPlgn1ErHlCQAkU6ipUX1UIAsmkSgA1J2F5ZHXEgMAAM95QHrA8kEASOxNXJOj+qhAHk4mUQCIwb3d7HWkAADAs7n8NaQAAIkVZQFLFLAAIBY9dKeABQDAM9x/1oJmSS8nCQBIrMhW/QUuo4AFAPFw4mC+k01qAQA4YOqUiWdGOfgBANTcJI9oH8NAch4IABATYbnMLCwAAJ5+LrJ8EAASzjbnz5wYxQcFCpiBBQCxubuLfbAAAPjdc1EUsAAg6ffy0q5I6k6BQqbkAkBcuPRa51XhAABo4JzFk2XGGwgBIOEszEZUwAqcGVgAEB+zNve0dxADAKDReXb4FZKaSQIAEn4/DzKRTJwKJGMGFgDESNb1B6QAAGh0ZlpCCgCQgvt5MDIlis8J5GIGFgDEiEvnkgIAgOehXksKAJACFkQ2A4sCFgDEyysGznnhccQAAGhUG5eefoxJi0kCAFLALaI9sMQeWAAQMxnPNp9DDACARtUclP9IUhNJAEAahFHNwOIthAAQNxaE55ECAKBhn4NyfpEDAGkR3QwslhACQAxv8m8YvKBzCkEAABruEXjR4iY3/SFJAEBqxjYRFbDMeTUtAMTPpPIT/npiAAA0msFHhl4p13SSAIB0MEVTdwrkyhInAMRPYM4yQgBAw3EFvI0XANJ0Xw8skrpTIClDnAAQxw68zvUlS/glAwCgoZj8jaQAAKm6r0dSdwokZmABQEzNKB674/eIAQDQKIo9C3MuLSAJAEgTi6yAFRAmAMT0Vi8/nxQAAI0iDDPMvgKAlHEPo1pC6CwhBIC43uylN/lFi5tIAgDQCMz8HFIAgJTd26ObgWUsIQSA+Jo1+MjwG4gBAJB2W85rnyfpTJIAgLSJbg8sZmABQJxv925/SgoAgNTL+FvE9iYAkL7xjKJ7CyEzsAAgzsyX7swvPpogAACpftyZvYUUACCF9/cIN3FnBhYAxNuk4fK+LmIAAKTVQE/HqXKdThIAkEYsIQSABrrnh28lBABAip9zf0IIAJBOzMACgEbq15u9ZnN351ySAACkdHjzZjIAgJSOZTyMbA8sClgAEH9BxkL2BgEApM5gz8KXSTqZJAAgrZiBBQANxaULSAEAkDahZ5h9BQBpHscEvIUQABrszq+Owe7OlxMEACA1j7ZlCiTPkwQApJdFuIm7EScAJEOo8J2kAABIi+L69tdLmkMSAJBm0S0hdMIEgMR4UzF/xkxiAACkguuvCQEA0n6v91IUHxNIKpEmACRGs8ojf0YMAICk25bPtch1DkkAQLqZvBzF5wSSysQJAMnh0jv37xkCAEBylUL7S0lNJAEAKR+/uFHAAoAGddLAne2vIwYAQGIHM8sUyP3tJAEADcAU2RJCClgAkLRngInN3AEAiTW4ruMPJTuBJACgAcYuYgYWADSyczZ3d84lBgBAEnngF5ECADTIPT/CPbDYxB0AkidrCll6AQBInO3dp7VKOpskAKBROEsIAaCRmfTOTfkzJ5EEACBJSsq+XWzeDgANNG4xZmABQIOblQmfuIAYAABJ4UuWZF1s3g4ADXXvj3AJYUicAJDUp4G/3/P5DEEAAJJgYPr28yUdTxIA0EiYgQUAkE4shnctJQYAQCKGMBb8LSkAQKPd+xXVHljOHlgAkGRu7ycEAEDcFc9vXyL5y0gCABpsuBLdDCyjgAUAyfaSYlfHq4kBABBnoet9pAAAjSi6PbAoYAFA0h8J5v9ICgCAuNqS7zzFXH9EEgDQeCz0iJYQGntgAUAK/NFgV2c7MQAAYjp4eZ/2//IcANBgIltC6K4h4gSAFIwNLGQWFgAgdga7OmfJ/a0kAQANOlAxi6TuFEi2hzgBIBXeMpjvnE8MAIA4Kav8bkmTSAIAGpR5JHWnIKoPAgDUXVO5XP53YgAAxMXgBZ1TzOxdJAEAjSuU743icwKT9hInAKSDyS4Y6Ok4lSQAAHFQfrL8bknHkQQANC63TEQzsEKWEAJAimTk4b8RAwCg3gYv6JxisveRBAA0uHJUSwgDZwYWAKSKvXlzV24ROQAA6il8MnyvpFkkAQAN/0SIagYWe2ABQMoEQWDshQUAqJtt+dxUSX9HEgAAKRvNHliygAIWAKSNq6vYnXsJQQAA6qFU1t9KmkkSAIDo3kIolhACQCofE7IPEQMAoNZ25hcfLRmzrwAAkiTPlCMqYDkFLABIqbMHzu98FTEAAGppb3n47yQdSxIAgP2mRbSEMAieJEwASKkw/CghAABq5aGzO6abdDFJAAAO8LmFW4ei+CBmYAFAur16oKu9mxgAALXQNMHfJ+kYkgAAHLDXJI/igwJjDywASDfTp+8/a0EzQQAAqmlTftEcmf6WJAAAzxDZiwMDhSwhBICUO3HypGaWcwAAqipTCj8uaQpJIGacCIC6imzSVKAsM7CAGDxV/1emD7r8Usl+pQir1IAkmdu/DnZ1ziIJAEA1DHR3vkjmF5AE6mybZP8n6RMyPz9jdpLLbiIWoK6D3cjGtlkPg8ekkFCBOgqkcuvy9R9/5r97+NxT2jJN2cVyWyzTYnMtltRKWhgX07RQ5Y9K+mvCAABE/pjx8n+6WUASqKGim9bKtTZw61dQvqt1+V39z/wDgxd0TrEnw1cQFVDXccijkX3U1p6OE8vuvyVVoK62tx7XPMcuWTty2D/UfVprKcyeroxeEspfYq6XSmJWDUarXDa9aN7y9b1EAQCIypbu3Lkmu4YkUCUu6QGZbpfsdim8w4IJt7cW7th+pL9Y7On4I3e/ngiBuvpR24r1b4jig7L7gnB3pmxECtTXzMFHht8g6bAP2Jkr7i5KKkq64al/N9B92gvMMi/z/cWsl0haLPafwMFlArfPSnodUQAAIqksXLS4qbh9+D/FcALRKEu6T9LtJt0h+e1DYdMd81et2z2+CzQ8S1ycQH2Zdkf1Udm5WvhoUXe7+MkG6u2tOkIB62DaVtz9kKSHJF0lSZ7PZwbD/lMV2mIPbLH2Lz18sSTeQgeZ/LVbujrOm7Oyj9+UAwAqVtw+/E6ZTiEJjENJrvtkWivTWoW+NpiauaPl8t5IXjLmkhVl5xEzUGfuu6Iby0ga6Gp/VKZpJAvU1d7mvUMtM27Y8FjUHzxwzuLJ3jR0xv4lh8FLZP5SSScRecN6oJw5qn1e4VZe4gEAGLeNS08/pjko3S/pONLAEQxJ6pN0u8xul/z2J/cM9Z18w4bhan1hcWnupR7Yr4geqC93fXrOyvX/FMVnZSU9NaWLAhZQX5P2TZrULenSqD+47dq1eyTdfOAfSdLmrlNnZLzppcroJe7+1PJD9tNqDCdmSo/9u6R/JgoAwHg1W2mZKF7h+Z6QdKdp/55VJfPb5+447i5bs6ZU00GzqYumAOrPTJHNwMpKkkm7XTqeaIH6cvmfqgoFrIOZu/KeHdq/l9bT+2kd5M2Hr5R0DC2TyifJP2xemrty7qr+dYQBABirTT3tnXK9myQavvP6mEx9Mq210Ncq8LUtQe4eKxTKMejsUMACYjHsiG4PrP1LCLvbfyrp94kWqLuwnMkcP69w55ZY9Eny+czm8O5c4HqJSWdKepmkhZJ4TXYaHibSrS2d619pyxSSBgBgLP2DYvnuW7V/9jYax7b9bwH0O0x+e2DB7bOX9z0QxwMt5nMLvWz9NBkQg2eG+Z/MWd5/RRSfdWAJoe+Ss4c7EANBNiz/iaRPx+FgDvz2rPfAP1+XpG353NRSSacrsMWSXiHXEkkzaboEPkykM4t3tl8krf8yaQAARmsgvOedRvEq7YpuWhvI+xXqLgW+tnX5XYkpCHlZ3TQhEA8WRryEUGGwW+YkC8Thgev6U8WkgHUwswr9T0j6xYF/Pi/tX3rYlJnwCg/8lbz1MHE+tSm/6Nq4zPoDAMTbtnyupVT2j5JEqhTdtFautTJf2xTotlmF/sGED5lZPgjERGCZ3VF9VvbAkHk3sQKxsWjwvI6Olmv6+pJywMevvndAUuHAPxo4Z/FkZYdepMAW7y9o+askO4GmjWP/TtOCUvm/JL2JMAAAR1Iu2+fE/phJ9qxiVRBM+GVr4Y7taTrBge7TXiDpDJoaiIfQoqs3ZSXJTbtZQAjEh2f0VknvT+rxH3jr4VOztJ7uTLgHZ5rs5W56mUkvkjSB1q4/M/1xsafjW63L+75PGgCAQxYGenJ/6M4vPBJiRLYyFxYAAF1gSURBVNJdLr/jwL5VtzdldOeBmfQpF3TpwF7PAOovG4S7Ixu37B9Y5v5Wss8SLRAbm1s7178gzZtr33/WguZJEye9KND/396dh8dV0Psf/3zPTJq2lK2lbWbaAsWylCyARaGKP3uvKyJLEuJ2RXEDFxT3FaXqVcEdca2iLF5RhySlZXHBe0FBBAyUJNOyb22TtKWlQJdsc76/PyjKUtomnZmcc+b9ep4+j/f38JvMvM/JmXO+OUt4rMuONdOx4mmoY8gfCvZI1dVc1rmZFgCA51rZMn9CqvBkl6QXUSNyBiR1SX67FNxuCm/v32tz1+yLH+qvxBirm+puNulYVgsgIhuovTZNKNb2KC1JpmCji3tgAREyc3V3w39InX9J6gc8+Nr7BiTdvO2fpKfupZVOVx3jrvkmP1Zm8yRNZHUoBzsw3BJ+W9IHaAEAeK7U8JNfkDG8ioBNku406fbQ7Q5XePuMqeOX26KOIdJIK1tq51hBx1ACiIz+Yg7T/3UJIfMrIFqCMHyXpL9U0mfedi+t9m3/5C0tqb4wf5hCm+eml8vtOJnmitPCS8N1Zm9z/VIuJQQAPNPq5sOPkuvTlCj79/ITMnXJ1GGhdyjwjpqg9q5tT4nG9vafC/Z29hOBSHmsmC/21CWEpza8QmH4V9oCkbJ1fKo6MznX8Tgp/q235aipNjx0TCgda/Jj3eylkvakTLG+FKxnOBXWz8rlN1ADAPDg6QeOr35iz39KXkuNklon6XZJt5vbHUGgjumtXQ+QZde5ZL1NdXdLOpgaQGR0Z9u664v1YmlJCgu2JmBODUTNhP5w8M2SFpHi37Y9Keeqbf84S6voO3+eTQ0HP5T0NmoAAMY9OemrDK+KrtdNHYE8r1DLFXhHTevy5Sauidkda5oajpFChldAhJj7mmK+XlqSJqbTa/oLnIkKRG6Y4P4uMcDa8UbxqdPo89v+XSpJ64+fs1f/xAkvlftxMs0z13Hikd8j+aZ56+qmuitntHX/jhgAULlWNdbPN/ePUWK39LqpQ64OmXdUBbptWi7fR5YS7Der8F/8/RKI2O+lqagDrH/9hvc01W2VNJ7EQLRYymszufxySuzGhnPBgnTv5A0Nbv4ycz9W0sskzabMDq2vUqF+atuKXlIAQOXpOXHeRFUNLBOXY+2qUNI9crvD5Leb/PatXnX77MXLNpKmDPt6Z8yr6n10YLWkqdQAovTLqQuy7d0fLdbLpZ/xv9eKR9gD0dsbGrbTJW6cujvs+uuHte2+EpJ+KElrTqqbPlzlL5XbPJNerqf+TaDWv0wZUuoSl17HJQ0AUIHfnVX957uM4dX2Dct1j0wdMnW4LB8G4e3cP3Ls9K4bOFHG8AqInMCKesbpM8/AulXSSygMRE5fZr/q/Xk8cmn5GfOq1qzf+uJQwbHmmu9PnaU1iyMYOzPb2sVlrABQSTsejbX/GZpdJ67HkqQBSV2S3y4Ft1sY3tG/z+bOYj4WHruvp6nuaklvoAQQsWMs03tmtHb/smiHJk//j9XNdUvN9UYSA1EcIvip2dZ8KyHKa2XLETPSheH5bnqZuR3r0oslVVdYhk0ye0m2tesu1ggASL71x8/Za2DC+E5JB1Tgx98s6U6T3x56cLt7eMeMaePz/BEx2lY1NcwMFD4kKUUNIFoC14k17d1XFev10v8+Pi7uzbUAFFFoZ0higFVms3J3rpZ0xbZ/T91La5/1Ryjlx8k1T9JxSv69tCbJPddz4rxjsks7trBWAECyDYwf/yNVwvDK9YRMXTJ1WOgdCryjJqi9a9vDYRAjKfm7nOEVEM3D2EBFvYTwuffAAhBFplevaa4/aHpr1wPEGMPF8NS9tDq2/ZMk9bTU7u+hXm6yY+WaL+lISVUJ++h1qhr4gaT3shYAQHL1NNW+V9LbE/jRNkn6h9z/aQpuD9xvn7a4+4Hn3+ORZ+bEjS9U0Nvp76IEENVf0sK6Yr5c+hkHyGu4TS8QWUEhDN8n6XOkiJZsLv+IpEckXS5JK1vmT0j55qM9LMw32XxJx0qqScBHfU9Pc9312dbuX7PUASB5+hob6kKFFyTk46yR6Sa5/01mN2bW77ds2x+hkDA9XfX/aXKeLA1E1MBeW4t6pd+/74HVWPsWM7ucxEB0d8Yy+1XP4j4M8fPISYdmU1XpeYH0cnc7Tk/dSyuOTzzcLNdLsu3dK1iqAJAcfac17BFuCm+V6fAYvv2CXHc/9URAu9FUuKmmdflynqBbGXqb6i536S2UACLp8Wxb9z7FfMF/nYEVmNawlQcibXrfo/0na9v9mBAf+y+5u0dSj6SlkpRvqR03JfSjwjA4RubH6KkzteLw18M9FOh3K1vmHzMrd/NWliwAJINvDi+MzfDK9YSkf7jpZgv09+rN/f+Ycu19T7AUK8+qxsOmuNRICSCyin6bqmdcQuhr5TwpF4j4Ttv7xQAr9mpz+UFJt2z7J0nqa2yYVrDCsSY7RtJ8SUdL2jOC62B9qvDkheJ+WACQCD3NdW93V5TvIXS/pL+b6eZh6aaZqbl5brQOSUoF6Xe7V9zToYE4KfoA618Tq54TD9lPVePW0RiINLeU12Vyee4ymvQF3dKSWjN41+FhKjxG0kskO1pSvaJyg3jTadwPCwDibXVLw6FWCP8paVJE3tIGyW51D28NzG5VqurWTO4Ojk+w3f2k3sLy+yQ7kBpARJnasq3dzcV8yX+dgZWZd8+G3s66ISXv6VlAojYDYcE+JOlDpEj4gn7qr8td2/79QpLuPX5O9aTq6iMU6GjJjnbT0XIdrrF4dLTrJ32NDctq2ju7WVoAED8Pnn7geHsi/J3Gbng1INkyk9/qplsLKtwyq3XFvSwZ7IqewvITjOEVEG2uNcV+yWddM9jTVPeIpFmUBiJt0/hU9czJuY7HSQE/Y15V79rBBqX8OLnmyTVPpsMkBWX46Q9ZatxL+es4AMRPb2PdRW56dzl/pEw3SrpJoXcM7L35n7MvfqifJYHR6Gmq+7OkV1MCiDDTOdnW7q8V8yXTz/m/V4oBFhB1k/rDgdMlXUAKbHsqZce2f5KkdScduudQKn2EApv3jKHWXD3njxZF+OkH+vBga76l9tXb7usFAIjDwX9j7cdKPLx6XNJtLt0k8w4bHLo5u/SeRymP4qy/dXMlvYoSQMSPU0JfWezXfNYAy6SVPIkQiAHXh3yhLrSFComB55q65O4nJd247Z8kaWVL7eSU29Fye7GHfpSZjpL0Iu3umVpmr5hc8O9I+jDlASD6Vp3a8CqF4TeLd4Sixyz020PZ7TJ1BGH6lsziZQ9RGiXbDQ7sQ+Y8fQyIOpNWleA1/211c923zPVJUgMx2CCE9obM4q5rKYHRWttSO2l4KDjULKz1p8/Wkl4sacLIV0g7M9vatYiqABBdvacceaAHw7dJ2m+UL7FRUl6mDgu9Q4F31LQuX24SfwNHWTx1lnnVKpn2ogYQbalQc6Yv7r6/mK/57DOwQq0Us2wgFjwVflgSAyyM2rRcfpP+ffnhpdJT99Rava7/8FSgIz20o2Q6UtKRkvbe8QrpF/Y01i7PtudvpCwARE/faQ17+ObhK7Xrw6teSbdLfrssuN2HvWPGld0rKYmxNJiuOt3E8AqIw+Hqln02rS72iz73Ju6NktpoDcRjo2AW1mdal+dJgVJb01x/UEHhUfLgSMmP0lNDrRnP/c+U8pdmc/lHKAYAEdphkKy3ue53crW8wH+yUua3m4LbLfTbBwtDt++/5O4eyiFy63Fj3QqZDqUGEHlrs23d04v9os++iXtojyjgDGAgJkwefEIq6xOEUKGmt3Y9IOkBSa1P/789eMqR+1TbUN2zbhYfWlvfaQ2vrLmsczPVACAaepvrPv+M4VWvmzrk6pB5R1Wg26bl8n1UQtT1NNe+0ZzhFRATJfmD9rMGWKnQVxUCSgNx4dJ/PXLSoefwV1KMhdmLl23Uc24W33dawx5Vj25JUQcAoqGvsWGah+FAGNhrwiC8fVYuv4EqiCNz417NQHyU5JJze87BsPU21W2RNJ7eQEy+zM3Pz7TmP0sJAAAAJFFvU+1LXHYrJYCYcF2Qbe/+aLFf9lnnW217gshqagMx2jaE9oENLfP2pgQAAAASub9rxh9rgRgxK80ZWM+/YNDF00WAWG0dtFd/OPgeQgAAACBp1jTXHyTXyZQAYnWMWqYBlomnRwFx4/6xfEvtOEIAAAAgSQrun5bE/TWBGDEPSjJX4gwsIBlmTh7WW8gAAACApOhrbJgm6R2UAOJlWFpVitfdzhlYxgALiCE3O8dbWvjrFAAAABIhNP+wpAmUAGJlaEbq0N5SvPDzBlilutkWgJI7uGd4eQsZAAAAEHd9pzXsIfkHKQHETq/lcoVSvPDzBlge+oP0BuLJZF/0hds5sxIAAACIkXBL+F5JkykBxM79pXrh5x3obu7vf0BSgeZADJkO772z7hRCAAAAIK7yLbXj5PoYJYA4HpPafaV66ecNsA6+9r4BleiGWwDKINAXXTJCAAAAII4mF/ReSQdQAogfD8t4BpYkuex+sgNx3WLoyJ7m2jcSAgAAAHGTb6kd57JPUwKIp8DC8g6wTOF9ZAfiy9wWchYWAAAA4mbysN4nzr4CYqsQqnyXEEqSlfCaRQBl8eI1jXUnkAEAAABxce/xc6rd7DOUAOKrOhwu8yWEJbxmEUB5hIG+zhMJAQAAEBeTxle/V9IsSgCx1Td1yd1PlurFt3twWwjEGVhA3Lnqe+6sfRMhAAAAEHXbzr76LCWAWCvpyVDbHWClBqvvk+S0B+LNzL7iZ8yrogQAAACibNvZVzMpAcSYl/Z2VNsdYGWXdmwxWS/1gdg7uHdd/+lkAAAAQFRx9hWQDGZjcAaWJLmcywiBRGxEgoUrW+ZPoAQAAACiaOLECe8TZ18BsRdaWP4zsCTJnPtgAUng8my68OQHKQEAAICouff4OdXmzpMHgQQISjxHeuEzsIwnEQJJ4dJn1x8/Zy9KAAAAIEomTRh/ljj7CkiEwYFgjM7AMs7AAhJkv4EJ1Z8kAwAAAKLiwVOO3Melz1ECSIQNB1zd9Vgpf8ALDrBChffSH0gS+8Sqpgb+ugUAAIBIGJ8a+qykKZQAEqHkJ0G98BlYgxPulhSyDIDEmBi4/zcZAAAAMNZWthwxw90+TAkgGVy+vNQ/4wUHWNmlHVskPcRiABLE/LSe5rqjCQEAAICxFBSG/1vSREoACfmdNhu7AZYkuWk5iwFI1nZFrm+TAQAAAGOl7+T6epOdRgkgQVxjO8AK3BhgAcnzyp7m+lPIAAAAgLEQpsPzJaUoASTqFztf6h+xwwGWLGSABSSR+7fvPX5ONSEAAABQTr2N9a+U2/GUABJlS82Ryx4p9Q/Z8SWEsjzLAUikF+0xofoDZAAAAEC5uGSh+XmUABJnuS0s/UMAd3wJ4cRghXgSIZBQ9sWVLbWT6QAAAIBy6GuuazHpWEoAiVOWq/d2OMCquaxzs+SPsCyARJocFOyrZAAAAECp+RnzquT6GiWABP5+l+n+6cHO/xMuIwSSyqQze5oaXkwJAAAAlFLvuoEPuDSHEkACBWE0Blju4kbuQHKlpPCnvnBXhtkAAADAyK1qPGyKTF+iBJBMaQVlOfFppwetgRkDLCDZXtLTVXc6GQAAAFCSg05LnydpCiWARNoyrb7robJsS3b6X4QhAywg4cz1zVWNh7FTAQAAgKLqOaV+nqR3UwJI6sGkVpTjCYTSLgywUlVaLslZKkCiTTFLf4UMAAAAKBaXzAP/ocTtKoAE/6KX7aSnnW5IpuXymyStZKkAyWbS+3tPqX0pJQAAAFAMPc117zLpWEoAST6QtOgMsLbpYqkAiReEgV3ADd0BAACwuza0zNvbXF+nBJD0g0jvLtvP2rX/zO5gsQDJZ9KxPZ1176IEAAAAdkf/8MCXJU2nBJBsQ+lU2eZFuzbAcmeABVQIk77Z19gwjRIAAAAYjd6W2sNl+iAlgMRbOyt35+py/bBdGmAF6YABFlA5JodW+B4ZAAAAMBpesB9KqqIEkHhlnRXt0gBreq7zIUkbWDZApbC3rW6uPZEOAAAAGInVTXVvlvQflAAqQJmv1tulAZZJLulOlg5QOczth2tbaidRAgAAALui58R5E006nxJAhRwzBha9AZYk7oMFVJ79hwvBV8kAAACAXVI18AVJBxACqAxhEJT1RKddH2AFPIkQqDz+kVWN9fPpAAAAgB1Z3dJwqKRPUAKoGJuytZ33lvMH7vIAyxQywAIqT5Ay/6mfMY+bcAIAAGC7XDIrhD+RVE0NoGIss4UKy3pwuqv/YU1Qe5ekLSwjoOJ2SBp61g1+nBIAAADYnt7m+veJG7cDFcXK/ARCaSRnYOVyBUndLCagAjdO5ueubKmdQwkAAAA809qW2hrJz6MEUFlC07Jy/8xghP89lxEClWlCqmCLXDJSAAAA4GmFgn1frn0pAVQW82BZuX/mCAdY3MgdqGD/0dNUdxYZAAAAIEk9jbWvd+nNlAAqzuDmrVvy5f6hIxpgWciN3IFKZtI3uJQQAAAA6046dE+Z/ZQSQEUeGC4/+Nr7Bsr9Y0c0wBqu2qtL0jBLC6hYe6QK9itfOOLLjwEAAJAgg+mq8yQdQAmg8piPze2lRnQQOit381bJulhcQEU7rrer/qNkAAAAqEy9jfWvNOkDlAAqk8tuGYufO4qzKPwfLC6g0rdY/vXe5sNrCQEAAFBZek6cN1HmvxAP9wEqVhiG8RhgmfktLC6g4lW7py7ylpYUKQAAACpI1eDXXOKeqEDl2jxj49TusfjBIx5guQIGWAAk+TG94V2fogMAAEBl6GtqOFbyD1MCqOTDQN1m118/JvdGH/EAK9PadbdMj7HUAMh9YV9jQx0hAAAAku3B0w8cHyr8lSTOwAcqmJndOlY/e+SXEEou160sNgCSqkPzS/2MeVWkAAAASPBO35N7fF3SYZQAKpubbh6rnx2M6g1L3MgdwNNbhKN6Hh34Ah0AAACSqffUugVyO5sSAIaHBuNzBpYkBaFxHywA/2LSF1afWvcySgAAACTL+uPn7OWhLh7tsSOARHl4/yV394zVDx/VRmi4KrxFkrPsAGyTtlC/Xn/8nL1IAQAAkBz9E6ovkHQAJQDYGF+NN6oB1qxcfoPk97L4ADzD7IHxE35ABgAAgGRY3VR7kslOpwQASXL3Mb0abzdOAzXugwXgOZsFf+fq5tq3EgIAACDeek48ZD+TLaIEgKeFCuJ3BpYkmZz7YAF4/rbB7cc9LbX7UwIAACDGxlX9QtJ0QgDYZnBo7yfvGMs3MOoBlocBAywA27OPhvVrb2lJkQIAACB+eptqPyi3kykB4BmWzb74of6xfAOjHmBlpo3rlLSFZQjgecxe0Rve9SlCAAAAxEtvS+3hLvsWJQA8+xhPY34bqdFfQrioY0iuW1mKALbL/Ss9zXVHEwIAACAeHjz9wPEq2OWSJlIDwLMO70K/eazfQ7BbH0D+VxYjgBdQZa7L15106J6kAAAAiL7qxyed51IDJQA8V6EwPObzn90bYKVSDLAAvPA2QpozVDXuO5QAAACItt7m+jfI9BFKANiOe/dfcnfPWL+J3RpgBQNVN0saZFkCeEHu7+ttrnsTIQAAAKJpzUl10939l5KMGgC2IxInL+3WACu7tGOLSR0sSwA74q6LVjUecQglAAAAIraftlBBIaVLJU2nBoAXcEMU3kSwuy/g7jewLAHsxKQgKPzm3uPnVJMCAAAgOvq66s+R6bWUAPDCCvE/A0uSLAj+xsIEsFOueXuMH38+IQAAAKKht7H+le7+JUoA2IGV2bYVD0fhjez2AGvclq03SiqwTAHslOkjPU11jYQAAAAYW32NDdNk+o2kFDUA7MD1UXkjuz3AmnLtfU/ItIxlCmAXmKRf9rU0zCYFAADA2PCFCkILf+3yLDUA7GSL8deovJMgaR8IQOTtExbC3+ZbaseRAgAAoPx6Ouu+JOk1lACwMwULI3Pf86IMsDwMuJE7gJF46T6hfY0MAAAA5bXq1IZXmXQOJQDsgt5ZrSvujcqbKcoAK0yHf5MUsmwB7CpzfWJ1Y/3JlAAAACiP1SfXzQrC8HJx3ysAu3LMJkXqaruiDLBm5fIbZMqzeAGMZHtogf+qp2nuAaQAAAAorXuPn1NtKV0haSo1AOwaT94AS5LMncsIAYxwe6h95cFlvmBBmhgAAACls8eE6h9IeiklAOwq81QyB1hu0Xm0IoA4bRXtFX2T13M/LAAAgBJZ3Vz3bsnOoASAEVg7vb0zUlfaFW2ANdQf/K+kAssYwEi5/FO9TbWnUgIAAKC4Vp1Se6S5fkgJACM8SrvOJI/SOyraAOuAq7sek9TBQgYwCuayX/Y01s0lBQAAQHGsbKmdHATWJmkCNQCM6ABNwZ+j9p6Cor6a688sZgCjtKdMv+87rWEPUgAAAOzmodmCBelUwX4raTY1AIxUQXZd1N5TUQdYJmOABWB31Pnm8BdkAAAA2D29Ux79jqTXUALAKKyY2da5KmpvqqgDrA3p8GZJm1jWAEbLpbesbq4/ixIAAACj09tc+065PkIJAKM8KPtTFN9WUQdYtbn8oKQbWNoAdoe5f7ensfY4SgAAAIzM6lPrXuZuP6MEgFEfj1k0bw8VFP+Tch8sALutSma5dU1zM6QAAADYNT1Ncw+wUO2SqqkBYJQGUymP5IlJRR9gWeAMsAAUQ82QUv/jCxakSQEAALBjK1vmT5ClWiVNowaA3XDztFw+kreGKvoAK5PLL5e0imUOoAj+o3ffdV8lAwAAwAtzyYLhJy+Wax41AOyWCF9VF5TiRV1+HUsdQHE2oPaZ1Y31JxMCAABg+3ob675qpjdRAsDuChReF933VorjTQVcRgigaJsUM79kZfPcg0kBAADwbL1N9afL9AVKANj9Iy89Nj2o/WdU315JBliB23WSnKUPoEj2TnlqyYaWeXuTAgAA4Ck9TfX/z+U/pQSAonD7i+Vyhai+vZIMsGraO9dK6mTpAyiiw/rD/kt8YWm2WwAAAHHS01x/mMwXiycOAiiWCN//SlLpDgRN9keWPoCicju5p7PuS4QAAACVrK+xYZrcr5FrX2oAKJYgsMocYLl0NYsfQLGZ9KXexvoWSgAAgEq0smX+BLdwsaTZ1ABQRN01uc4Ho/wGSzbAyqQOu0nSetYBAEVmbv7LvsaGOlIAAIBK4pKlhjdd5NJ8agAo7gbGr4r6WyzdJYS5XEFyLiMEUAqT3ML2h0+o57R5AABQMXqba78j87dSAkDRpVLXRP0tlvRmyG66irUAQEm2L9Kcqmr/nbe0pKgBAACSbnVT7afl9jFKACiBDZlHJ98c9TdZ0gHWcH/wB0nDrAsASuQ1PcMrvkEGAACQZD1N9W8z2XmUAFASrmvs+usjP7sp6QDrgKu7HpN0E2sDgFIx06d6m+pPpwQAAEiiVac2vEryX0kyagAoBZfH4iF8Qal/gBlPIwRQ8g3uT3qbal9CCQAAkCS9TbUvCcJwsaRx1ABQIsPDg0Es7l9e8gGWh9wHC0DJjXfZFX2NDdNIAQAAkmBlS+0cly2VNIkaAErGdeO2q+cir+QDrGx79wpJ97NWACix/UMLc37GvCpSAACAOFvXNDeTKujPkqZTA0ApmeJz1VxQlp/inIUFoCz+X++jAxeSAQAAxNWqxsOmDCn1J8kOpAaAUnMGWM8JEhgDLADlcmZvU90nyAAAAOJm/fFz9gosfa2kOmoAKIMHtl01FwtlGWBlp4y7QdLjrBsAysGlb61urn0rJQAAQFysbJk/YWD8+Csl8WAaAGViS+L0bssywLJFHUOS/ZmVA0C5tsTmdtGqxvr5pAAAAFHnZ8yrShWezMm0gBoAyrbtsfhcPiiV6x5YkszDpaweAMpoQmC+uK+lYTYpAABAZA8gW1pSvY8O/kbSCdQAUEaPbwzCv8bpDZdtgNXvVUskDbKOACijaWEhvObhE+r3JQUAAIgal6y3sOKnkp9KDQBl3gAtrc3lYzWjsXL+sJ6muj9Ieh1rCoAyb5yv98C+RggAABCpgzH3UyWdSQkAY6Ap29bdHqc3nC7vQaS3yowBFoAy7x1qgbkvIAQAAAAAaIuGqv8YtzcdlPWnDQ+1SxpmXQEAAAAAACg/d12VXdqxJW7vu6wDrOzSex6V60ZWFwAAAAAAgPILArXG8n2X+wd6YK2sLgAAAAAAAGXXnx4aujaOb7zsA6wwCNolhawzAAAAAAAAZWT+x6lL7n4yjm+97AOsWbk7V5t0C2sNAAAAAABAGXl8r4oLxujnchkhAAAAAABA+QwNDdhVcX3zYzPACtOtkpx1BwAAAAAAoAzMrzvg6q7H4vr2x2SAlVm87CFJd7D2AAAAAAAAlJ57vB+qF4zhz+YyQgAAAAAAgNIrBKmqJXH+AGM2wAo9dQXrDwAAAAAAQGm57IZM7o51cf4MYzbAmtl+5z0mdbIaAQAAAAAAlE5gHvuTiMbyEkK52eWsRgAAAAAAACUzbGEQ+9s4BWP708PfiKcRAgAAAAAAlISb/lDT3rk27p9jTAdY2Vz+EUk3sToBAAAAAAAUn3kyrn4LxjyknMsIAQAAAAAAim9LOhUuScIHGfMB1nBKv5U0yDoFAAAAAABQTL54Wi6/KQmfZMwHWLNy+Q2S/sxKBQAAAAAAUDyBJ+fheUEk3oXzNEIAAAAAAIAi2rA+7X9KyoeJxAArmGSLJW1i3QIAAAAAACgC0+9rc/nE3LIpEgOsmss6N8ttKWsXAAAAAABAESTsarcgOm/Ef8PaBQAAAAAAsNtWZhq6bkzSB4rMAGv61Oo/SnqUdQwAAAAAAGD0THa5LVSYpM8UmQGWLeoYkukKVjMAAAAAAIDRK4Rh4h6WF0Tq3VjAZYQAAAAAAACj5Vo+c3F+WdI+VqQGWJkrOm+UdD9rGwAAAAAAwMi57NIkfq5IDbBMcpNdwuoGAAAAAAAwYsOFwuBlSfxgQdTeUEH2K0kF1jkAAAAAAIBd56Y/7L/k7p4kfrbIDbBmtnWukvS/rHYAAAAAAAC7zkL9KqmfLYjim3LzX7HaAQAAAAAA7LL1m/v7r07qh4vkAGtwz83tMj3GugcAAAAAALAr7LKDr71vIKmfLpIDrNkXP9Qv6XesfAAAAAAAADsXenhxkj9fENU3ZgUuIwQAAAAAANgFt89sz9+Z5A8Y2QFWZnH+VpM6WQcBAAAAAABemJsl/iSgIOLv71JWQwAAAAAAgBc0aIMDv036h4z0AMs8uEzSEOsiAAAAAADA87lrcXbpPY8m/XNGeoBV0965VubXsDoCAAAAAAA8n6ky7iEe9UsI5WHAzdwBAAAAAACeb3UmffifK+GDRn6AlZ067hpJfayTAAAAAAAAz+C62HK5QiV81MgPsGxRx5BcF7FWAgAAAAAA/Etonv5FpXzYIA5v0kP9TFKBdRMAAAAAAEBy0zWZxcseqpTPG4sB1owru1e66VpWTwAAAAAAAClw/bSiPm983qj9hNUTAAAAAABAj9Sk5v6hkj5wbAZYNfVdf5D0IOsoAAAAAACocD+rlJu3Py02AyxbqFDSz1lHAQAAAABABRsaHh66uNI+dBCnN2upql9IGmBdBQAAAAAAlciktv2X3N1TaZ87VgOsTO6OdSYtZnUFAAAAAAAVKaism7f/+2PHjXMzdwAAAAAAUJHuqrmi+4ZK/OCxG2Bl2rtukCzPOgsAAAAAACqK6acmeSV+9CCW79p9EWstAAAAAACoIFsLgV9WqR8+lgOs8enqSyRtZt0FAAAAAACVwKTfzsrlN1Tw54+nnqa6X0h6D6swgJ1s5TokPUAIAAAQYa+Wa18yANjhoU3ox2QW52+t1M+fjusbDzz4fmjhuxXjIRyAsmzmF2Vbu7jsGAAARFZPU12HxAALwA6OaqSbK3l4JcX1HliSato7uyVdz2oMAAAAAACSLJQuqPQGQZzfvLtdwGoMAAAAAAASbHV2v+q2So8Q6wFW9oiupZLfw7oMAAAAAACSyN0utEUdQ5XeIdYDLFuoUGY/ZnUGAAAAAAAJtMU19AsyxHyAJUlVQ0O/lPQ4ixIAAAAAACTMJTPb71pPhgQMsKYuuftJmf+SRQkAAAAAABLE5bqQDE8JkvAhrFD1A0kFFicAAAAAAEiIa7Pt3SvI8JREDLAyi5c9JGkJixMAAAAAACRCoAuI8MwcCWFuLFgAAAAAABB/ruWZK7r/TIh/S8wAK9PedYOkf7JIAQAAAABArAV2gUlOiGckSdKHMfMfskgBAAAAAECMbQgm2v+Q4dkSNcDatGXgt5L6WKwAAAAAACCmflZzWedmMjxbogZYB19734BMnIUFAAAAAADiaGB4eIi5xnYESftA44PqH0p6nEULAAAAAADixS/Zf8ndPXR4vsQNsCbnOh53089ZtAAAAAAAIEYKBQu/TYbtC5L4oaoC/46kfhYvAAAAAACIBVPbrNYV9xJi+xI5wJqWy/dJ4o79AAAAAAAgFgKF36HCjvoklKeCb0kKWcQAAAAAACDirqtpXX4LGV5YYgdYM3Kdd8u0mEUMAAAAAACizM3Op8KOBUn+cOZ+HosYAAAAAABElmlZtrXrL4TYsUQPsDJt+dsk/R+LGQAAAAAARJGF9nWTnBI7FiR/TXBOwwMAAAAAAFH0QE36sDYy7FziB1jZ1vwfZepgUQMAAAAAgGixb1ouV6DDzgWV8CHd9S0WNQAAAAAAiJA1hdSkS8mwaypigJVNzb1C0v0sbgAAAAAAEBEXzMrdvJUMu6YiBlhPnY7HEwkBAAAAAEAkbBwI0z8hw64LKuWDZvYbf4mkB1nkAAAAAABgLJnsu7MXL9tIiV1XMQMsW9QxJDPOwgIAAAAAAGPp8f4wdSEZRiaopA+bmTLuV5I/xGIHAAAAAABjwYyzr0ajogZYtqhjSG7ns9gBAAAAAMAYeHywX5x9NQpBpX3gzNTqizgLCwAAAAAAlJtL3z/g6q7HKDFyFTfAskUdQ2b2TRY9AAAAAAAoo8eHB+wCMoxOUIkfekPgF0l6mMUPAAAAAADKwd0v4Oyr0avIAVZtLj9o7t9i8QMAAAAAgJJzPRGmxdlXuyGo1A++qX/gF5JWsQoAAAAAAICSMr9gVi6/gRCjV7EDrIOvvW/AJe6FBQAAAAAASmmThoZ+QIbdE1Tyhx/ca9PPJa1mNQAAAAAAACXhuiC79J5HCbF7KnqANfvih/rlnIUFAAAAAABK4slQw98jw+4LKj3AY2n/qaQHWRUAAAAAAEAxufTdme13rafE7qv4AVZtLj/opv9mVQAAAAAAAEX06Pit/d8lQ3EEJJCywdxLJK2gBAAAAAAAKAqzb0y59r4nCFEcDLAkWS5XMPmXKAEAAAAAAHaXyXoKwaSfUKJ4GGBtU9OWb5XsFkoAAAAAAIDd4QrPnZW7eSsliocB1jYmuQLOwgIAAAAAALvl3syGqReTobgYYD1D9oruP7nsfykBAAAAAABGw0zn2PXXD1OiuBhgPTdIGH5OklMCAAAAAACMhEmdNfXdV1Ci+BhgPUdmcf5Wky2lBAAAAAAAGJHQPmsLFRKi+BhgbYe5fUFSgRIAAAAAAGAX3ZhZ3HUtGUqDAdZ21LR3dkv6DSUAAAAAAMCuMLdzqFA6DLBeaMUL01+SNEAJAAAAAACwE1dn2rtuIEPpMMB6AZnFyx4y+c8pAQAAAAAAdiAM3b9AhtJigLUDwymdK2kDJQAAAAAAwAv41cz2/J1kKC0GWDswK5ff4PLzKQEAAAAAALZjU5UKXyRD6THA2omNKX1f0v2UAAAAAAAAz2Rm35ratqKXEqXHAGsnanP5QXfnSQIAAAAAAOBfTNZjE+07lCgPBli7INue/52kmygBAAAAAAC2+ULNZZ2byVAeDLB2gUkeKPikJKcGAAAAAAAV786ahq5LyVA+DLB2UU1b5z8ka6UEAAAAAACVzV2fsoUKKVE+DLBGEitln5Y0QAkAAAAAACqTSUtntHf/mRLlxQBrBGpynQ/K/UeUAAAAAACgIg3Lws+RofwYYI3QgFd9VdJ6SgAAAAAAUFnc7GeZ1uV5SpQfA6wRmr142UaZvkoJAAAAAAAqypPpIWceMEYYYI1CZkr1jyXdSwkAAAAAACqDu31t+pLuNZQYGwywRsEWdQwFro9TAgAAAACAinD/4N5PXkCGscMAa5Rq2ruvknQ1JQAAAAAASDaTzp598UP9lBg7DLB2QyrU2ZJYgQEAAAAASCrXnzJt3ZzAMsYYYO2G6Yu775f0PUoAAAAAAJBIg6FSHybD2GOAtbuGqv9b0sOEAAAAAAAgcb49s/3Oe8gw9hhg7abs0o4t7v5ZSgAAAAAAkCir0in/BhmigQFWEcxoz/9W0v9RAgAAAACAZHDpk9Ny+U2UiAYGWEViFn5Y0hAlAAAAAACIvRuzbd2/J0N0MMAqkkzr8rxMP6EEAAAAAACxViiYPmSSkyI6GGAVUfWW/i9K6qMEAAAAAAAxZfrRrNbuTkJECwOsIppy7X1PuHQOJQAAAAAAiKW1A4X0uWSIHgZYRZZt6P6VZLdQAgAAAACAeHHp87MXL9tIiehhgFVktlChzM+SVKAGAAAAAADx4NI/njopBVHEAKsEsq3d/zTpx5QAAAAAACAWhj30D9hChaSIJgZYJZIeHvqCpFWUAAAAAAAg2kz23ZmL88soEV0MsEpk6pK7n5T5RykBAAAAAECkPZJKhV8lQ7QxwCqhbGu+1WRLKAEAAAAAQDS5+VnTcvlNlIg2Blil/kVIhR+WxC8CAAAAAABRO2Z3/X5Ga34pJaKPAVaJZXP5R8z1ZUoAAAAAABAhrifCdOrjhIgHBlhlUPPYft+X7A5KAAAAAAAQDWb+uVm5O1dTIh4YYJXjl+L664dN4ZmSCtQAAAAAAGDM3VaTOvxnZIgPBlhlkmnL3+ZmP6UEAAAAAABjatgtPNNyOU4yiREGWGU0fsvWz0vi9EQAAAAAAMaIu743o3U5t/mJGQZYZTTl2vueMLePUQIAAAAAgDHxSFXav0KG+GGAVWaZ9q6cSTyiEwAAAACAMjOzD0zL5TdRIn4YYI2BtApnyvQYJQAAAAAAKBO3SzKtXdcQIp4YYI2BqW0rel36JCUAAAAAACiLvkI6/DgZ4osB1hiZ0dr9S8n+QAkAAAAAAErM9aFZufwGQsQXA6wxVEgF75W0kRIAAAAAAJSGSb/Ntne3USLeGGCNoVm5O1eb6fOUAAAAAACgJB41D84mQ/wxwBpjNa3dP5X0Z0oAAAAAAFBcLp1V0965lhLxxwBrjJnkFqbPkMRjPAEAAAAAKN7x9tIZbd2/o0QyMMCKgMziZQ/JdA4lAAAAAAAoiseHU6kPkCE5GGBFRKa++0K5/40SAAAAAADsHnP/yKzcnaspkRwMsKLyy7VQYaj0eyVtpQYAAAAAAKM9wPZrM+35SwmRLAywImRm+533uHwhJQAAAAAAGAXXEz5sZxIieYwEEftda2lJ9RVW/M2l+dQAirKZ+4NZeCcdAABAZI8B3E6XNJ0SQBF+n6T3zmjrvogSCTyyI0H0rGmuP6jgvkzSntQAAAAAAGDnTLYk09Z1MiWSiUsII2h6a9cDcn2aEgAAAAAA7JJ1wbCfQYbkYoAVUdn27p9KupoSAAAAAADshPkHpi/pXkOI5GKAFeWF48G7Ja2lBAAAAAAAL+iibGu+lQzJxgArwmraO9fKeHoCAAAAAAAv4MHqrf0fJ0PyMcCKuGxr12JJl1ECAAAAAIBnCc3tXVOuve8JUiQfA6wYGJ+q/rCkhykBAAAAAMA27t/MtHfdQIjKwAArBibnOh5XEJwmKaQGAAAAAACWH9h785fpUDkYYMVE9orOv8n8AkoAAAAAACrcQMH8bbMvfqifFJWDAVaMbN4y8DmZuigBAAAAAKhUJn1hVmt3JyUqCwOsGDn42vsGXOE7JQ1SAwAAAABQgW6oaej+HhkqDwOsmJnRuvwOM51DCQAAAABAhdkoFd5pC7k/dCVigBVDNa3d33bTVZQAAAAAAFQKl96fbVvxMCUqEwOsGDLJU2HwHkm91AAAAAAAJJ1LP57R1v07SlQuBlgxVdPeuVaBTpc4dRIAAAAAkGSWD1N7fpIOlY0BVoxlr+j+k7u+QwkAAAAAQEL1F8zfNit381ZSVDYGWDGXfWy/z7v0D0oAAAAAABLH7OxZrd2dhICRIP7WNNcfVAj9Dpn2ogYAAAAAICFas23dp5IBEmdgJcL01q4HLND7KAEAAAAASIiVhZSfQQY8jQFWQmRau3/v8ospAQAAAACIuWGXv3VWLr+BFHgaA6wESe2ROkvSXZQAAAAAAMSWaeGMtvxNhMAzMcBKkJrLOjcHBXuTpH5qAAAAAABi6IZMMPc8MuC5GGAlTM2VXV0ufZoSAAAAAICYWTs8PPQ2y+UKpMBzMcBKoBlt3RfK9WtKAAAAAABiIlSg0/ZfcncPKbA9DLASKp32D0haQQkAAAAAQOSZvpS9ovtPhMALYYCVUNNy+U2BB2+StJkaAAAAAIAIuyZT3/0NMmBHGGAlWE17Z7ebv48SAAAAAICIWqmhwXfaQoWkwI4wwEq4Ga35yyX9jBIAAAAAgIgZ8kBvyS6951FSYGcYYFWAzVv7z5apgxIAAAAAgKgw+UdnXNH9d0pg19YXVISeprkHSKkOSVOoAQAAAAAYSyb9LtPW/RZKYFdxBlaFyLateNikd0pyagAAAAAAxozr7nFb+88gBEaCAVYFybR1Xy338ykBAAAAABgjmy3tTVOuve8JUmAkGGBVmEz68HMkXUcJAAAAAMAY+EAml19OBowU98CqQGtbamuGC3a7pAw1AAAAAADl4GY/mtHadRYlMBqcgVWBpuXyfYGCJkkD1AAAAAAAlMHfNwbhx8mA0eIMrArW21z7Tne7mBIAAAAAgFIefg4PDx29/5K7e0iB0eIMrAqWac1fIuknlAAAAAAAlEi/hX4KwyvsLgZYFS6zX/XZkm6gBAAAAACg2Nz0oczi/K2UwO7iEkJozUl10wtp3SZpFjUAAAAAAEXhuiDb3v1RQqAYOAMLmr6ke41beLKkLdQAAAAAABTBjY+l/dNkQLEwwIIkaUbr8jtkOpMSAAAAAIDd9Iilqppqc/lBUqBYGGDhX7Kt3b+W7PuUAAAAAACMUr9MzZncHetIgWJigIVnyaQO+6SkP1ICAAAAADBSJvtAtrX7n5RA8dct4DlWttROThXsNkkHUQMAAAAAsCvc9a0Z7d3c9wolwRlYeJ5ZufyGMPRmSZupAQAAAADYBX/Opud+jgwoFc7AwgvqaaprlHSFGHQCKPu3k31C0iZCAMBI+evkaqIDgDK7ayBMz5+9eNlGUqBkhwgkwI6sbqz/jJmfRwkA5VSlQnZq24peSgDAyPQ213/J3b9MCQBltL5ghfmzWlfcSwqUEmfWYIdmtHedL/kiSgAop0KqajwVAGDk3L2aCgDKaMjkLQyvUA4MsLBTmf3Gn+Wy/6UEgHIJQw7AAGBU3PkDAIBybnM+lGnL/x8hUA4MsLBTtqhjKEyFLZKYqgMoi7AQcgAGAKM5ljRj+wmgXL6ebc//nAwoFwZY2CWzcvkNngpOlOkxagAotXSQ4gAMAEazc+9i+wmg9ExtmYbuLxICZf2OIwF21Yxc591yO0XSIDUAlJIHnIEFAKPafhqXEAIouduDicE7bKFCUqCcGGBhRLJtXX+V+1mUAFDiI7CJRACA0bAJNABQQquGh4dOrLmsczMpUG4MsDBi2fb8z+X+XUoAKJ1wKg0AYFSmkwBAiWwxedP+S+7uIQXGAgMsjErmiPynZH4lJQCUQhgGNVQAgFFhgAWgJLtn7va2TFv+NlJgrDDAwqjYQoXpQG+XaRk1ABR9GxOEHIABwOiw/QRQgp0z+9SM9i5OYMCYYoCFUZuWy2+q8sIbJH+IGgCKyjkAA4CRWttSO0nSJEoAKLKfZFu7uIUMxhwDLOyWqW0reuX2BkkbqAGgWFxcQggAIzUgse0EUFQmW5JJzf0wJRAFDLCw27Lt3SsCC98gaQs1ABRlZ8mdgzAAGOmOfYGzVwEUkfvf+vd68s2WyxWIgUh8z5EAxVDTuvwWmb9DUkgNAEX4dsoQAQBGxowzsAAUzYpCWqfMvvihflIgOocIQJFkW/Otcn2IEgB2m2vfVY2HTSEEAIxk22mHEAFAEfRKheNn5fLcJgaRwgALRZVt7/6pu75FCQC7y1LpQ6kAACPgxnYTwO560i08Idu24mFSIGoYYKHosu3dn5F0KSUA7N6BmA4jAgCMgLHdBLBbhhTo1Bmty+8gBaKIARZKsO8kz+xX/V5Jf6YGgFF/QXEmAQCMkLPdBDDqDYiZvy97RfefSIHIHh+QAKVgizqGqrf2nyrTMmoAGN1eVMiBGADsorUttTWS9qEEgNEdwNnnM635SwiBKGOAhZKZcu19TwwPDZ0gieunAYwcZ2ABwC4ruHH5IIDR7nQtyrZ2nUcHRB0DLJTU/kvu7jELT5C0nhoARuhF9x4/p5oMALArx5+aSwQAo9CaSR3+QTIgDhhgoeQyrcvzJj9e0pPUADACVXtOmHgUGQBg50L3l1IBwEiY+182b+3/L8vlCtRAHDDAQllk2vK3mfxkSf3UALDLB2QWHkMFANiFA1HZsVQAMIKtxi2ptE45+Nr7BmiBuGCAhbLJtOX/z+VvljRMDQC7JDQGWACwExta5u0t6RBKANhF3YVU+IZpufwmUiBOGGChrGa05ZfI9C5JITUA7JQ5ZxQAwE5sHR54Kfv1AHbR/VUqvHZWLr+BFIgbvuhQdtnW7l+b+0coAWAXzF5zUt10MgDADnbojcsHAeycyXqCVPCaqW0reqmBWH7fkQBjIdOe/5G7f4USAHZmOO1cRggAO+BiOwlgpzYWwvCEmlzng6RAXDHAwpiZ0Z4/1+Q/pASAHX9RBS+nAgBsny9UIIkzsADsyKbAwtfPXJxfRgrE+7gAGEM1bfmPmOuXlADwggdn5q+lAgBsX9+y2qMlTaEEgBcwKPeWmtblt5ACcccAC2PKJK9Jzz1DUis1AGyX64h1TXMzhACA7UgFrycCgBdQMLe3Z9vzfyAFkoABFsac5XKFQmrP0+S6nhoAtreZGLaAs7AAYDvc/XVUALD9zYO9L9PelSMFkoIBFiJhVu7mrRquPkHSDdQA8Lw9sDDgAA0AnuPhE+r3lfRSSgB47q6Tyc+a0d71K1IgSRhgITKySzu2BHsEJ8j9b9QA8Czmr9l2o2IAwDbjxvtrJKUpAeBZu02mz2Ta8j+mBJKGgwFESs1lnZvHp8efKOk2agB4hv223agYAPC0UJydCuDZzD6Xae3+FiGQRAywEDmTcx2PD4Tp18rUQQ0AT/PATqYCAGzbJra0pNx0AiUA/IvpnGxr13mEQFIxwEIkzV68bKMGB18vqZsaALZ5i0tGBgCQen3FqyRNpwQASXLpy9nW7q9RAknGAAuRlV16z6OBB6+Sazk1AEg6aE3z4dysGAAkWai3UAGAJMn9uzPauhcSAknHAAuRVtPeuTZV0H9KWkENAKHszVQAUOnyLbXjXOKyagCS64Jse/4ThEAlYICFyJu+pHtNqOC1ku6nBlDpO2n2Fm9pSRECQCXbZzg4XtJkSgAVzuznmfbujxEClYIBFmJhZlvnKi/oPyQ9SA2gomX6fMUryACgoo9ZJc5GBSp9O+D6Zaa+6/0mOTVQKRhgITZmXNm9MhXqNZJWUQOoXB76W6kAoFKtbamdJPMTKQFU8L6Q/OKaI7rfZwsVUgOVhAEWYmX64u77pcJxkh6gBlCp7G3rj5+zFx0AVKLhQvBfkiZRAqhYF2Ub8u9heIVKxAALsZNtW/GwUv4fJt1HDaAiTRoYP/5tZABQmfwMGgAV+/u/KNPQfQbDK1QqBliIpWwu/0gq5a+Qazk1gMpjpg9QAUClWdVYP1/SiykBVKSfZNry72d4hUrGAAuxNS2X70sV9J+SuqkBVBaXGlY31b6cEgAqasfdnOE9UIn7PaZvZ9u6P8gN21Hx34MkQJxNX9K9JvDgVTJ1UQOoLCbjQA5AxVjVeNgUSS2UACpsf8f8/Bmt3Z+iBMAACwlQ0965dqjfXinpNmoAFaWlr7FhGhkAVIJUkH63pPGUACqHmZ+fac1/lhLAUxhgIREOuLrrsYEw/VrJbqEGUDHGeeDvJwOApPMz5lW5+wcpAVTUb/4XGV4Bz8YAC4kxe/GyjeNT415n0s3UACpk18797HUnHbonJQAkWd+jg/8l2YGUACpj90buH8+25f+bFMCzMcBCokzOdTxuewSvkfR/1AAq49d+OF3FI+UBJPdIdqECd+f+N0CF/MrL9dFse/57pACejwEWEqfmss7N6ZSfJNf11AAqYU9Pn3jw9AO5LwyAROrrrG2S6XBKAIkXyv3MbHv3D0gBbB8DLCTStFx+0+b+/tfL1EYNIPEy1Y9POp0MAJLIzbgHDpB8w2b+7mx7/uekAF4YAywk1sHX3jeQCea+yaRfUQNIONOnfcGCNCEAJEnvKfXHyzWPEkCibbHQTsq05i8hBbBjDLCQ7GPaXK5Q09D9XpP/kBpAos3u2Xf9aWQAkBQumQL/IiWARHtc7q/LLO66lhTALhzfkwCVYnVj/WfM/DxKAMn9NddQ9SHZpR1bSAEg7nqbak91WY4SQGKtdQtfP6N1+R2kAHYNZ2ChYsxo7zrf3M+SFFIDSOavuaoGziYDgLjzM+ZVuezrlAAS65HQU69geAWMDAMsVJRMe/5HMr1T0jA1gET63JqT6qaTAUCc9Tw68H5JB1MCSKS7vKDjZrbfeQ8pgJFhgIWKk23t/rWbN0nqpwaQOHsWqvR5MgCIq3UnHbqnSV+gBJBIt1uq6v/NuLJ7JSmAkWOAhYo0ozW/1AIdL9cT1AASxvWBlc1zOXMBQCwNpdKfl8SZpEDy/HV8qvo/M7k71pECGB0GWKhYmSu6rzf310jaQA0gUapSnvoGGQDETU/T3ANkxr38gIRx01WF1J6vn5zreJwawOgxwEJFyyzO32oW/j9JnMYLJEtzb3P9G8gAIE5MqQslTaAEkCiXZqdUN83K3byVFMDufk8C0LqmuZkhS10j15HUABLj4WCPoLbmss7NpAAQdT1NdY2S2igBJOpo+weZ1u6PmuTEAHYfZ2ABkqa2rehNB/4KSX+kBpAYB4SbCueQAUDUrTvp0D0l/YASQGIUTP6hbGv32QyvgOJhgAVsMy2X3/RYyk+S/DfUABLC7JOrGmuPIASAKBtKj/uKpJmUABKh3+RvybTlf0wKoMi79iQAns0l62mqO9ekc6kBJOKr7pZMQ9fLbKFCWgCImpXNdQ0pV4ekNDWA2Nsg95Oz7fkbSQEUH2dgAc891JV8Rlv3Qpk+KnHAC8SfH9PXVXcmHQBEbuu0YEE65bpIDK+AJHgg9NR8hldA6TDAAl5AtrX7AkmnSuKJIUDcDxJd31rVeMQhlAAQJT37rvuipKMpAcSbSZ2FVOr/zWy/8x5qACX9XQOwI31NDceGCpdK2o8aQKy/8ToyU6rn26KOIWIAGGs9zXVHy/V3SVXUAGLtuuqt/c1Trr3vCVIApcUZWMBO1LR1/sNS/kpJD1MDiDHXvL5HBz5PCABjre+0hj3k/j9ieAXEfN/CLsnsV/0GhldAeTDAAnZBJpdfXkilXi7pTmoAMd7PlM7pPaX2pZQAMJbCzYXvSsZlzUCMdync/SuZ9q53cWY3UD5cQgiMwNqW2kmFQvA/Lj+JGkBs3Z9O+ZHTcvlNpABQbj2Nta+X2TXshwOxNWjmZ2Ra85eQAigvzsACRmBaLr+pJnVYk2TfpwYQWy8aLvA7DKD8VrYcMUNml4jhFRBXj8r9VQyvgLHBlycwSj1Nte+V7Mfi/hVALLn03hlt3RdRAkBZtjlnzKvqXdf/F5m9ghpALN3rqeDEGbnOu0kBjA3OwAJGKduW/4WbvUHSRmoA8WPSD3ua63h8PYCy6Ht04DsMr4DYum4gTL+U4RUw5vvvAHbHyua5B6fC1FKZDqUGEDuPaGhwXnbpPY+SAkCprG6qe7NJv6UEEEu/yOxX/UFu1g6MPQZYQBGsbKmdnCpYm6RXUgOInesyqbmvt1yuQAoAxba6peFQGw5vlWkvagCxUnC3L8xo7zqfFEA0cAkhUASzcvkNm7f2v07SZdQAYufVfYUV55ABQLGtO+nQPa0QLmZ4BcTOJjdvZHgFRAtnYAFF1tNcd7Zc3xUDYiBOXLK3Z9u6fkMKAEXZqLS0pPoKd7W5/CRqALGyWqGdnF3c1UEKIFo4wAaKLNvafYG5vUXSVmoAsWGSX7SqsX4+KQAUQ2+44ocMr4DYua1KhZcwvAKiiQEWUAKZ9q5cGPrLJH+IGkBsjA/Ml65snnswKQDsjt7muk/J9X5KADHidrmGqhdMbVvRSwwgmriEECihVY2HTUkp9Ts3exU1gNi431JV8zO5O9aRAsBI9TTXNsvt9+IPxUBccLN2ICYYYAEl5gsWpPumrPtvd/sMNYC4/OL63zb3D7zm4GvvGyAGgF3V01x3tFw3SJpIDSAW1rvZW2a0dl1HCiD6GGABZbK6sf5dZv4TSdXUAGLxBfnbmobu/7KFCqkBYKff8y0Nh1oh/JukqdQAYuHOIBU01uQ6HyQFEA+c2gyUyYz2rl9JwcskPUINIPpcektPZ+1Fzh97AOxET0vt/lYI/yiGV0AsmPS7YI/g5QyvgNj97gIop96Wo6b68NDvZVpADSAWX5QXZtq6P0IJANuzsuWIGalC4a+SDqIGEHnu0leybd1fNsnJAcRuvxxA2b85FyxI90559DtycVAMxOPr8r+zbV1fpAOAZ+o58ZD9lB53g0yHUwOI+g64nnDz02a05ZcQA4jpHjkJgDHc8W2uP0PuF0oaRw0g8j6fbev+BhkASNKGlnl794cDf5FrHjWAiHPdrcBOybZ23UUMIL4YYAFjrKex9jiZ5STVUAOI/LfmR7Ot3RcQAqhsG1rm7b21MPAHk46lBhD57+62qqGh06cuuftJYgDxxk3cgTGWbc/fGHhwhLn/hRpAxLm+39tUdy4hgMr18An1+/YXBv/I8AqIvGGXvpyp725heAUkA2dgAVE5Ll6wIN0z+dFzTPqiGC4D0f7yND8/05r/LCWAyrLmpLrpYVp/cqmBGkCkrQ2D4G0zr+jkD8RAkvbBSQBEy+rm2hNNdolc+1IDiLSfZBq6z7KFCkkBJF9PS+3+Kth1kg6mBhBpf61S4S1T21b0kgJIFgZYQBR3kpvmHiClcpJeQg0gwly/zjy237vs+uuHiQEkV19Lw+ywEF4n6SBqABH+VjZdmJlS/Ulb1DFEDiB5GGABEbWyZf6EVOHJCyW9hxpApL9If7sh5e+szeUHqQEk8Pu4ua4h5fqjeNgKEOUv48dc/s4ZrfmlxAASvd8NIMp6mupOk/RTSROpAUTW3zU0eHJ26T2PkgJIjtXN9a829ysk7U0NILKHtHekQm+Zvrj7floAycaNooGIy7Z1XybX0ZJWUAOIrJdZ1bibVzUecQgpgGRY3Vz3bnO/RgyvgCi7rJCa9HKGV0Bl4AwsICbWnXTonkNVVRfJ1UINILLWy/2UbHv+RlIA8eSS9TTVnWvSudQAIqvfpbNmtHVfRAqgcjDAAmK2U93bWPtRmZ0naRxFgEjaKvPTsq35VlIA8fLg6QeOH//EpItdejM1gMhaEXjwppr2zm5SAJWFARYQQz2n1M9T4JeLR3kDURXK7AuZ1q7zTXJyANG3tqW2ZrhgV0h6OTWAyPqFhqrPzi7t2EIKoPIwwAJiat1Jh+45lK76kaTTqAFE9kt2aX+Yfsfsxcs2UgOIrtVNtS8PFPze5VlqABHkesIDf/+M1vzlxAAqet8aQJz1Nta3uPkiSftQA4jkXvc9gaeaudQBiKae5voz5H6huDQfiKrbUqHeyo3aATDAAhKg95QjDwyD4ctNOpYaQCRtMrd3Z9q7cqQAomHb/a5+7NK7qAFEkst0YWZK9SdtUccQOQAwwAKS8g2/YEG6Z/Kj55j0RUkBRQB2xAFsX09L7f4qWKuko6kBRNJaub8z257/AykAPI0BFpAwq5vrX23ul0rKUAOIHpf+kQ71di6FAMZGb2N9iwf+M7n2pQYQSX9Op/wd03L5PlIAeCYGWEAC9TU2TAvNL5H89dQAIsj1hAJ9KNva/WtiAOWx/vg5ew1MqP6WZGdQA4ikIZe+nm3o/ootVEgOAM/FAAtI6vHxQgW9nXWfkfRlSVUUASLp0uqt/R+ecu19T5ACKJ1VjfXzA/P/kTSbGkAk91zvkVJvzbZ13k4LAC+EARaQcCub6xrSrstcaqAGEEkPy/3t2fb8jaQAinxI3NKS6hm+65Nm/lXxxxwgqi5Lp/yD03L5TaQAsCMMsIAKsLJl/oR04cnzXTqL33sgkobd/esb0/pabS4/SA5g961uaTjUCuEvJb2MGkAk9Vpo78ks7rqWFAB2BQeyQCXtzD91g/dfSZpJDSCS7jW392Xau24gBTA6vmBBunfKox+S6+uSJlIEiKRWDQ2+P7v0nkdJAWBXMcACKsyGlnl79xf6v8lNbIHICiX/RTqlT3A5BTAyK5vrGlKuiyQdTQ0gglxPKLBPZVu7FhEDwEgxwAIqVG9jfYub/0TSFGoAkdzLf0iBnZm9ovtPtAB27MHTDxw/7olJnzXpc5LGUQSIpL+nQr1j+uLu+0kBYDQYYAEVbGXLETNSw4VfyvRaagCR5C6/JOWpz9S0d64lB/B8T10eH/5IskOoAURSv0nn1DR0f88WKiQHgNFigAVU+tGxZL3N9e+T+3cl7UERIJI2utt5G9Ph97jJO/CUVU0NMwOFX5d0GjWAyOoOQz9t5uL8MlIA2F0MsABIknqa6w+T+6WSXkINIKJcyz2ws2e0dl1HDFTs99WJ8yZ6uv8zZvYpSRMoAkRSwcy/vSHQl/jDC4BiYYAF4N/HxgsWpHv2Xf8JM18oaTxFgIj+rpquSsvOnt7a9QA1UElWN9eeaK4fSHYgNYDIHmDe57L3ZNu6/koNAEXevgDAs/W21B4eFuwik46lBhBZWyV9fyBMf3P24mUbyYFEfy+dUvtSNztfpgXUACJrWNK3Bvba9JXZFz/UTw4AxcYAC8B2+UIFvV317+XeWEDkv8kfc9cPxg0PfWfqkrufJAiSpKexbq4CfVmuU9lvBSKt2+TvzrTlbyMFgNLt9gLADqxprj+o4P4LSf9BDSDS1rnbd7b0b/3+wdfeN0AOxNnqk+tmWcrPkew9klIUASJryMy/u2nLwLl89wAoNQZYAHbKFyro6az7kElflzSJIkCk3S+3czNHdF3O48oRN2tOqpsepvUFl86UNI4iQKSPJDsK0rtntXZ3EgNAeTY7ALCLek858kAPhn8u6dXUACLvfpku3Lyl/6f8VRxR19NSu79C+4Rc75U0kSJApA2Z+Xdrpoz/oi3qGCIHgHJhgAVgRFyyvsba09zse5ImUwSIvEdk+q4Gq3+eXdqxhRyIkjWn1L2okNJH5DpTUjVFgMjvB/7DXO/OtnevoAaAcmOABWBUVp9cN8vS/jO5HU8NIBbWyXTBQCH9I55aiLHW01x3tFyfldQoKaAIEHlbZPbFTHDYBZbLFcgBYCwwwAKwW1Y31r7Fnjobq4YaQAy4npD8Fym3H09f3H0/QVC2VW+hgp7O2jea7MPiUnQgTq4JUsFZNbnOB0kBYCwxwAKw2za0zNu7Pxz4ilwfEk+LAuIilPS/5raoJn1YG39RR4m/I06X62xJsykCxEafuX8m056/lBQAooABFoCi6WlqeLEsXCTXPGoAsXK/u/3cNfSLme13rScHimF18+FHmdv7JXu7uDE7ECcu6deFlH90Vi6/gRwAooIBFoDi7vGcMa+qZ93gx838SxywALGzWdLlLr8425b/uz11EAPssnUnHbrnYFVVi7neI+llFAFid3DYaQrOrGnr/Ac1AERwGwUAxdfX0jA7DAs/4ibvQGw9YuaXBwoWTW/teoAceCG+UEHvnbUvk+k0yd4maRJVgNjZ6tI3N6b867W5/CA5AEQRAywAJbW6ufZEc/uxpJnUAGIplHSzzC5NB+FvpuXym0gCSeppqd3fh4O3mvkZkg6iCBBb11iY/lBm8bKHSAEgyhhgASi5B085cp/qYPjrks4Uj0sH4myTSVdJ3upD46/JLu3YQpLKsqa5/qBQ3uxuzZK/lH1JINZ6ze3sTHtXjhQA4oCdDgBl09fUcGyo8EeSXkwNIPa2yPQHubWOT427enKu43GSJFNPY91cBWrSU0OroygCxN6wTD8eH1R/iW03gDhhgAWgrHyhgt7O+vdJ/jVJUygCJMKApOtcag9TqT/Myt25miQx3k63tKTWhPmjQ7cT5NYs0+FUAZLyC67rg9A+UnNlVxcxAMQNAywAY+LhE+r3rRrvC+X6kKQURYBEeUDy69x01eCem/88++KH+kkSbX2NDdNc/kq38NWSnSgpQxUgSQd91iMPP1fTnr+MJ8wCiO+2DADG0KpTao8MArtQ0nHUABJpi6Tr5fqjpf26mlx+BQdPY6/nxHkTfdzgyxT6awPT61xqoAqQSAOSvhvsEXyt5rLOzeQAEGcMsABEwranFf5I0ixqAAnmekKmW126SWY3Du755I2coVV6fY0N0wpB4ZhAerm7HSfpaEnVlAES7Tq5PpJt715BCgBJwAALQGSsO+nQPQerqr5krrMlVVEEqAj9cr9NZn9z83+4p+6Y2da5iiyj52fMq1q9tr/WUvbiwHWcy18u2SGUASrG/YHrozXt3VeRAkCSMMACEDkrm+cenPLU9yW9gRpARdooKS9Th4XeocA7aoLauyyXK5Dm2da21E4aHgoONQtrPbB5cs3TU096nUAdoOJscelbg3ttOo8zWwEkEQMsAJHV01TXKOnbkg6iBlDxNkvWLfndMt1j0r2hwnurArt3Wi6/Kekf/pGTDs1Wjas6xAt+sMsONtPBkh8u2RxJAasHUNHcpN+HBX1qxpXdK8kBIKkYYAGItHuPn1M9acL4s1w6R9I+FAHw/J0Z63H3e2S6z8xWhvJVQcF6zWzlsAZ7Z7bftT7SR55nzKta/ejQdLnPCuQZSTMt8GwY2mwzO1jygyVNYkkD2M7B3M0Ft0/MbO+6mRoAKmCbBwDRt6rxsCkpS5/r0vvF/bEAjEy/pNVy75EFa2R6zEPfaKaNJt/oCjaaaWNovjEw3xiEQb8keWibBgZ9SJLCqU9u3d4lOeuPn7PXpmBCSpLSaZ+UTluVJA2rsHfgto/L9nG3fUzhPi7tY4HtI9c+Ju3rpqxcWUnTxVlUAEbmQZc+l23r/j1PdgVQKRhgAYiVlc1zD04p9TW5WqgBAAAqzCaXvsN9rgBUIgZYAGKpr6nhWFf4XZfmUwMAACTcsOS/TA3bl6Yv6V5DDgCViAEWgNhyyfoa6091C78p2YEUAQAACXRd4MHHato7u0kBoJIxwAIQeytb5k8Ihjd9xOSfl2kvigAAgNhzLbfAPpVp7bqGGADAAAtAgqxtqa0ZLujLkr1bUpoiAAAghla627nZI7ousYUKyQEAT2GABSBxek858kAPhj4n2XvFk70AAEA8rHe3b4XpST+Ylbt5KzkA4NkYYAFIrL7GhrowCL/EEwsBAECEbTbzH1YH478xOdfxODkAYPsYYAFIvFWN9fMD829IeiU1AABARAxKfjFPFgSAXcMAC0DFWN1c/2pzfVPyo6gBAADGSChTaxAEn6nJdT5IDgDYNQywAFQUl6yvsf5UN/+apIMpAgAAyrUb4qarU8P2+Zoru7rIAQAjwwALQGXuQZ4xr6p3/eC7zHWuy7MUAQAAJXSdTJ/Ltnb/kxQAMDoMsABUtJ4T5020qoEPuPQpSdMpAgAAisZ1vckWZtq7biAGAOweBlgAIOne4+dU7zFxwjs5IwsAABTBTWEQnDvzis6/kAIAioMBFgA8w9ODLLl/SdIMigAAgBFgcAUAJcIACwC2I99SO27fMDidQRYAANgFNwXuX6ppz/8vKQCgNBhgAcAOPGOQ9UVJMykCAACe4SaTfzHTlv8/UgBAaTHAAoBdwCALAAA8w00W6JzMFd3XkwIAyoMBFgCMwL3Hz6meNL76vW72KUkHUAQAgIrhkq4JFPx3TVvnP8gBAOXFAAsARrMHu1BBT1ftCSY7V655FAEAILFCN11j0pezrd3/JAcAjA0GWACwm3oaa4/zwD5jrjdSAwCAxBiQ9PuCFb46q3XFveQAgLHFAAsAiuQZg6wT2L4CABBTricU6OIqL5w3tW1FL0EAIBo4wAKAIutrbKgLLfy0pLdIqqIIAACxsMaln05IVX9vcq7jcXIAQLQwwAKAEulpmnuALPVxud4jaQ+KAAAQSffLdOHAnpt+Nvvih/rJAQDRxAALAEqs58RD9vOqcWeZ9CFJ+1EEAIBIHAjd7GbfzNR3LbGFCikCAJHfbgMAyuHe4+dUTxpf/WYP7JNy1VMEAICyC910jdzPm9GWv4kcABAfDLAAYAz0NNYep8A+IleTpBRFAAAoqcdlukSBfyebyz9CDgCIHwZYADCG1pxS96JCSh+R692SJlEEAICiHuzc56YfBhODX9Rc1rmZIgAQ6206AGCsrT9+zl4DE8e/S66PSTqAIgAA7Jab3Pz8bGv+KpOcHAAQfwywACBCfKGCnq7aE8ztI5JeTREAAHbZgKTfBx58s6a9s5scAJAsDLAAIKJ6m2pf4rIPS2qRNJ4iAABsjz8kC34WhkM/n9l+13p6AEAyMcACgIh78JQj96lOFd4k10ckr6UIAAAKJf2vuS2qeWxKu11//TBJACDZGGABQIw84+mFp0iqoggAoMKsMfOLLUj9rCbX+SA5AKByMMACgBha21JbMzQcvNPMPyBu+g4ASP5RS4eF/oOaqeMvt0UdQwQBgEr8KgAAxNZTN32v/0+TnyFXk6QUVQAACfG45L8LPHUhN2UHADDAAoCEWHNK3YvCwM5w+bskTaUIACCmhyi3mPTT4dSk383K3byVHgAAiQEWACROvqV23D6hXmey07hXFgAgJkclj8k95+Y/ndG6/A6CAACe/1UBAEisdU1zM0OWepO53u1SA0UAABFSkPR/5rZoQzq8sjaXHyQJAOCFMMACgArRc0r9PKX8HXK9XdJkigAAxshd7nZxVTq8ZFou30cOAMCuYIAFABXmwdMPHD/+8T1PdPMzJL2K7wIAQMm5npDpSje7NNva9ReTnCgAgJHgoAUAKtjqk+tmKbC3mfmZkmZTBABQRKGkm2V2aTDR/qfmss7NJAEAjBYDLACAfKGCvs7aV7rsv2RqkmtfqgAARnmA0Rm6/cbS4eXZXP4RigAAivT9AgDAv917/JzqiROrX2tuLZKaJO1BFQDATqyUqV0eXJJt67ydHACAYmOABQB44aORlvkT0sOb3hgG/g5zvU5SFVUAANtskHQ197UCAJQDAywAwC5Z2VI7ORUGp8r9HZJexncIAFSkrTJd5fLLslPG/8EWdQyRBABQDhx8AABGbE1z/UEFD98mt7fKdDhFACDRBk32h1D+GxuqXppd2rGFJACAcmOABQDYLWua6w8qyE+Uq0WcmQUASdHvpuuC0HPV6fFXTs51PE4SAMBY4iADAFA0vacceaCnhk9mmAUAsbTVTX8JQs+lC8PtU5fc/SRJAABRwYEFAKAkVp9cN8vSapLrjZIWSEpTBQAiZ6NMf7bQr7JJqdaayzo3kwQAEEUMsAAAJddz4iH7WbrqDWFgLTzNEADG3LanB3puY6A/1ubygyQBAEQdAywAQFn1nHjIfl417mSTTpD0Wkl7UAUASu5+ma4OQr9yevrwGyyXK5AEABAnDLAAAGPGFyxI9+677lgL9EYP7RSZDqUKABRFQaZl7rrKQluaXdzVQRIAQJwxwAIARMYznmj4RkmvFJcaAsBIbJDpL5JdlxryK6cv6V5DEgBAUjDAAgBE0sqW2snp4eBVbn6iTG+Ua1+qAMDzPCDTVS5bmp0y7gZb1DFEEgBAEjHAAgBEni9YkO6bvO4VodkbAtdrXarnOwxAhdos6QaX/pA2u3p6a9cDJAEAVAJ2/gEAsdPbctRUDQ8vcAtfLdnxkmZRBUBChTLdYfLrQgXXbdmy9W8HX3vfAFkAAJWGARYAIPaeuneWXi35qxXqdTLtRRUAMdYn098s9KsKKlw9s/2u9SQBAFQ6BlgAgETxBQvSvfusP8JNrzbzEyXNlxRQBkCEbZZ0s7tdZ67reGIgAADPxwALAJBoPScesp+NG/efoeuVJnul5Ifz/QdgjG2W9HeT/S1U+L/ZDVNvseuvHyYLAAAvjB14AEBFWX/8nL36J054aaDw1e52nKSXSqqiDIAS2iTpHy7dJLMbuY8VAAAjxwALAFDR1rbUThoKg2PlfpxJL5f0CknVlAEwaq4nZLrV3a4zhTdlpo6/xRZ1DBEGAIDRY4AFAMAzrG2pnTQ0bPPN7P/Jw1fK7GhJEygD4IV3qK1H8r/J/W+m1A3T2zvzJjllAAAo5vctAAB4Qb5gQbpvytpDFdo8N71cbsfJNJfvUKBiDcnUKekmC71DgXdkWpfnyQIAQGmx8w0AwAg9fR8tuR8n0zxzzZc0hTJAIvXKdKOkmxR6x+b+gdu4fxUAAOXHAAsAgN3kCxX05WsPC4eDY8zCY012rEu1klLUAeL0y/zUvask+0fgfks4PPiP7NJ7HiUMAABjjwEWAAClOA4+Y15V3/qthyi0eR7YPLnmSTpK0kTqAJHYC35MruUydTx9KWBN/fIVtlAhcQAAiOJXNwAAKIt/308rdXhoXrvt8sNjJE2lDlBSvW7qkKtD5h1pBfnprV0PkAUAgPhggAUAwBhb01x/UEHhUfLgSMmPkrxWsgP4ngZGbKtkd8nVqcDvsNCWVafHLZuc63icNAAAxBs7xgAARFC+pXbc5NAPfvpsLTMdrlC1Mh0mKaAQKtygXPcpUN5dywO3vILC8pqg9i7L5QrkAQAgeRhgAQAQIzsYbB0qbhqP5GFQBQAAJDHAAgAgEXpOnDfRx209NHB7kVswR+5z5HqRTHMkzeA7HxHWL9cDZnafe3ifme73wO4LLLh3em3nw9xUHQAAiJ1ZAACSL99SO26/MJg5LB1k0kGm8KBQVmuuwyXtLylNJZTYgKTVkh6QablkeZceSEsPTAsOe5izqQAAwM4wwAIAoILlW2rH7T2cPjAIhmfLNctlMyU/IHj6f5v2lzSBUtiJdZJWmmyV5A/LtDKUr5LrkaqU7p+Wy/eRCAAA7A4GWAAAYId6W46aGoYDM+U2S7IDAtlMd82S+f566gyu6ZLGUSqhXE9IWiXTSkkrzWylFD5csNQqFWylpyeunJW7eSuhAABAKTHAAgAAu21ly/wJ48JNmUIYZj3QvkGofUMFGQs8K9e+kjJyZWXb/jfGWr+kHkm9bnrM3Htc1mumxyy0HlfYa4E/Vh1MWDU51/E4uQAAwFhjgAUAAMqq58R5E4PxQ9OHh70mFWhfd+1jCvdxs31d2sdc+0i2j3m4rwe2z7YB2D7b/gUU/Jd+SY9J2mjSRjffKNdjLtto0kYzbXT3x0zaWAhSj7mH68Z7Yd1+qbq13HMKAADEDQMsAAAQG+uPn7PXwISqfUMP9rGU7SG3iQq1RyCNcwv3NrOqMLS9gkDVUjhRrj1cGmeyvf2pm9XvLWmcTHs864Vd+2xnv2hv2XMGZq499dTrbJZp8Fk7VW5bXd7/nNcYkGnLM/7/u6SNMh+SbJNcWyXvl+xJMx8Ow+CxwHzYzZ60MOyXgq1ybQpTGjL5Rsk2pYNw4+Y9Nm+cffFD/awRAACgUvx/gv7EM8QcHP0AAAAldEVYdGRhdGU6Y3JlYXRlADIwMjItMDctMjhUMTM6MTk6MzIrMDA6MDDLk0TJAAAAJXRFWHRkYXRlOm1vZGlmeQAyMDIyLTA3LTI4VDEzOjE5OjMyKzAwOjAwus78dQAAAABJRU5ErkJggg==;" vertex="1" parent="1">
          <mxGeometry x="651.5" y="658" width="53.67" height="53.22" as="geometry" />
        </mxCell>
        <mxCell id="YOJ8vIp8eEDOzX5zeuK2-27" style="edgeStyle=orthogonalEdgeStyle;rounded=0;orthogonalLoop=1;jettySize=auto;html=1;" edge="1" parent="1" source="YOJ8vIp8eEDOzX5zeuK2-25" target="YOJ8vIp8eEDOzX5zeuK2-20">
          <mxGeometry relative="1" as="geometry" />
        </mxCell>
        <mxCell id="YOJ8vIp8eEDOzX5zeuK2-25" value="" style="shape=image;verticalLabelPosition=bottom;labelBackgroundColor=default;verticalAlign=top;aspect=fixed;imageAspect=0;image=data:image/png,iVBORw0KGgoAAAANSUhEUgAAAyAAAAOcCAYAAAC2eNVmAAAABGdBTUEAALGPC/xhBQAAACBjSFJNAAB6JgAAgIQAAPoAAACA6AAAdTAAAOpgAAA6mAAAF3CculE8AAAABmJLR0QA/wD/AP+gvaeTAAAAB3RJTUUH6AgIChIDL2303gAAgABJREFUeNrs3Xl4nHW9/vH780ySJmmTmYTMTFvKvggimwgii6xFFhFRQH+I+1EUFBRpJgWX8Sg0k0KVuqJHPYiiggjKLmWXTeW4sCj7VkozSduZpEmaZZ7P7w8QBbokbZZZ3q/rOue6sG0yz/19lu89z2YCAGCCJZMLp4+MRGJD08LB3mVbrpJOKpAKAFQmIwIAwHiLxb4RU/Xwe0Lz4wJpb5dm/ccfD0t62F23u/kVvdm2e0gMACggAACMWcPm528WDEfmSzpV0ozRHYnsAZP/d64z9TsSBAAKCAAAoxKLd3zEzS+QtNlG/ogbIiNVp65c+YXnSRMAKCAAAKxVMrlw+qCHF7v0gXH4cSvc7UM9Xa3XkywAlKcIEQAANlbD5udvFhbsepeOGacfWW+m90+bPrd7sG/Jn0gYACggAABIkqYnzktGwqq7JO05zj86MOmY2vq5awb7l9xN0gBAAQEAVLhodEFTUBW5VdIbJ+yXmA6fVj93xWD/kj+SOACUj4AIAABjkw5UG/xM0q4T/ZvMdFFjvONIMgcACggAoELFEnVpuY6erOOUmf88mly4DckDQHngKVgAgFFrSrYfG7pdrcn/AuuvDTXV+y1detYAowAApY0zIACAUWluvnCL0O3SKTp27NE7NHwBowAAFBAAQIUYqSp8S1J0Cj/CpxoSHfszEgBAAQEAlLlYYuHxJj9uqo9Zgfz70sXVjAgAlC4ewwsAWK+WlkxDwfxaSY1F8HEStfUD/YP9S/7AyABAaeIMCABgvYYC/6qkOUXzgcy+zFOxAIACAgAoQ02z27c02elF9rHq3AtpRgcAKCAAgDITDtuXJNUU2+cy2QcaNjt/J0YIACggAIAyEZu5YGuZPlSkHy8SRKq+xCgBAAUEAFAmwtC+oiI8+/Fv/v6mZPuujBQAUEAAACWuMd6xg8lOKfZjWCj7IqMFABQQAECpHxwCP0NSVdF/UNd7YzMXbM2IAQAFBABQouLx9Ax3fbBEPm7EC/YJRg0AKCAAgBI1ZHWnSIqWzAc2+4S2TtcycgBAAQEAlKZPl9jnjTf2157AsAEABQQAUGKa4h0HStqt1D53Eb4sEQBAAQEAbIibPlmiH33fpsTC3RhBAKCAAABKxOzZ6XqXv7tUP39o/v8YRQCggAAASkRfof5YSTNKdgHcT5bcGEkAoIAAAEpjAv/+El+CLRuTHW9lIAGAAgIAKHLNzYsbJR1Z8gsSlnyJAgAKCACg/IWRgfdKKvl3aZjZ+6TLI4woAFBAAABFzE0nlsmizIy1PHMAIwoAFBAAQJGaM2dRnaSDy6ZMBTqaUQUACggAoEj1rBk6VFJd+SyRH8WoAgAFBABQrAeCiB1ZZou0a9Ps9i0ZWQCggAAAipC7yq2AKCwERzCyAEABAQAUmcZ4xw6Sti/DVsVlWABAAQEAFKEjy3Ox/HDp4mqGFwAoIACAYmJ+eJkuWGNDIr8PAwwAFBAAQNFwM2m/8j3AhfszxgBAAQEAFIkZszp2ktRStvVKRgEBAAoIAKBYRMLynqC/dHbHjZEGAAoIAKAIuJf9JUotDS0dOzLSAEABAQAUAauAS5QixmVYAEABAQBMuYbZF7SoHN//8RoecCM6AFBAAABTrqow8jZJ5X9/RGhvY7QBgAICAJhiBQ/2rIgFNe04e3a6nhEHAAoIAGBK5+W+e4UsamR1OG0XRhwAKCAAgKm1W8WULY/sznADAAUEADBFksmF0yVtWzEFpHLO9gAABQQAUHz6XbtV0v4/dFFAAIACAgCYuh1/WFETcpN2443oAEABAQBMnUo7IxCNzWzfimEHAAoIAGAquO1UaYscFmxnBh4AKCAAgKlgvn0FLvR2DDwAUEAAAJNt63StpNkVuOQUEACggAAAJlvzmtrtKnHfH0jbM/oAQAEBAEyy0CtzIu6BUUAAgAICAJj8mXiFXorkvo10eYQVAAAoIACASe0fFXsz9rSm2U9tzhoAABQQAMDkVpCKvRQpLDiXYQEABQQAMLmsYl/IZ2FkS8YfACggAIBJ5bMqdskreNkBgAICAJh0s2en6yVrrNTlt4ACAgAUEADApOkbqa/oCbh7Rb6AEQAoIACAKdrhe1jRBcRknAEBAAoIAGCyhAoq+wyIRAEBAAoIAGDyJuAVfw8EBQQAKCAAgMliQcVfglQbi30jxpoAABQQAMCkCBOVnkChaijJegAAFBAAwGRwi1V6BFalKCsCAFBAAACT00AaKz0BCykgAEABAQBMUv8ImHxX8IsYAYACAgCY5Lm3R4mAMyAAQAEBAEwWJt8BGQAABQQAQAGZLM5ZIACggAAAJt4u6RpJtZUeQ8glWABAAQEATLwZK2qYeEuygCeBAQAFBAAw4aqDoI4UJIVWTwgAQAEBAEz0vHskqCYFSebkAAAUEADAhBeQwggTb0nuQQ0pAAAFBAAwwaqqOAMiScYZEACggAAAJl5YoIC8jBwAgAICAJhoHjEm3hQQAKCAAAAmqYC4V5ECBQQAKCAAgEkRCQpMvCXJKCAAQAEBAEw4D7kH5KUgKCAAQAEBAEw8C5wQXq4gAAAKCABggvtHwYdJQZIbOQAABQQAMNEKgUZIQTKjiAHAVOOpKBi9rdO10dXTdvEg2EmuzUyqk7mbB92hhS/I/cmerrYnJeMSB6DYJt6BDyskBzdRQICidXmkYbMndjALtrNIMEuhbyZJLutXEHZFPPLIqmzjP6RT2Y4pIChv6aposv69kn9I/TpEgepMkuyVaY3cXCaTzBRNdOSl9j+ZBdeHYeGanq75T5AhMPWCQjjsxklvOWdAgGLSlFz4pjAsvFNmR0lP7yVFpr+8rb4y1zC55KZQoaKJXK+UuTk0+0lvZ//1UpqvVkqQEQHWJZbMvMtd35S0zcavYfZPuV8TCfySlcvbHiZVYAoP8h4+SBK6IZ9NHU0MwNRpnJnZJ3A/xd3euUlzDOkhC8LP5pbPv51UKSAoddsvnhbtGfiWpE+M88p2t7tdlO/qv0pKcz06MIkaWjJvCAL9s9JzcOl3PdnUcawRwCTbJV0TzdYfJws/Kdnh47pZmzrynducK51UIGgKCEq3fFwjae4E/pZnJX2n1oLvdnbO6yN0YOJFkwu2lQdPkoRfmc+2nUAOwORonLOoORgaOtNlp0pKTuCU9rJ8tv+DXJJVGrggGK+epPQO/HSCy4ckbSWpY42HTzQmMqdJF/NiMGCCRYZruPdB4jG8wCSZPTtdH423t9nQ8JMu+/LElg9J8pMb43UXkjwFBCWmMZE5Ta6TJvFXzjTpO9FE7h+NyY7/J6VZH4EJMlJvnG18yWoiACbSxdXRRPupq0fqHpfZAkmxyfrNZjozlsy8izGggKBEzEguTJh0/hT9+u3M/bJosv6P0ZbMWxgNYPz1LO3pEW8Bl0x51gZgYkSTCw6NJnIPSfZ9k2ZPxRburm/Nnp2uZzQoICiFFSEsnCMpOqUfwn0vBbqvMdG+KB5Pz2BUgPGUHpHUX+kpuCggwHhr2Pz8zRoT7T+RB0sk7TjFH2fLvpHazzAqFBAUuebmxY1m+miRfJyIyT4/aHWPxhILj2d0ACbf4xwCGQDjKBrvODEYjjxiso+oeB5udAb3l1JAUOQK1f3vk6yxmD6TSbNd4W+i8cwvGucsamaUgHHYrph8K5D1sCYAm26zzRZtHk1kbpD55ZISRba327wxvupwRokCgmLm9t7inTHp/TY4/NdYvP3tDBSwyQ2EybcZZ0CATRRLZt41Ehn+q6Qji3f6UMRzG1BAKt72i6dJOqi4Jwzaws1uiyUzF3FKFdgkFT/5dhuhgAAba+t0bSyZuchdV0tqKfK5wzsYMAoIilRDz5q3SKothXXVXWc0JnK3Ns1u35KRAzbmgMy3/ypQwoCN0TyzfZdof90f3XWGSuNF1nOYL1BAULRfEPjupfV5dUBYsL82trQfw+gBY+RaxVEvkmNFAMYmFu/4SCG0P0nataR2eQXbg9GjgKAYVwDTG0pwEtVkgV0TTWbaJTdGERhtgffllZ5Brdly1gRgtC6PRJOZdjf/iaS6kpsuuO/EGFJAUJwb5+alO5dSKprs+CUvHAJG291V4ZNv7+nsnMcb4YFRaJyzqDmaePoGuVKlugxmtjkjSQFBcYqW9Kd3ndQ3UndPbOaCrRlKYEOt3V6s8AReZC0ANqyhJfMGGxq+R9LcUl6O0L2R0aSAoDgPyOWwce7uYXB/U7z9AMYTWM/B2ILKnoA7BQTYkFgy864g0J+kErxE+7UznFL/kpUCgnLe15TJciRCsyXRePtJDCmwdpFIobIn4OYUEGB9E4J4x8fcdaWkhjJZpAZGlQKCIuTSjDJanGkyuyyaaP80Iwu83qqmNctf2uwrdn9HAQHWVT4S7V918x9JqiqjxaKAUEBQjEwaLLNFikj2XZ6QBazFw+khSSsrd3/HGRDg9S6PRBMd33fZl8twqx9kfCkgKE69ZblUrlRjIvNjKV3FEAOvsqxSF5yngAGvsf3iadHE07+U/NRyXDxz9TDIFBAU5wG5bDdOk32kMVF3pbZO1zLSwCsH5Gcrd38XPM0aALwkGl3QFOsZuFXSCWU8x1nNSFNAUJST9DI9A/Lv5XtXtL/2t3PmLKpjtAEplJ6o2GV3PckaAEix2Ddimhbc6NJ+ZT7J4QwIBQRF+vVABWycdkTv0NDveGEhIEkVOwlf3dc1r5PhR6Vr2Pz8zbxm6FZJ+1TA4vYy4hQQFOXc3J6vkAU9fPVI3Y3xeHoGg44K3+gr9QzIk5I5449KFo0uaApGIjdK2rMSltddzzHqFBAUpbBiJiMmHThodTe0tGR4LB8q2ZMsN1B5Zsw8P65pwe1yvaVylrpiv3ChgKDYt83K2jhNOmAkECUEFaunq/9pSSMVuLNjIoLKLR/JhYlIGLlF0m4VtuiPM/oUEBTjChDxits4Xdp/OKJruDEdlSk9IlXgZQnGGRBUpsY5i5ojHi6RtGuFLfpIT1f0GdYACgiK0Kpla5ZKGqi4BXcdtHpw+HLp4mrWAlQer8CzAU4BQcWZPTtdr6Hh31Zg+ZCkZ6VTh1kLKCAoSulQ0mMVOQUzvTOWyP9YSrMdoML6tz1Uacs84iMPMfKoKNsvntY3Une1SQdU4uKb6Z+sBBQQFLf7K3ci5qdEE3XfYhVARe34XX+vsEXO9mXP5RG8qCCXR6K9Az+VNLdSEwi9cuc2FBCUxrcEbpW+kZ4WS7R/lTUBFbTV/62yltf/ypijgtZ3i8af/r5cJ1X0Xk66j3WBAoIiNhIJKn4jddmXY4nMF1gbUAlyif5HJA1RuIDyE010ZGT6r4o/rA+Gf2ZtoICgiK1e/oV/yLSKEqKFjcn2k1kjUPYeTg9JerSCtm0KCCpCLNnxeUnzKj0Hk/8jn5+/ijWCAoLi3lRd7n8iB5m5/aghsfBtRIHyP0BXzlmBiAUUEJS9xnjH0e6+kCQkN+P+DwoISmJjlf2BFCRJtYHCq6PJhdsQBcp7m/dKuRF9cFVn46OMOMpZtKXjzWZ+uaQIaUiS7iYCCghKYk0IbySEVyQUhtdFowuaiAJly4K/VMZy2kO8CwDlrKUlM1uB/1bSdNKQJHnVSDVzGgoISkHP8sEHJGVJ4l+TFu2s2uAq7ZKuIQyUo5qw7z5JI+W/KYf3MNooV/F4esZwoOskzSGNV/x9xYqzXiAGCghKQjo02e/J4T+4Dop2132fIFCOurrSqyU9VP6bccClGChTl0cGre7nkvYgi/9gup4QKCAoIaGFN5DC62YvH40m2s8mCJTlcdpU9vd+RYYjnAFBWWqMP32BSe8iidfs10Ln8isKCEpqrh2p+r2kAkm8bneWaUy0v4McUG5CebmfHXhu5covPM9Io+zKR7L9ZDN9jiReJ5/rarqXGCggKCG9y87ulvRHknj9dmKyn8VmXbAVUaCcVI/U3FXmi8jlVyg7sUT77ub2Q5JYC9NNPHSCAoJS3HZNl5PCWrV4oXD17NnpeqJAuVix4qwX5CrbMwTuTgFBWYlGFzS57EpJHIvWNodx/YoUKCAoQUOFkV+Jy7DWZY/+kfqLiQHldcQu3/tAAm5AR1lJB5oW/FzSdmSxNt4zo6aae1kpIChF/d3nvijXnSSxjt2b/JRoov3TJIGy6R9etk+/W57rmscb0FE2ovHar0k6iiTWdXy2q5YuPWuAJCggKNm1wn9BCOudsl3UFO84kBxQDoalGyV5+U1GdJNkzgijHMSSmXfJbD5JrG+jt18SAgUEpbwNV9dcKWmIJNapOrTwFw2zL2ghCpS6vq7W5ZLK7kyBmXEpBspCNLlgW3f9VJKRxjp193RFbyEGCghKWM/Ss1aai5cSrn96s3kwUvip5BwQUAars8ptsl4Iq0aWMLAofekqefAzSVGyWO9O7AqeflVaqogAa+Oyn0r+TpJYr6Ma4x2f7enSYqJAsWtpyTQMWZh0q4pXWaGlIDWYghnyMGZhONutfL6PMun+3hfOWcGoo9RFk3Vfl+ttJLF+ocKfkULJ7aeBtbm4OpbIPevSLLJYr0Hz8G25rvl/IQpMttmz0/U9XrdVpGBbmGtOaL55YGpxtxbJ45ISkrdI1iJpWmWk4pLpJ/LgvHy8/3k9nOZyUpSk2MwFB3sYLJEUIY31+ns+m9qdGCggKBPRZOZ8ubjpbcOeqA715u7uVC9RYDxNT5yXrPHIDgWzrcx9C7NgTuja0sy3lDRH0maktP42YtJyl56V6Xm5nnPXc0Hgz3oheD6cNvIsZ0pQjGbMPD9eFUb+xpeAo/rK4fSebOq7JEEBQdkUkIXbyMMnxL1Co9iS/Mf5zraPEwTGKhb7Rsyr1mwni2wr+bYybWvSLi69SVz3PRlHwVWSPSX5U+Z6xN0elheeqo1U/bOzc14fAWEqenNjfOFvzfxYstigvshI3eyVK8/oIQoKCMqphCQyN0g6kiRGcciQTunJpn5OEljrthRd0GTVkd1C024m381Mb3RpB0lx0ilKBUnPSnrM3R810z/c7G91Ch6kmGBCv5RItJ/lsgtJYlR+mM+mPkkMFBCU3Y4w826XriKJUclbJLJ77sWznyWKSnZ5JJp8cqtAtou77eWmN5r7Li7bmX1u2Rw4X5TrAZkeMPMHQvnD+c75T5EMxqF87O6y+1Ux92xtojB8S757/gMEQQFB2UlXRRO1z0i2OVmMapO6NZ+ddzgvQKsUbg2bLXhDJBLsIwX7uGsfme8qqZZsKk6X5H+Tgr+6hQ9EIrpn1bK254gFYzreJuvvk/teZDGqGeyf852pvQmCAoIyFU12nCP380hi1JPS0/LZtu+RQ/lpamqPhjWRvc3DA+Tay037SuKFlFiX5eb6s0wPuAV/mB7pu2fZsnQ/sWBtYonMf7v0JZIY5ZFW/sGebBuP36WAoGwLSHRBk6YFz0pqII1R6XMP9+jpmv8EUZT04c2aZ2beOFLQwSY7QC+Vja3JBZtgRGZ/M9d9ocL7TMG9+Wzrk8SCWHzBnm7B/ZKqSWNUlubjA9vxmG0KCMpcYzzzDTN9jiRGvWHdncsOvF1Kh6RRQmU7uWBbKXK4uR/g0iF66VG3wERaLtNdki2R7OZ857yniaTCbL94WrRn4E+SdiWM0R5j/Qu5bNsikqCAoMw1N2fmFKr0lPh2ZtTc9dmertS3SaJoR8iaEhfsWvDwYDMdJOnt4nIqTL0n5brNA7u1EOq2vq7W5URS3qLJjgVybyOJUe+7e4JhbblqVVueLCggqACxROZnLn2AJEat39326OlqfZwoikPD5udvZiPBXLmOMtk7JCVJBcV9kPZHpOA2WXjzNEWW8AjgMisfLR1vVuD3iS/3xrBRWHu+s5WXJFNAUDEFJN6xh5v/hSTG5M58duAQLsWaKukg2jJtT1lwuMwPl+wgDvQoYSMm3e+ua+ThEh4/WuK2TtdG++r+T6adCWPUhqpDbdPdnVpGFBQQVJBoov0myY4gibFsZf7JfGfbDwlicjTMvqAlMlw4xqUjZZoraTNSQZl6wt2vMwuuz9f336ln0muIpHTEEpm0S18hiTEdT3+c72z7OEFQQFBhmuLtB4Rmd5HEmKwsWLDz6s55WaKYoAP5rAu2Uhi+2+XHy3WApAipoML0uXSLmV8bRqqu6l12djeRFK/GeMcOZv538c6gsSiEhcKbelec80+ioICgAkUT7TdLdjhJjJ5Ll/RkUx8hiXFcD5MLtjVFjpX7iS7tx/4MeEVo0r0yu6Kq4FdwuQrH0fI4jvr/9mTbPkoSFBBUqMaZC/a2MLif9WeM+04LD893zr+VKDY6QmtMXrCPKTxeruMl7UgmwIbLiEt3B2ZXBsOR36xc+YXniWSKj6GJzAdM4gV6YzMsC3fKd85/iigoIKhg0WTmOrmOJokxeSzfWLebnjhjkChGr3lm+y6Fgk6W2cniRYDAJrV4yf8o2ZUWhFfkls9/hkgmeX/WvLhxpGrgHybNJo0x+UE+mzqVGMpHFRFgoxTsSwr8KErsmOwY7R04Oy+dRxQbOkhn5oTV9l65n1gItT9rGTAuTLK3Snqrh0FHNNnxgEmXFiLBz7lnZJIOnVUDGcrHmA1ZEC4ghrLbGQEbJ5rIXCXp3SQxJgOS7ZrPtj5JFK9Zn6ILmmyaHevSByU7jP0TMGkGzXWzy36aT/T/Vg+nh4hk/L18+fJ9kgLSGMNE1fxbuc62M0iCAgJIkpoSC3cLFf6FnenYuNs1PV2t7yIJSbq4Opboeac8/Jib3iHe0QFMtRUm+2Vo/rOeztR9xDFe0kE0WXe/XG8hizEZGA5HtuvvPvdFoqCAAK/g7egbveUdnu9M3VKpi9/QknlDEOjjkj4k3kYOFKvH3eynNQX/MU/S2tRjZfuHXHYJSYz5YNmRz7amyIECArxKc3NmTqFKj0qqJ40x+Xs+u82bpZMKFbPEW6dro331x8rCT3KJFVBSQslvlQc/yHf1XyWlR4hk9ObMWVTXOzj8qExbkMaYdAXDvsOqVW15oig/vKwLm2RgYElPbf3cepneThpjkqydkX9+sO/m/yv3BY22LNirruGItmnD1ZfI9CHJtqV8ACXFJNtWphNrp1d9vHbG3ER99PDH1vQuYWI4CkHtoV+Uictux+7s3Iq2u4mhbHcqwKaJx9Mzhq3uMZdmkcaYZCMjdTusXHlGT9kt2dbp2lhf/clu/hlJezLUQNkZkXStu/+gp2vNTVI6JJLX22yzRZuPRIYflTSdNMbA9Y9818BunG0rX5wBwSbr7799aNqMuTmJb3jGaLrbSDjYv6RsXk4Ym3XBVtOmHza/drj6ZzK9X5RSoFwFknYysw/UTq/+cG394XXTmo9+ZLDnpgGi+bfqhkO+bbK9SWKM/cP8g4N9X3ycJMoXZ0AwTtJBNFn/R7nvRRZjssYikZ1yL579bCkfKqLJ9kPk9hnJ3iW+2AAqVb9klxYiftHqF1P/qPQwYvEFe7oFfxZPihyrG/LZFC86LnNsFBivAhJKhVZyGLNaFcKvl+Qn3zpdG0u0fyia6PibPLhFsuMpH0BFq5f81EhBj8QSmT80JduPlbxiv+h0RRYxzxqzkUjg84ih/HEGBOOqMdFxtcmPI4kxKRSCyG6rl5/9SCl82OnxjplVgc6U+6ckxRg+AOuZhf9D5hdNr1pz6bJl6f5KWexoMnOYXEtYAcbsu/ls6nRiKH80c4yrSFV4hqTVJDG22CJeSBd9uYx37BBNZC6uMn9G7m2UDwAbZNpZsu/3jdQ9H012LKhvOa8i7gtz11cY/DHr1GD4RWKolF0DMM6i8UxKpnaSGNvxytzenOtq/WuxfbBYfMGesuDzLp0sLrECsGmGTPpV6Pa1nq7WsrzJuDHefpSZXc9Qj/EgKJ3Sk039nCQqA2dAMO7yXQMXSvobSYzty4DQlC6mD9QUbz8gFs9c4xb8n0sfpHwAGAc1Ln3QzP8ZTWYunzHzgjeW3c7cLM0wjzU03dGTbb2MICppyIEJmryGZneyjo2NB3prz/LUH6fuE6SDaLL+RLmfI2k3RgTABAslXa0wPD/fPf+BUl+YWLL9OHe7mmEdk6GwUNi9d8U5/ySKysE3mpgQa/qXPFdbP3cLmd5MGmP4RsA1Z7BvyRScgnZrStYdO2169S8kfVZSktEAMBm7PUk7y+yTddPnzq2bcXjXmr4lj5XmorhNm37PLyTNZFjHtAJ8vad7/q9JovI2fGBCNGx+/mbBcOQfkuKkMXqhgv16s/PunZzflg6i8fr3yvzLkt5E+gCmfBov3RW4fzHX1XZnKX3uaKLjvZIzkR6bx/P1A7vpmfQaoqgs3AOCCdP7wjkrzMXzvMf8rYCnJuEQb03J9mOjibo/yfxyygeA4tkH6kA3uyOWyPwhFm9/e+l8cG9j9MbsdMpHxW7nwMSKJjLXSzqKJEbfDgoR7TIxbxJ2a0pm3hm6pSUujwNQErvEJQqDVL679f+K9jiXXHDoSy9kxRgK24/znW0fJ4jKxBkQTLjqUP8l0yqSGP1uOVLQ58f/ALnw8Gii48+h2+8oHwBKaJd4uAL/czSZubyhJfOG4uxIAWf7xxbYC1rjZ5NDBW/VRIDJEItnPuqmH5PEqA0OhyPb9Hef++Km/qDmme27FNy+IteJxAqgxIUyXelheE5P1/wniuEDNSXbdw3d/sacagz1w/3onq62G0iicnEGBJMi15X6iaSrSWLUplVb5DObVDyaL9wimshcXAjtb5QPAGUzb3GdaBY8Ek1kLp4x8/wpf8iJu82jfIzJDykfYIPBpKlvOW9WdVD1kKRm0hjV1rmqJhzYsqsrvXos/6xxzqJmGx5uletMSbUECaCc95MKlclH676pJ84YnOxf39ycmVOo0pOSahiMUdW1F2xo2ptyuc/nyKLSv0kAJkl/97kvuvQ5khjtflpNg6r72Gj/+pw5i+qi8cx8Gxp+Sq4U5QNAJewnZWqP9gw8GEssPH6yf32hys6kfIxhtGQfpXzgpe8OgEkWTWSulPQekhiVR/PZ1p0l8/X9paZk+7Gh22JJWxMZgAp2Xyj/Qm+27Z4J/01bp2uj/XUviLP6o51yXpzPtn6KHCBxBgRTYMTtdElZkhiVN8Rmdhy8rj+cMSuzczTRftPLT7aifACodPsGsj9Ek5nLo8mF20zkL2rsrzuR8jFqT1aHzpPCQAHB1Onral3ubh+W5KSxYV7QJ1/7vzXMvqAlmsh8L1LQg5IdQUoA8AqT60R5+HBjIvMVbZ2ekMtRA4lv80dn2E2ndHeneokC/95IgSnSmMhcaNJZJLFBQyMa2bIve26nlK6KJus/JvfzJLUQDQBs0FOh2Zm9na3XjtcPnDErs3OkoEeIdlQTzbNz2dSFJAEKCIrExdXRxKq7JHsrWWyAq80i+qOHukjSrgQCAGOc8Liu9SA4I9857+lN/VmxZOZb7voMqW7QTfls61Ebuo8RFBBgUkUTHdtJ4f9J1kga69tQfbXLZpAEAGySAZM6cvUD7XomvWZjfsCcOYvqeoeHX5CriTjXKzvitntfV+tyosBrcQ8IplQ+2/qky/gWaZ385f9P+QCAcVDn0lei/XUPNcY7jt6YH7B6cOR9lI8NCiWdQvkABQRFqyebutSkS0libThJCQATYDszvy6aaP9Nc3Nmzlj+oVv4AeLb0KHLOvLZ1M0EAQoIilpVqNMlPUoSAIBJnCkfX6jyh2PJjjOl9AbnRNMT5yUlO4Tc1pOodE++M/plkgAFBEWvuzvVG4Y6TvIe0gAATOKUudHdvxlL1N3ZsNn5O63vb0a86n2SImS2Tp2RQvVJ0qnDRIENFFWgeMSS7ce521Wsm8CUcplyCrVagfVJ6pOHq/7j0DEi06uf6R8qL1Po8hozm/7vn+RVkhr+/d8WUWCNco+aNN2lGa/6c2BqrZH7V/Nday6Q0iOv/cNoInOvpH2Jaa2Gzf3wXFfbnUQBCghKTjSZaZcrRRLAJgslZSV1y61bgWfNrUvy7tDVbYF1mRU6VVDeA+UL5r2NwVDfsmXp/kn/8iH2jVgk4tOHbHhGoHCGgshmLo8HZi0eelymhMsSgbzFX3oHTlJSjCHGBPmLQvuvfHfr/72yjs66YCsvFJ5m7rSOby3czujpav0WSYACghKVDqKJuuskHUkWwHqtkLTU3Z4LTM+5h0vd7PmI+7Me8aW55c0vlPWlENsvntaYX7OlBYUtLIxsGZpvZeZbym0LSVtK2kpSLasJNtKITBc2VFd/denSswai8cx8mc4nlrVOJy/LZ1u5OR8UEJS2htkXtAQjhT+/PIEAKpj3yILHFfrjZv5YKHtMgR63gfDxfH7+KvJZv+mJ85I1Xr1jGPiOctvRpTeYfCdJ20qqJiGMwmNu+rC5LpK0D3G8zl+nVw3sPxVnTkEBAcZdLNG+u8vukVRPGqgAfZI/JNnf3P3vgQcPDQfD/+zLnttJNBMhXdUYr9/GA70h8HAnk+3m0u6SdqaYYC1G9NLN58ybXj2LXCWFb8l3zn+KMEABQdloTLSfYrKfsq6izDwr6S8m/7u7PegK/9rTNfiUlA6JZortkq6JZaftIkV2DxXuYQp2V+C78+I54HWGJR3D+z5AAUFZiiXav+oynimOUpWX9Ee5/hgEfv+QF/7IWY0S3A/NXLB16LavQnurmfaV9GZJNSSDyuWn5bNt3yMHUEBQrjs5iyU6LnHpg2SBYl9ZJT0k6S5z/XGkSn9c/eLAo5zZKEPbL57W0DP45oj5vi7fV6599dKN70AlTB878tlWnlYJCgjK3C7pmmi27kaZeAMtikko6SEz3S7XHYWqyJ29y87uJpbK1NycmTNSpUPMdIhch0jamlQqgVfadOo3+ezAiXyxAgoIKkLD5udvFgxH7pO0PWlgCj3o7rcGFrmjUD18Z+8L56wgEqxNNLlwGwv9EJkOCeWHmjSbVFDi/thQU33w0qVnDRAFKCConAN6omM7ye+VFCcNTNJecpWkJRbajVXuN3Z3p5YRCjZGQ0vmDWaaa6ZjJB0kqY5UUEKeHdHIW7mHDRQQVKRYS8dBHviN4gVjmBih3B4w8xsL8ht7s9veL51UIBaMp9mz0/Wrh2oPsSA4RvKjxOVaKG65SOAHrFze9jBRgAKCyi0hycy73HWlpCrSwDhY4243B/KrRiKFa1cvP6eLSDCZmme271II7Wi5HS3zA/XSOyeAYjAQuL1jVVfrXUQBCggq3svvCLlEUjA1n8DZhEpbv7lulfkVwUj91StXntFDJCiKfducRc3B0NA75Xaim44Qj/vF1Bl2t3f3dLVeTxSggAD/OlDHM58x07dIAqPUJelqd7+qJ1p/q544Y5BIUMyi0QVNVhO8S9IJbporaRqpYJKEbv6Bns62XxIFKCDAa8Ti7V9zsy+SBNZhtcmuDj28rKdrzc1SeoRIUIqamxc3jlT3v1MenGQv3TfCmRFMpE/ns6nvEwMoIMA6NCbaF5ns8ySBlxUkv82kS6t9zW+6utKriQTlJBpd0GTT7NiXXtBqh3E8x7hynZPvSi0gCFBAgPVKB7FE3f/ytvTKPmS69Aczv9Sra67sWXrWSiJBJWiMd+wQWHiKy06RtC2JYBOnhrzlHBQQYPQujzQmnv6RSR8mi4qyXKZLwkLhx73d5zxGHKjgDm5N8cz+odkHJX+/ZI1kgjFOCy/IZ1vnkQMoIMCYpINosu5/5PooWZS1UPJb5cEP8l3Rq6VTh4kE+A9bp2ujffXHysJPSnY4gWAUU0LOfIACAmxSCYnX/UCmj5NF2XlKZj+qGqm6ZMWKs14gDmDDYvEFe7oFn5T8ZM6KYB2Twa/lsqkvkwQoIMAmcYslFn7L5aeTRekPpqTfh2bf7u3sv15Kh0QCjF08np4xFNS/X6E+KfO9SQQv72DTPdnUV0kCFBBgvEpIMnORu32WLEpSr6RfRAJfvHJ528PEAYyfaMuCvSwIznTp/ZKqSaRSy4d9pSfb+t8kAQoIMN4lJNHxFZe+QhYl43G5fqSh8Af5/PxVxAFMnOnxjpnV5p9y6TOSNiORCjo4SvNy2dSFRAEKCDBBGuPtp5vZYkkBaRTt7uhWV9jRk039XjInD2DyJJMLp6/x8IMyO1PuO5FIWRty8w/zhnNQQIBJEEssPN4VXiapljSKRijTlSqoI9+d+jNxAFPNrTGeOdJk82Q6hDzKzmrJ3pvPtv6eKEABASarhMxccLCHwdWSoqQxpYZM+lWhUDi/d8U5/yQOoAj3l/EFe3oQzJfrBOYLZWG5eXh0rmv+X4gCFBBgkjXF2w8omC0xaRppTLqc3L87YoXFfdlzO4kDKIF9ZmLhbqGH82U6UVKERErSo7LgqHznvKeJAhQQYJLFZi7YWqFd57I3ksakypv0TQ3VfDOX+3yOOIDS0xjv2MHkKZk+KKmGREpmpndHwQonrl5+ThdhgAICTPbBc2ZmHwv1O0lJ0qB4ANg4zc2ZOYUqO0fyj1NEit4P8tnYZ6RTh4kCFBBgkr18A/rPJNWTxqRYLdN3tCbM8ChdoDw1zW7fMhyxcyV9TFIViRSVNSY/NZdt+ylRgAICTIHGeOYzZrpIPIJ3UoqHSd/wwfAbFA+gMjS0ZN4QmL768j0i7GenmEvLZMF7ejrn3U8aoIAAUyAaz6RkaieJCTcs6Scjbl/p62pdThxA5Wme2b5Lwe0rPDVrStvHbcM+8oH+7nNfJAxQQIBJlw6iibpvSTqNLCb4cGf6tYd2bk9X6+PEAeDl++0WSno7aUyaEZPOy2W3+Zp0UoE4QAEBJtsu6Zpotu4Smd5PGBPq3sC9dVVX2x+IAsBrRZMLD3cPv2nSLqQxofKhgqN6s/PuJQpQQIApEI+nZwxZ3W8kzSWNCfOQh97W0912HVEAWL+Lq2PJ/Gnu/mVJzeQxYb6bzw58VkqHRAEKCDCJotEFTTYtuNal/UhjQvYWq0z21Vxn/3ek9AiBABjL/lm1QUquz4mXwE6UX+SzAx9i/wwKCDBJmpsv3KIQGblJpp1JY9yNSPpBWF34cu8L56wgDgAbXUQSHdtJ3iHpPaQxEfzKfHzNyXo4PUQWoIAAEyg264KtvFC4VdK2pDHexzK7PTA7c1V23t8JA8C47bdnZg5R6N922RtJY9zd0FBT/d6lS88aIApQQIAJ0Bjv2MHMb5U0hzTG1VKTn8tLrABMnFfuD/m6pBnkMa7urA71zu7uVC9RgAICjKMZszI7VxV0i0uzSGPcDMm1sGFa9Xl8ewZgMrx8FnuRuCxrvN1rQzVH53KfzxEFKCAA5aMoufSHqsA/tXJ528OkAWCyRZMLDlUYfJt7+cbVXwpB4R2rl5/TRRSggACbIBZfsKdb8HtJLaQxLlbKLJXvnPcjyZw4AEyZ7RdPi/X0n+OyNkk1BDIeEz1/ZCgsHM7b0UEBATZStGXBXgqCmyRtRhrjsge4oqDgM6s752UJA0CxaEoufFPohf+R7K2kMS4eGw5HDqaEgAICjFFDon2/QLpBskbS2GRPyYJT853zlhAFgOJ0eSSWfOYMd/+apOnksWlceji04FC+cAIFBBilxmRmX3P9XlIDaWzaMchM35mmoK2zc14fcQAodtHkwm3khR9IdjhpbLIHw6rIob3Lzu4mClBAgPUdfF667GqJpBhpbJKnLLSP5bpb7yAKAKXFLRbv+IgHulCuJvLYJH/1murDepaetZIoMFUCIkAxa0q27/ryPR+Uj004ckv6QY0P7E75AFCazHNdqZ+M+MjO7nYNeWySPWxo+JbGOYuaiQJTtkUTAYpVY7xjh8D8Dh61u0mekYUfz3fOv5UoAJSLWKL9Qy77jniB4ab4iwbDw/L5+auIApONMyAoStFEx3Zm4W2Uj01hF9da8CbKB4Byk8u2/dTd3izpPtLYaHtqWnB9c/NiHuyCyZ+hEAGKTdPs9i3DEbtT0laksVG6zfy/cp1tvyUKAOUtXdWYrG8z9y9LqiaPsXPprsaa6ncsXXrWAGmAAoKKND1xXrLKqm+X+06ksVGb9K1VhaoPrVhx1gtkAaBSNCXbdw3dLpW0O2lslJvz8YF36uH0EFFgMkSIAMWiYfYFLZGC3SFpZ9IYsyHJ2/LZgdMGBub3EAeASrKmb0k23nT0JUOFMC5pLxIZs+3q+mu2WdO3/2+l2504MNE4A4KiMHt2ur5/pO5ml/YjjbFuxfZPFfSBfHfr/xEGgEoXS2Te46b/4XG9G+W7+WzqdGLAROMMCIrAxdVBXeFqSYeQxVjLh/94emTg3d2d5z5HGAAgrelb8o/a6Uf8Wqb9JM0mkTHZe9r0uRrsW8Ij20EBQTlza0ws+R+TnUAWYzvGyvy0fGfbV3p7bx8mDgD4t8G+m1cN9h3wk7rp1S7p7eKKj1Ez6eC6GUf0rOm7mSeMgQKC8tSYqL/QZJ8miTF5LFBwRC6buoEoAGBdbg/X9C25vXb63HslHSHeGTIWR9TVH/Hsmv6b/0oUmKCiC0yNaKK9VbIMSYzJL6pDndrdneolCgAYnebmC7coVA1fIdlbSWPUht3t3T1drdcTBSggKAuNifZTTPZT1sFRGzSzVK6z9SKiAICNsP3iabHegQ53nUEYo9bvFhza0znvfqIABQQlrSHZ8c7A/SpJVaQxKs8qDN+b757/AFEAwKaJJjMfl+vbkmpJY1QTxRetyvddtayNh52AAoLSFIsv2NMtuEvSdNLYMJf+UNDICX3ZcztJAwDG9Vj0G0lbk8ZoJov+iIam7Z/LfT5HGhgPARFgsrS0ZGa7Bb+jfIzaD3riA4dRPgBgfOW65v8lrC68RdLNpLFhLnujVw9fpV3SNaSB8cBTsDAp4vH0jOGgeomkHUljg4Zk/ul8tu2r6rq9QBwAMAE72t5bBgb7DvhF7fSaevES3A0zbT2tv2qLwb4lvyUMUEBQAtJB1Yz6X5l0MFlsUJcF4XH5zvm/IQoAmGi3h4N9N988bcYRj5l0jLg3cQMdxPaYNn1uONi35E7SwKbgEixMuFiy7hsmP44kNrhn/3NkRG/OLZ9/O2EAwOTp6Wz9hbm/Q1I3aWzoUKWvNibaTyEJUEBQtBrj7afzyMNR+c30yMBBK1emlhIFAEy+XFfbnZLtK9c/SGP9HcRkP4q1dBxEFNiEIgtMVPnoONLMrxGntDe0J1+c6xz4vJQOSQMAplZLS6ZhJKJfuOsY0livlZLtk8+2PkkUoICgKDQl23cN3e6W1EAa6zQi+Rn5bNv3iAIAikm6Kpqou0jSaWSxXn+v8YH9u7rSq4kCY8ElWBh3jXMWNYduV1E+1qvX3d9F+QCAoiwgI/ls6nQzfV4SZ6fXbbchq/1fyflCG2PCU7Aw3jvtoLY2+LWkfchi7VxaZqG9o6c7dRdpAEDxWtO35L666e94UC89SIXLidfK3jht+j3hYN/Nd5AFRoszIBhX0URdu6SjSGKdHqwuVO+T7279P6IAgOKXy867ygIdLSlPGuuoIPKvxBKZd5MERr/OAONWPjreK/kVrFfr4veH1eExvS+cs4IsAKC0NM9s36UQ2o2S5pDGWq0OzPdb1dn2IFGAAoJJEUu07+6yuyVNJ421bGim6+ojAyctW5buJw0AKE2bbbZo85HI8A2SdiWNtXomrIrs3bvsbN6ngvXiEixssobZF7S47GrKxzpb/qW5ztjxlA8AKG0rVpz1QlhdOETSvaSxVlsHI4VfSmnul8F6cRM6NlG6qq6u6reS9iSL13P5N/LZ1KeltxRIAwBK31DvLQObRQ/4xXBYvZek7UnkdbatnVFTM9h38y1EgXXhDAg2SWOiLiP5oSSxtu6hc3qybWdJ5sQBAOVj2bJ0f76x7t2SX0UaazsCeqoh2fFOgsC6cA8INloskXm3S79hPXqdUNLp+Wzq+0QBAOUsXRVN1F8i+clk8TorLQj3yi2f/wxRgAKCcdE0u33LcMT+IqmZNF6lYG6fzHW1/pgoAKASuMWSHYvd9RmyeF00f8pHaw/UE2cMEgb+E5dgYSNcXB2O2C8pH2spH/KPUT4AoJKY5zpbz3BpEVm8Lpq9Yz1rLiQIUECwyWLJVRdKehtJvLp8uPThXLbtp0QBAJU30+7Jpr4gVxtZvJrLT29MZD5IEvhPPAULYxKNZ06Q7AKSeJUhk07KZ1NXEAUAVK7B/iV3T5s+NzTpENL4j3omza2pPfSqoYFbeD8IKCAYY/lIdGwn03WSaknj38cbM52Uy6Z+SxQAgMG+JXfWTT88kOwg0nhFjQXB3Ia6uZf09y8ZIg5QQDA62y+eVjs4fKOkbQjj38cZd3t3Ppu6jigAAP+ypm/J7bX1h9fI7EDSeEVLGHhysG/J74gCFBCMSrTq4MWS3kUSrxg285MoHwCAtRnsX3Jr7fQj6iXtTxr/YnvW1h/xyGD/zY+QRYWvCUSADWmMdxxp5tezvryi4GYf7Ols/QVRAADWJ5rsWCB3bk7/t5xFInvkXjz7WaKoXDwFC+s1Y+b5cTP/CeXjFS6zT1E+AACjke9snS9ZB0m8IhYWCpdKl3MVTgVj8LG+ubbVTb/3ckl7ksW/yoefmu9M/Q9RAABGa7Dv97fUTr8nIWlv0pBM2qq2PrdmsH/JH0ijYtcBYO0a4+2nm9m3SeKV/jEvn23jEcQAgI05hlhjouMnJn2YLCRJI246sKczdR9RVB4uwcJazZiV2dnMFpLEv44bOofyAQDYeOY92dgnJN1AFpKkKnNdGo+nZxAFBQSQdHF1ZMQukVRHFpKk7+a7UguIAQCwaU4dbqipfq9Ld5GFJGn7oaD2ImKggACKJnLnyZzrVF/yi3x24LPEAAAYD0uXnjVgg+Fxkh4kDUluH4vGMycQRGXhHhC8SlO848DQ/DbxgAJJdmu+sfZoPXHGIFkAAMbTjOTCRMTDuyTtSBpaMaKRXfqy53YSRWXgDAhe0dKSaQjNL6V8SHL7U433H0f5AABMhNWd87KSHS1pOWlosypVfZcYKgdnQPCKaKLjCLnzyN3AVuVlP1fnvD7WCgDARJqe+Gay2oZO9tBrKj2LQpV+t/rF1D9YKwAAAAAAAAAAAAAAAAAAAAAAAAAAAAAAAAAAAAAAAAAAAAAAAAAAAAAAAAAAAAAAAAAAAAAAAAAAAAAAAAAAAAAAAAAAAAAAAAAAAAAAAAAAAAAAAAAAAAAAAAAAAAAAAAAAAAAAAAAAAAAAAAAAAAAAAAAAAAAAAAAAAAAAAAAAAAAAAAAAAAAAAAAAAAAAAAAAAAAAAAAAAAAAAAAAAAAAAAAAAAAAAAAAAAAAAAAAAAAAAAAAAAAAAAAAAAAAAAAAAAAAAAAAAAAAAAAAAAAAAAAAAAAAAAAAAAAAAAAAAAAAAAAAAAAAAAAAAAAAAAAAAAAAAAAAAAAAAAAAAAAAAAAAAAAAAAAAAAAAAAAAAAAAAAAAAAAAAAAAAAAAAAAAAAAAAAAAAAAAAAAAAAAAAAAAAAAAAAAAAAAAAAAAAAAAAAAAAAAAAAAAAAAAAAAAAAAAAAAAAAAAAAAAAAAAQLkxSYol2nd32W/KaLGeyWdbD6vEAW2cmdnHQv2ijBbp0Xw2dXSljF8s3vExNz+XXVP5c/kferJtHy7nZZwxK7NzpKBry2fMtKwnmzqQtbdyxZKZb7lroo5JBXc7o6er9UaSxlRoaMm8IQh0maTYBP2Kpfls6iBJqpKk0CK15uG2ZXRoL1TqyhMUvNbNymgs1VdZA6ioXNsKZc+kJ8p9GasKXuMqn/2RvXzMRCV/caCENHH7aDO/JhbvODXX1fpj0sZkirZk3qJA10uKT+xu9F/THQAAABRFb3fz/4km2luJApNWPpILDlXgt0xw+XgVCggAAEDxMMkysWTmIinNPA0TKpbIvEceXCdZ42T+XlZsAACAIuOuM2KJ+kuki6tJAxOhMd5+uktXSKqd7N9NAQEAACjGEiI/JZpYdX1LS6aBNDCeovFMysy+PVVdgAICAABQtOzw4UBLGmZf0EIW2HSXR6KJju/L1D6Vn4ICAgAAUNz2CYYLdzbNbt+SKLDRtl88LZp4+peSnzrVH4UCAgAAUOxMO/uI3deUWLgbYWCs4vH0jGhP/7WSTiiGz0MBAQAAKAEuzQotvL0p3n4AaWC0psc7Zg5Z3V2SHV4sn4kCAgAAUDotpCk0u6mxpf0YwsCGRJMLt6kyv0vSHsX0uSggAAAApaXeAvttNNnxX0SBdZaPlgV7ycP7JG1fbJ+NAgIAAFB6InL/QSyRSRMFXis2M3OIArtVUqIYPx8FBAAAoDSZS1/hrel4VflIZN7toa6f7LebU0AAAAAqxEtvTa/7KW9NR2Mic5pLV2oK3m5OAQEAAKikEiJ9IJrI3cBb0ytXNJ5JmfSdUpjfU0AAAADKw2HDZrfMmHl+nCgqyeWRaCLzval+uzkFBAAAoBKZ7x0JI/dGEx3bEUYF2CVdE00+fZmkT5XSx6aAAAAAlJftTH5XLN6xB1GUr3g8PSPaVXuNXCeV2mengAAAAJQZl2a5+W1N8Y4DSaP8TE+clxyyujskO6IUPz8FBAAAoDzFQvObo/HMCURRPqLJhdtUqeouSW8u1WWggAAAAJSvaTL9Mprs+CRRlL6m5MI3yQt3SdqhlJeDAgIAAFDeInK/OJrMtBNF6Yq1dBwUevgHyTYv9WWhgAAAAFQCVyqW6Pg2b00vwfKRbD/OA79BUrQclocVEAAAoGI6iJ8eTdT+Wluna0mjRMpHvOMj7vZrSXXlskwUEAAAgIpix0f76q5vbl7cSBbFLRrPpNz8x5Kqymm5KCAAAAAV10F0SKF6za0zkgsThFGM3KKJzAUvv93cym3pKCAAAAAVOcf1vSIe3tsYX7A9YRSRXdI10XjHZZK+UK6LSAEBAACoXNuaBXfF4gv2JIqpl0wunB7tqvutTO8v5+WkgAAAAFS2mW7BndFEZi5RTJ3GOYua13h4s6Qjy31ZKSAAAACYIemaaLz9JKKYfLFZF2xlQ8P3SHpbJSwvBQQAAACSNE1ml0UTmU8RxeRpntm+ixcKf5D0hkpZZgoIAAAA/iUi6Xu8NX1yNCYXvrUQ2h2S5lTSclNAAAAA8GquVDTZ/iMpXUUYE6Mp2X6seXibpM0qbdkpIAAAAFhLCbGPRRN1V8yZs6iOMMZXLNH+odDtNyqjt5tTQAAAADAe3t07OHJ9U1N7lCjGqXwkO8502f+qzN5uTgEBAADA+DA/OKy2P2y22aLNCWNTuEUTmQ53/6bK8O3mFBAAAACMpzeNRIbvamg5f0ei2Bjpqmgy8z+S5pEFBQQAAACjs00QRO6MtnS8mShGL5lcOD2aqPud3D5GGhQQAAAAjHE+rcDvaEy0v4MoNqxxzqLmQQ9/L+ko0qCAAAAAYOPMMNnvGpPt7yeKdWtpycy2oeHbXdqPNCggAAAA2DQ15nZZLNF+FlGspaHNyuw8bLpP0q6kQQEBAADA+DCXXfjSW9PdiOMljTMz+0QKulOmLUhj7Xi7JYCJPDJd6x6mSeL13CI9pACgPHZoSkUTHc357OWflk4qVHT5aGk/xkJdLqmeFYMCAmAKhKYVPV3zHyAJACh7n2hMPJ1srFn0/qVLzxqoyPKRaD/FZD+WVM3qsH5cggUAAIBNZtK7eoeGb23Y/PzNKm3ZY8mOM012CeWDAgIAAIDJta8NR+5obs7MqYzFdYslMumX327OvJoCAgAAgMlm0i6FKt3V0JJ5Q3kv6eWRaLzjhy59hVGngAAAAGBqbR0EuqchsfBt5bhws2en62PJp38r08cZagoIAAAAikNzoPDmxnh7Wb0FPBpd0LR6pO4mdx3DEFNAAAAAUFymm9nVjcn2k8thYepbzpulacHtJh3A0FJAAAAAUJxqzO1n0URmXikvRMNm5+9UHVTdJ2k3hpQCAgAAgOJmkjpiycxFpfjW9MaZC/YOIpE7JW3JUFJAAAAAUCLcdUZjIvO/0sUl876MaDJzmIXBLZLijCAFBAAAACXGZB+KxXO/mT07XV/sn7Ux2X6yXDdIamDkKCAAAAAoUW56Z99I7a0Nsy9oKdryEe/4rLldKt5uTgEBAABAObC3RkZG7mhuvnCLYqtHsUQmbeaLmStTQAAAAFBGXPbGkaqR+5qS7bsWxye6PBJNdFzM280pIAAAAChTJs0OZXc0JDr2n9IPsv3iadHE07+U9AlGhQICAACAcuZqCuS/b4x3HD0Vvz4W+0assWfgZkknMBgUEAAAAFSGejP/bTSZ+fhk/tLp8Y6ZXjN0m0kHMgQUEAAAAFSWKrl+GI1nUpPxy6LJBdtWmd8laQ+ip4AAAACgMplM7S+9NT09YXPVaMuCveTBvZK2J3IKCAAAACqcu86IJeovmYi3psdmZg5RYLdKSpA0BQQAAAB4qYTIT4kmVl3f0pIZtzeRxxILj/dQ10vWSMIUEAAAAOA17PBhs1tmzDw/vqk/qTHefror/LWkWnKlgAAAAADr6CC+d8Sr7mya3b7lxv6IaDyTMrNvM/+lgAAAAAAb5r6Tj9h9sUT77mP7h5dHoomO78vUTogUEAAAAGD0HUSa5Wa3NcXbDxjVP9h+8bRo8ulfSH4q6VFAAAAAgI1pIU2h2ZJoouO96/tr8Xh6RrRn4Bq5TiS04lJVjgtl0oxovKMiV7bQtLPJWbMBAEA5myb5L2PxzCdzXamfvPYPp8c7Zg6Z3yBeMEgBmbxirFkyv7wSB9RYpwEAQIXMY930o1gis1Uum0r/63+MJhduIw9vkrQDEVFAAAAAgPFkLn0llmxvznWu+VxTcvobCx7eZNJsoqGAAAAAABPC3T4bTdRtH3phf+MFgxQQAAAAYBIcxcXoFBAAFc6kt0UTmYsrc9mDG3PZeVexFgAAQAEBMHl2fPn/Ko6br5REAQEA4DV4DwgAAAAACggAAAAACggAAAAAUEAAAAAAUEAAAAAAgAICAAAAgAICAAAAgAICAAAAABQQAAAAABQQAAAAAKCAAAAAAKCAAAAAAKCAAAAAAAAFBAAAAAAFBAAAAAAoIAAAAAAoIAAAAAAoIAAAAABAAQEAAABAAQEAAEDJGSKCovYsBQQAAADl5HcmfZUYipApI/l3KSAAAAAop0mu57KptLvOlBQSSFEoyOzUfGeqrZwXkgICAABQwXq6Uotd+pC4JGuqDcrt/+U7W39Q7gtKAQEAAKj0EpJN/VwWHiV5D2lMidWSjs13tV5RCQtLAQEAAIDynfNvVeiHSsqSxqTqNA/fns+mbq6UBaaAAAAA4KUS0j3/AVn4NkmPk8akeNrdDsx1zf9LJS00BQQAAAD/LiGd858a0ciBkv6PNCbUQ9WhDujpaq24skcBAQAAwKv0Zc/trPGBgyTdRBoTwHRHMOwHdHenllXi4lNAAAAA8DpdXenV+fjAu+T6JWmMH5f9tqG6+qhVq9rylZoBBQQAAABr93B6KN/VerJkFxDGeJQP/9+ebP8JS5eeNVDJOVSxKgAAAGDdzPNZzYslO5a6+zckGZlsTIzK9HSm5kvmlR4FZ0AAAACwQbnO1otM/hFJw6QxJm7S2S+93ZzyQQEBAADA6EtItu2nko6R1EsaozLkZh/IZVMXEgUFBAAAABshn03d7IEOl9RFGuvV527H9XS2/oIoKCAAAADYBD3LU38MC4W3S3qONNZqZahgbk9X641EQQEBAADAOOhdcc4/h8ORfSX9lTRe5dmwUNi/NzvvXqKggAAAAGAc9Xef+6IN1Rwi6U7SkOT6R2Sk6sDeFef8kzAoIAAAAJgAudznc/nGuiNkuqLCo/hjWB15+8qVX3ietYICAgAAgIn0xBmD+c5t/p+k71dmAL6kxgcO6112djcrAwUEAAAAk+KkQj6b+rRcbZW01Cb7WT7bdHRXV3o16wAFBAAAAJMs35XKmOtjkkbKvnyYFuey/R+WTuXljBQQAAAATJVcV+onZn6CpIEyXUQ36au5ztSZUjpkxMemiggATKCbZUFHJS64hyPPMPwAKrqEdLb9tine8Y7Q/HeSYmW0aCPm9olcV+v/MsoUEADFNgmXlvV0zltCEgBQmVZ1td7VPLP9gELBbpBpizJYpEHJPpDrar2S0d14XIIFAACACbNyedvD1a59JT1Y4ouSC9zm5rOUj01VrmdAVst0Q0WOaGhxmR/Mqg0AAIpFd3dqWcPm5x8SDEeulbRvqX1+l5ZFzI9clU09yGhSQNblxXxn6qRKHNBYvP3tLruDVRsAABST3hfOWTF7dvqw/kLd5e46poQ++lPy8B2rsvOfYBTHB5dgAQAAYFIsW5buz3Vuc5ykH5bEBzZ7oGDB23q6KB8UEAAAAJSokwr5bOupJn21qD+m67bIcO2hqzvnZRkzCggAAABKmnkum0q767OSivE9Glfnpw8cvXLlGT2MFQUEAAAAZaKnK/VtU3CCpDVF9LG+m88OvFfPpNcwQhQQAAAAlJlcdt5VFuhoSfkp/zCmTD6bOp23m1NAAAAAUM4lZHnqtsD8QMlfmKKPUJD8tHxnqo3RoIAAAACgAqzqbHtQFjlQ0mOT/KuHZPaBfLbte4wCBQQAAAAVJN857+mwurCfpHsn6VeuluzYfGfrr0ifAgIAAIAK1PvCOStqLZgr6YYJ/lUr3DQ3n239PalTQAAAAFDBOjvn9eXjA++W7LIJ+hXPhGFhv57O1H2kTQEBAAAApIfTQ/nsvFMk6xjPH+vSw5ERHdjbfc5jhEwBAQAAAP6DeT7bmjKzz2l8Xlh4n1cXDlq5MrWUbCkgAAAAwFrlOlsvcvmHJQ1v7M9wt2saaqoP7X3hnBUkSgEBAAAA1qsn2/YzmY6S1Dvm8iH/aU9X9L1Ll541QJIUEAAAAGBU8p2pWxTqUEnZ0f4bMy3uyaY+Ip06TIIUEAAAAGBsJaQ79WdZ+DZJT2zgr7qk1lxn6kzJnOQoIAAAAMDGlZDO+U+NuB0o6S/r+Csj5vZf+WxqIWlRQAAAAIBN1tfVurzGB94u+WtfJNjvbsflulp/TEoUEAAAAGDcdHWlV+fja46V61eSJNOqUHZET1fr9aRDAQEAAADG38PpoXzXwMlynVewyAG92da7CaW4VREBAAAASls6zHfpi+RAAQEAoJwE0eiCJmJYu3x+sFdKj5AEAAoIAADjY46mBSuJYe1iLfUH57p1B0kA2BDuAQEAAABAAQEAAABAAQEAAAAACggAAAAACggAAAAAUEAAAAAAUEAAAAAAUEAAAAAAYNPxIkIAE8ZMW0fjHSeSxFqyUdiZ62q7kyQAABQQABgvroNkfhBBrC0a/V4SBQQAUHG4BAsAAAAABQQAAAAABQQAAAAAKCAAAAAAKCAAAAAAQAEBAAAAQAEBAAAAQAEBAAAAAAoIAAAAAAoIAAAAAFBAAAAAAFBAAAAAAFBAAAAAAIACAgAAAIACAgAAAAAUEAAAAAAUEAAAAAAUEAAAAACggAAAAACggAAAAAAABQQAAAAABQQAAAAABQQAAAAAKCAAAAAAKCAAAAAAQAEBAAAAQAEBAAAAQAEBAAAAAAoIAAAAAAoIAAAAAFBAAAAAAFBAAAAAAIACAgAAAIACAgAAAIACAgAAAAAUEAAAAAAUEAAAAACggAAAAACggAAAAACggAAAAAAABQQAAABAyamSpDrpoTVh+JayaVWRqsFKHdBqrfm/oXBa2Yxloap6oJLGb9iHL6sKgzvZNZU/t0hPuS/jjJqax3rXDL6F0a6UCUXwWPkvZThfoTrKZnEiWsWaW7xGPPhplRduYX4OAAAAAAAAAAAAAAAAAAAAAAAAAAAAAAAAAAAAAAAAAAAAAAAAAAAAAAAAAAAAAAAAAAAAAAAAAAAAAAAAAAAAAAAAAAAAAAAAAAAAAAAAAAAAAAAAAAAAAAAAAAAAAAAAAAAAAAAAAAAAAAAAAAAAAAAAAAAAAAAAAAAAAAAAAAAAAAAAAAAAAAAAAAAAAAAAAAAAAAAAAAAAAAAAAAAAAAAAAAAAAAAAAAAAAAAAAAAAAAAAAAAAAAAAAAAAAAAAAAAAAAAAAAAAAAAAAAAAAAAAAAAAAAAAAAAAAAAAAAAAAAAAAAAAAAAAAAAAAAAAAAAAAAAAAAAAAAAAAAAAAAAAAAAAAAAAAAAAAAAAAAAAAAAAAAAAAAAAAAAAAAAAAAAAAAAAAAAAAAAAAAAAAAAAAAAAAAAAAAAAAAAAAAAAAAAAAAAAAAAAAAAAAAAAAAAAAAAAAAAAAAAAAAAAAAAAAAAAAAAAAAAAAAAAAAAAAAAw8YwIsC7NzYsbR6rWfM7M60lDkmtFZGTg4pUr0z2EAQAY0zF19te3GBmp/oSZakhDctkLPW/f+ru64qQCaVBAgFeJJTLvcelKknjFoyNuB/d1tS4nCgDA6I6l7bu77BZJm5GGJKkvDAtv7u0+5zGiqEwBEWB9ctnUb1y6hCRe8YYq85saNj+fgwgAYIOaEgt3c9kSyse/met0ygcFBFivmlCflfQUSbxit2Co6oampvYoUQAA1qV5ZvsuocIlklpI42WuX+W6UnyxSQEB1q+7O9WrUO+TNEgaLzPfO6y2G1paMg2EAQB4rYaW83cMQ7tZUpw0XrHUp1WfRgyIEAFGY7B/ybJp9UfkzXQUabxiizDQfo31B/y6v//2IeIAAPyrfESCyO0uzSKNV4wE7sfml897lCjAGRCMWk9X67cku4wk/oProGGru7G5eXEjYQAAYrMu2CoIIr+nfLzugDl/VVfbH8gBFBCMfYUZDk+T9CRJ/GcH0f6Fqv7fx2LfiJEGAFSuhpbzd/SRwl2StiKN/zxO2m/z2dSFJAEKCDbKqlVt+UDBeyQNkMZ/srd6zdCtDbMv4EZDAKhAM2ZldrYgcptMW5DGqzyrmqqPSeZEAQoINr6EZOf93aWzSeJ19oyMjNxR33Iep90BoIJEWxbsFSnoTpNmk8arDCoM39uz9KyVRAEKCDZZTzb1XZN+ThKv5rI3Vkeqb21pyXAQAoAK0BRvP0CB3Soetbu2o+KZ+e75D5ADKCAYv5VnpO40SY+TxGv3t77TcKDbYrMu4BpgAChj0URmbmh2o2Q8iOQ1TPp5Ptt2MUmAAoJxtXLlGT1hofAuyXtI43V2VKFwb1Ni4W5EAQDlp7Gl/RhJv5M0nTRe59GqUJ8mBlBAMCF6V5zzTyn4mCRuLnsNl2aFCm9rTGb2JQ0AKKPykWg/xQK7SlItabzO6kIQeU93d6qXKLAuvIgQm2yw7+Z/1NbPrZbp7aTxOnUmnTyt/vC/DPYveYI4AKC0xZIdZ0r6vqQq0ngdl9sHe7Pz7iAKUEAw8SWk/4Db6+qr95JpR9J4nWoze19d/dyla/qX/JU4AKAk59YWTdR3SPqaJCOPtbUPS/d0tX6PJLAhbEAYNy0tmYaRwO9z2RtJYx1HL2lejpcxAUBp2SVdE83WXSLT+wljnYe4q/LZ1Ht53wcoIJh0DS2ZNwSB7pcUJY11bHSmxbnOgc9L6ZA0AKC4xePpGUNWe6VkR5DGOv291oL9Ojvn9REFKCCYErFk+3Hu9hvxkIP1+c30qoEPLluW7icKAChO0+MdM6vMr5e0J2ms00rJ9slnW58kCowW94Bg3K3pW/Jo3fTDI5IdRBrrtPNwWH1Y9Yx3XDPUdzPfGAFAkWlKtu9q0q2SdiKNdRq2QO/Kd6b+jygwFpwBwQRxiyYW/kzyk8livZ4uRHTM6hdT/yAKACgOjYn2d5jsV+Jy4vUf6aXTe7Kp75IExopLZDBR3dYbaqr+S9J9ZLFe20RC3R2bueBgogCAqRdLdnzeZNdRPjboh5QPbPQskQgwkaYnzktWqeo+SVuTxnoNmeuTua7UJUQBAFPh4upoIvcdSZ8giw26OZ+NHSOdOkwUoICgKM2Yldk5UtA9kmKksUE/yGdjn2GnDgCTJxpd0KRpkV9LfihpbGji6I9oaNr+udznc6QBCgiKe+eeyMyVdL14c+wo+BKvqXlfz9KzVpIFAEyshpbzdwyCyDUSL9Ld4NFJWhap8retWtb2HGlgU3APCCZFPpu6WaZPkcSovhc43IaG/9SUbN+VLABg4jS2tB8TRCL3UT5GpV+Bjqd8YDzwGF5MmsG+JX+pnT63QdJ+pLFBTS77YO30Ix4b7LuZJ2QBwLhyi8brUxbY/0iqJ48NKpj5+/KdbbcSBcYDl2BhkqWDaKLuCknvIYtRHiXlX8tlU2nJnDgAYNNEowuaVBv8TK6jSWOUByIetwsKCEreLumaaFftdZIdThijdkvBgpNXd87LEgUAbJymxMLdQoW/kbQdaYx6qnhBPts6jxwwnrgHBJPv4fSQDU07UdLfCWPUDot4+KfG5MK3EgUAjF1jsuP/hQrvoXyMya/z2f4UMWDcay0RYKrUt5w3qzqoulvSNqQxakNm1prrbL2IKABgFLZfPC3W27/Q3T5LGGNyS76x7hg9ccYgUYACgrISTXRsJ/ndkpKkMXou+20wVP0RnsMOAOsWm7lgaw/tl5Jx9nhMBxn7U7X7Yd3dqV7CAAUE5VlCWjJvUaBbJTWQxpg860F4Ys/y+X8iCgB4zbElnjlBph+Kl+CO1eMFCw7gnkNQQFD+B4qXXlR4raQa0hiTNe5+dk9X6rs8JQsApNmz0/V9hdpvye1jpDFmz0VGtP/KlamlRAEKCCpCY7L9/eb2c/FwhI3gvx8OCx/p7z73RbIAUKlmzMrsHCnoV5J4kevYdYeFwoG9K875J1FgovEiQhSNwb4lD9VOP7xLsqMpx2Nl20UsOGVa/REPDfbf/AR5AKgsbtFE3acDtyslbU4eY86vR2FweM+KtgfJApMyayECFJvGeOYMM/GUp408ikj64fSqgc8vW5buJw4A5W564rxkxKt/aObHksZGGZL0znw2dTNRYLJwBgRFZ7B/yf219XOHZDqMNMbMJO01HFa/q37GO+5a03czNxECKFvReMeJgQXXm2kP0ti48hGYn5DLtt1AFJjsyQpQlGKJzH+79CWS2GhrJP9SPrvtN6STCsQBoGyOD7FvxFQz9G2XPkAaG23YFLwvl513FVFgsnEGBMU7e+5bclvtjCNqJR1AGhulSrIjaqfnjqipPfTuoYFbuokEQKmLJjOHKSjcJOPYsAkKbvahfLb1CqLAVOAMCIpeLNm+mDfYbrIBk76Uy27zTc6GAChFyeTC6YMqLHC3zzB/2dTy4af0dLb9kihAAQHWyS2a6PiupE+RxSa7LywUPspjFgGUklhLx0Ee+A8l7UAamyR06SM92dSlRAEKCLBB6aAxUfsjk32ELDbZgMm/mMtuexFnQwAUs8Y5i5o1NLzIpA+TxqaXD3P7eK6r9X+JAhQQYNTcYomF33L56WQxLv7iQXhqz/L5fyIKAMWmKdl+bOj6nmS812McDqCSTstnU98nClBAgI0oIdFEx7clnUYW42LE5d+a5mu+3NWVXk0cAKZaS0tm9lBg3zX5caRB+QAFBCiaEtIY71hkps+Rxbh5zkyfzXWmfkcUAKbG5ZHG+FOfMrPzJEXJY1wUzO2Tua7WHxMFKCDAOOA9IROwQ3Bda9V++qplbc+RBoDJEm1ZsJeC4LuS9iGNcSwf8o/lsm0/JQpQQIDxLCHx9q+52RdJYlz1mtlXcp3Rb0unDhMHgIkyY+b58YgH7XL7KHOScTVoppM4qw0KCDBBovFMSqZ2khh3j3noZ/V0t11HFADGVzqIJWpPcdmFklrIY1z1S3Z8Ptv6e6IABQSYyBKSaD9bsg7W6fHnbtdIhbN6uuY/QRoANlVjcuFbTeG35XoLaYy7fOD+zlVdbX8gClBAgEkQS7R/yGU/klRFGuNu2EzfC4brvrRy5Rk9xAFgrJqbM3MKVfqSpP+SFJDIuM/oVrmCo3o6591PGKCAAJNZQpLtx7nbLyXVksaE7DBelGt+rmvgUikdkgiADRePxY2F6jXz5f459s0TZnlgwdxVnfMeIgpQQICpKCHx9re72e/EYxwncMfhj7gH6XxX6xWkAWDt0lXRZP3H5P7fkpLkMWF75JVh6Pv1dqceJQtQQIAp1JRc+KbQCzfyBt0J34HcU5C19mZb7yYNAP8STS48XB4ukrQraUwC121VYfUHV6w46wXCAAUEmMoDYKJjO8l/L2lb0pjgQ5/rcpmdm8+2PkkcQOVqircfEAb2dbkOIo1J1xWafay3s/VaogAFBJhC9S3nzaoOqm6QtDtpTLghM/1g2Ee+3pc9t5M4gMoRbcm8RYG+JulI0phSLtnCfHbrc6STCsQBCggwRWKxb8S8eug3Mh1CGpOiT7LvFcwWru6clyUOoHy9dLlr+DVJxzGnKCo32FDNybnc53NEAQoIMGXSVdFE3XckfZIsJq+ImOlHQ4WR9v7uc18kDqB8xGYu2NrDYL6kj0uKkEhReqIQRI5bvfzsR4gCFBBgyrg1JhZ+yeRp1v3JLSKSvlsICgtXLz+niziA0jVjVmbnoOBtJjtZvHOpFPSa+QdznW2/JQpQQIAp1JjIfNBcP5Hxrd1UFJERt0V9Xa3LiQMoHdGWBXspCM6R9G7xEsFSE0o+P59t6yAKUECAqbBLuiaarbtEpvcTxpQZMulXhULh/N4V5/yTOIDi1RRvP8BlKTcdw5yhxCd8pm/nOgfO5CWyoIAAk6i5eXFjoWrNVZIfShpFITTX9QULzu/NzruXOIDiKh6hWVrSYaRRVrO+y/MNdR/SE2cMEgYoIMAEmx7vmFllfr2kPUmjKHdEd5t5ZlVn6lrJnESAKbD94mmxnv73uexs8QLB8uV2ezASvnvVqrY8YYACAkyQaHLBtvLgJknbk0bRe1Bmixuqq36+dOlZA8QBTLz6lvNm1VjkNDc7VVKcRCrCQ1WF6iN5czooIMBElI+Xbpy8gYNqycmb6RJX8M1857yniQMYf7F4xx5u/mlJH5JUSyIV52lZeHi+c/5TRAEKCDBu5aPjzQr8ZknNpFGyCpKukenb+c7WW7k8C9hEu6Rrotn642T+GUlvJ5CKt9Q9PKSna/4TRAEKCLCJGmdm9rFQN0mKkUa57Kz8EZe+HQzrMq5dBsYmmujYTuafkOsjkpIkgn/zF8IwPLS3+5zHyAIUEGBjD7QtC/ZSJLhZribSKEtrZLpGCn6Q7zz7Fs6KAOvwytmO8JOSHcYxH+vRGQn8sJXL2x4mClBAgDFqSLTvF0g3SNZIGhXhMbl+PCK7hJcbAi9pjHfsYKb/kvwjkhIkglHKBhYctqpz3kNEAQoIMEovP7f+ekkNpFFxRlx2XcTCH63qbLpROnWYSFBRpWPOomYbGnqfyU5xaT8SwUbiTAgoIMBovfw0l9vEPR8wrTLXtW7BT7lEC2Vt+8XTmnr7j3C3E106QVIdoWAcdIWhDuztTj1KFKCAAOvw0uUGfpe4sRKv96zMfhEovGxVZ9uDxIHS59aQWLhfID9F0kniKX+YkNVMzwfVfsCqZW3PEQYoIMBrxGZdsJUXCn+QNIc0sAEPyXWZK7yCR06itKSDpnj9/gWF7zXZe2Tagkww8R1ED3t14aDeF85ZQRqggAAvmzHz/HjEq+6U+06kgTF6ykzXWuhXrOpK3c1lWig+l0ea4k+9zQM7MXSdYNJsMsHktxD7U7X7Yd3dqV7CAAUEFa+pqT0aVtutkt5MGthET7t0VcTt6lVd/XdL6ZBIMBXmzFlU1zM4cojJj5fp3ZJaSAVTX0J0W376wNF6Jr2GMEABQcWaPTtdv3qk7iaTDiANjLNOua6VdKMN1yzJ5T6fIxJMpJcuIx052syOcdchkupJBUXYQq7KZ7c9UTqpQBaggKASd4IWjXdcJtP7yQITrCCzv0q+JAj92lVda+7h7Ag23eWRaMuTe1gQHOtm75T7mzkWo0T8IJ9NnUoMoICg4kQTmQ5J80gCU6DTpN+H5jeOFAq39Xef+yKRYMPcmpKZNxVCO8RMh0g6WDwuHKW6NrvO7OlKLSYJUEBQOeUj2f4Juf2AJFAkHpN0h0t3VBeqb1+x4qwXiASSNGNWZuegoEPMdLBcB0uKkwrKRCE0e3dvZ+u1RAEKCMpebOaCgz0MbpJUQxooUk/IdYeb7giC8K7c8vnPEEkluLg62pLb3U37mmk/SYdImkkuKGP9HoQH9yyf/yeiAAUEZWvGrMzOkYLuUUletuBsZpUrL/mfTHa3mT8wUhXew/P0S9/0eMfMmiDc2932cvn+ku0nbhxHhXFpWdVI1b4rV37hedIABQRlp2H2BS3BSOFeSduTBkr+mO36p5v+aPL7Q0X+Oi0MH+L5+sWrpSUze8hsN1O4h2R7yLSvpK1IBpAk/aXGB97e1ZVeTRSggKB87JKuiXXV3ebSfoSBMt4JvyjXAx7oYXN/JAj0wMrl2/6Tx11OpnRVNDlty0C2i7vtJddeMu3l0iyyAdbr6ny29T28zBUUEJSNaCLzPUmfIglUoD5JD5vssdD0qEmPW1h4rFqDj/Nt48ZrnLOo2YcKb4h4uJMHtqM8fINJb3DZ9uL+MqyXXymzt8t5oMBaZpJfzHemziMIUEBQ8mLxjo+4+U9IAnjdROgFuT0m0+OSnnDz592D56tHIs+tXNn7opQeqdhotk7XNqyu2TKIRLawUFuGpi3NtJW5dnTpDeLN4hi7bjc/s6ez7bLGRPtPTPYRInmd0N2O6elqvZEoQAFBKZePPdz8Hkl1pAGMSUHSiyY9567nZVpqpqWhe7c86DZXNhJGuurrrXvp0rMGSmWhWloyDUMWJt2q4hEL4wqtxQPN9DBMmGlLmW0h1xaSkqwCGMcJ0s9HgsLnVy8/p0uSGhPt7zAZk+y1h7VKbnvns61PEgYoICg5jXMWNdvQ8J8lbUMawIRaLalb8k5JeZnlJe812WqX+hQq76bewNXnUp+CIPevfxi6DwRhYc2//jtSZWsK7q8UGgsjje6FyCu/KRLEpMAkyb0QMQ8aFXijyWa4fIakBrmiL/13OF1Sg2TNkhJ66axFLcOFSeN63mWf6ulqvf7Vf5CuiibqllJ01+nv06sG3rZsWbqfKEABQQm5PBJNPH2dpHeQBQBgkoUm+15V6PPX9XS6aCLzHUmnEdU6p5WX5bOtHyAHbEhABCgW0cTTCygfAIAp8IQFOjyXbf3M+h6NHbj/gqjWx0+OJTvOJAdssKoSAYpBY7z9KDO7jnUSADCJhs09k4vWf11PnDE4igm2RRMdT0namujWaSRU8Pbe7Lx7iQLrLPNEgKm22WaLNjezn1I+AACTxnRHYMGbc11tXxpd+ZBeft/FFYS3XlWBwp81NbVHiQIUEBSpdDASGb5EPB4TADApvUMvmvzD+c7WQ1Z1zntorP++ENFPJPHivfXbNqyxHxIDKCAoStFk3XxJh5HEBg6Yrmsl3UwSALDRRlxaVBXqDbls20839u3dq19M/cOlu4lzA1wnxuKZjxIEKCAoKo0zM/vI9RWSGM2O3C7IZ1NHyIK5cv2DQABgLHNh3RWYv7knm/rC+m4yH8NPvJhUR3Po0rcaNjt/J5LAa3HNPaZEU1N7NKy2v4j3fYxiK7V/5jvnvfHf39ZdXB1L5k9zD/9bskYCAoB1Wm7yVC6bunRjz3is1faLp0V7Bp6XFCfiDXqwoab6raX08lNMPM6AYEqE1fY9ysdovyXwi1994Dx1ONfZelF1aDub7GfiWmQAeK1BSRcGw77TplxutU5PnDHo0qXEPCq79gwOLSAGvHpuA0yyWDzzYTf9L0mMyoDXVM/pWXrWynX9hWhL5i0KtFjS24gLQMVPbFzXutnn8tnWJyfy9zS0nL9jEET+yVxqVNzdju7par2RKEABwaRrbs7MKVTpQUkx0hjFHlu6pCeb+siG/2Y6iMXrPxKaf82k2SQHoALdFyo4azLfPxFNdNwi+aFEPypLbahm11zu8zmiAJdgYVIVqvQDyscYNlAPLxrd30yHua7WH8+oGthBrjZJ7OABVAbX8yb/cD7but9kv/wusPCbDMCozfFpQ4uIARJnQDCJosn2T8jtByQxajfns6kjNuYfNs5Z1GzDw61ynSmpligBlKHVJl2Yqx9o1zPpNVPUfqwx0fGgSbswHKOeeB6fy6auJgkKCDDhuPRqoxyRz6Y26d0f0eTCbeT+dcnfL854AigPa9z1fa8pfL33hXNWTPWHicU7PubmP2JYRj3xfDGsqX7T+u5tRPljQoJJ4Fao0v9QPsbk7/ls65JN/SH5znlP57OtH4gEvptMVxArgBI2bNKlsuCNPV2pzxdD+ZCkXFf0UklLGZ5RzgikWcHQ8DdJorJFiAATrTFRf5pJZ5DEWCqbnzXYd+CD4/XzBlYv6RrsW3JF7fS590i+o2RzSBlAiSiY9HNZeEI+2/bjwb6bc8X18a4Na+vn1sh0OEM1arvXTZ/74Jq+JbxYt0JxCRYmVGzmgq09DB6UNIM0Ru25fDa2vXTq8ET9gmhy4eHywtcleytxAyhSbq7rZP7FXLbtb0V9rIt9I+Y1g8/yctgxWa7B8I35/PxVRFF5uAQLE3z4CL5N+RjjtwJm35zI8iFJ+c55S/LZtn1lwVxJfyR1AEV28FiiMNw715U6ttjLhyS99GhZ+yHjNiYzNS1oJ4YKnesQASZKNNHxXsl/TRJj0lXjA9t2daVXT+YvbWxpP8Ys+IrM92YIAExV6zDXdWGg83o6U/eV2oefHu+YWWX+pKR6hnLUwlB+YG+27R6ioIAAm6ylJdMwHOgRSdxrMJYN0uxzuc7Wi6bq90eTCw9X6OdTRABM5iTUXNe766v57tSfS3lBoonMBZK+wJCOyYP5bGyviT7zj+LCJViYEEOBf5XyMeZvA16cUV01pe9JyXfOW5LvmvdWdztKrtsYFQATeaiQ+Y/dbadcV+rYUi8fkhRWRdol9TK0Y7JrLJHjQTWVN+cBxldTsn3X0O0BSdWkMRZ+Wj7b9r1i+kSxeMceMj/Lpf8nqYoxAjAOBiVdEhmp+vrKlV94vtwWLprMnC/XfIZ5TPotCHfJLZ//DFFUBs6AYJylg9DtYsrHmD2Xb6z/cbF9qFxX619z2dSH3MOdJbtY0hqGCsBGysu0oGDBlvls6tRyLB+SZIM1HZJyDPeY1Htoi4ihcnAGBOMqmmj/tGTfJYkxb4n/le9MFf2bdGfMPD9eFUZOd+mzkpoZOACj8KRcP7ThmotfelpU+WtMZL5iUpqhH+Oh0HRcrjP1O5KggACjLx/RBU2aFjwuaTPSGNvBOZ+N7VxKN+DF4+kZw0H9x939dEk7MIQA1jLFuDWw8JurOtdcJ6XDSlrypqb2aFhtT4kvasbq6Xxj3c564oxBoihvvAkd42Za49x2MzuEJMZ6jLbTBvvO/HspfeT+/tuH1vTdfP9g3wHfqZ0x7Q8yr5O0k7isE6h0QyZdFij4UC7bunBN35LHpNu90kJYs2bJYN30uQVJR7BKjK271Q6O9Az2LeGxvOU+9SECjIdoomM7yR+RVEMaY3JfPtu6n2Qlf4BujHfsIIWnm9lHJEUZWqCiLHfZ90Kz76/unJclDkm7pGuiXXUPibPEY9U7opEd+rLndhJF+eLbSowLd32D8jH22ELZ2eVQPiSpp6v18Z6uts/V+MAcl06X6x8MMVDe+zC5bnPz/5dvrNu6J9v635SP//BwesikNoIYs4YqVX2ZGMobZ0CwyWIzM4d4qFtJYsyb32X5bOsHynhuYtHkBYdJ4SflOo6CCpSNLskuCcORH/Z2n/MYcaxfNJG5Q9LbSWJMCoEFe6zqnPcQUZQnnuuPTZQO3G2h5EQxNmssEpxT5gXL851aImlJLPaNmE8bPknup0naneEHSnGTtgck/aChuurSpUvPGiCQ0e4Jw8+5BX8WV52MRST0sEPS0URRptsFEWBTRJMd/yX3H5LEGLnOy3elvliR60zLgr0UBJ/USy83bGBlAIpaTtLlgQXf4tvojdeYaL/EZB8iibEeKv3InmzbTSRBAQFeMWfOorrVQ8NPujSLNMakszrUDt3dqd6KTmHrdG20r/5YWfhJyQ5jfwQUjUFz3eyyn+YT/b/Vw+khItk0m222aPORyPBjkupJY0z+ns8O7Flpj3GmgADrEUtkvuDSBSQxxo3O7eO5rtYfk8S/zZiV2blqxE92s5MlbUsiwKRzk+5x+aUa9Mvz+fmriGR8NSYyXzLpv0lirAdNe3++s/VXBEEBAZRMLpy+xsOnJCVIYwxHeOkPPdnWt5fLk68mQvPM9l0Kbh+U68OSZpIIMKGek+kXHtqPerpaHyeOCbRLuibaXf83ue9EGGPyWD47sIuUHiEKCggqXDSemS/T+SQxJiMmf0su2/Y3ohiNyyONiacOl3SyyY4X94sA46VT0pWhgp/1ZufdSxyTJ9bScZAHfhvzr7Fx+Qd7sm0/IwkKCCpYPJ6eMWR1T0mKk8aYtrZMvjPFM+E3wpw5i+p6B4eOlekkyY4S11EDY7XUTL9R6Ffmutb8gWvqp7CEJDI/c+kDJDEmT+SzAztzFqR88BhejNmg1X3BKB9j9VxNOPB1YtjImdNLj/y8XNLl2jpd2zRQOzd0e6ek4yQlSQhY+37HTFdb6Fes6lpzD6WjOAxr5AtVVnW0XE2kMWrbx+L1H8p1ifsnywRnQDAmL73PYegpdpxj3NBMx+U6U78jifGWroom6w4yt+NdfpykOWSCCve4zK5UofDrfPf8B4ijOEUT7Z+W7LskMSbP5uMDO/JUNgoIKrGAJDL/7dKXSGIs/Kp8tu095DDhOVvjzI69ze14dz/WpF3IBBVgSNJdJt1QKBSu611xzj+JpBSkg2ii7m5J+5LFmPbzn8pn2y4mBwoIKsjLT756TlIzaYxab2SkapeVK7/wPFFMrumJ85LVirzDzd4p11xJMVJBmegy6UZ3uyYYCX+/alVbnkhKTyzesYeb/0lcDj8Wj+ezAztxOSEFBJW0s0x2nOnu3ySJseDbmuJwcXVs5sr93YMj5TpS0m7s/1BCCpL+KNN1FobX57ra/sqjvMvkuMpVBRszcX1vLpv6DUlQQFARLo9EE08/Jl4SN5bN69Z8dt7hTBSKT33LebNqrOpIN8116SCTZpMKikgo6UF33RYJ/FYfnHZXLvf5HLGUo3RVNFl/n9z3IotRcvtTvqt1H4KggKACNCbbTza3n5PEqPeQPUGVdl21rO05sih+0eSCbc3tAJftL+kISVuTCibZU5KWyG1JWB3c1rvs7G4iqQyxRPvuLvujpBrSGJ3A7e2rulrvIgkKCMp9gpbIPCDpzSQx2i3LP5nvbPshQZTq+t6xnbkOCi08yGQHS9qSVDCOCpIelnSPm99R8MJtfdlzO4mlcjUmMl8xKU0So+Nu1/R0tb6LJCggKO/yMVfS70li1LvGJfls6gguvSofTbPbtwyHta/M9nHprfZSGedliBitbnPd54Huk8J7qwvBn7q7U73Egn9LV0WTdffK9RayGN2BthBE3rR6+dmPEAUFBOVbQG6QdCRJjEo+MlK1K0+9Kv/JQixe/yY331emfdy1j0k7SwrIpuKNSHpQ0r0u3Se3+3q6Wh8nFmxIU7J919Dtz+JSrNH6YT6b+iQxUEBQjuUjuWBbefA4E6tRblBuH891tfKm1grU3Ly4sVDd9xZTZPfQw91MtpteehfJNNIpWzmZ/mbS3xTa39z113ys9mE9ccYg0WDjjrmZc+X6OkmMSr8Gwzn5/PxVREEBQfntDNvlSpHEhrnstz3Zecdz6RX+LV01Y+aMHQMf2c0U7C75bgq1q0xbkE1JCSU9I/nfXPa3wPyvMv9bbvn8Z4gG473PiCXq7nBpP7IYxXHX9dmertS3SYICgnKyS7om2lX3vKQEYWxwN/hCWFW1B0+uwaiKfXRBUzgt8saI+44e2I7ycAfJdpC0o6RaEpoyOUmPmfSomx5VqEcDCx5bVd/3mJ5JryEeTIbm5gu3KFSN/FW89HcUk1h/JJdt24UkKCAop0lSsuN9cv8lSWxQKAvn5jvn30oU2MQia7FZF27poe8gL+zgbjsGgXZw15aSthBvc9/kbdWl5SY9K9Pzcj0r88etEDw2ErF/rO6clyUiFMXxN9HxXsl/TRKjOgAf0JttvZskSksVEWA9h+pTqaijavFfy1E+MD5rk+de1LOSnpW05LV/Go+nZwxEZmwZFMItLdAc83CLULaVSXNeLiizJc0gR/1N0v1u9rzcnw1Ce84j9ly+pe8FPZweIh4Uu3y29cpoIvNDSZ8gjfWLyE+VRAEpvbkT8HoNLZk3BIH+wTqyfi7d1ZPd5hDppAJpoBjMmbOorr/fWwpBIe6mhCxsCcxaPFSLpKSbxQN5i0uNkqbL1KRQM2SqLqMD289z2dQprA0oaVuna6P9dfdL2o0w1muwEBS2WL38nC6ioICgxEUTHRnJW0livVZGRqr24JG7KPntPdn+Cbn9oIwWqTufHUhK6ZDRRSl7+dG8fxT3hq2Xu87s6UotJonSwaNVsbZN2SR/HzlssL1/nPKBMtnky+09Py2NM+t4oRtK3qrOtgfd/WyS2MDx2PxkUqCAoMQ1xTP7S9qKJNa3s9PiXDZ1NUmg9KWrJB1WdosV6ijGFuWgp6vtO5K4IX39R+V9oskF25IDBQSlfNy2gG8S1rebk+7JtQzMIwmUg1hL/f6SomW4nR7J6KJc1PjAR116mCTWs8mHAVduUEBQutJVkr+XHNZpeVWoE3mSDsqFR8p2or53w+wLWhhhlIOurvRquR0vKU8a66wg/48QKCAoUY3x+sPFiwfXZThwP7G7O7WMKFA+DSQ8pEyXLBIZ8QMZYJSLnq7WxwPzD0ri4Qprt2tTcuGbiIECglJk/n5CWKczVnW1/YEYUC7mzFlUJ9meZdutFO7PKKOcrOpsu8bczyeJdWzzYYHLsCggKD2XR0x6JzmspZdJl+azqe+TBMrJ6sGhvSXVlPEiUkBQdnJda74i0/UksZYCYnYcKVBAUGIaEs/uI2kzknidv86oqT6VGFB2B2tZuU/Q95o9O13PSKO8pEOtCU+R9CRZvM6uTbPbtyQGCghKSEQFnhrzugmalkVGqt61dOlZA6SBcmNB2Z8hqB4Yrt+LkUa5yefnrwoseLfkPaTxamEhYC5DAUFJTbbNjiaFVxlQoON52SDKdYt319vKfjLCfSAoU6s65z3k0kmSRkjjP3dtIQWEAoJSMWPm+XG53kwS/563mHRyz/LUH4kC5ah5ZuaNkprLfTmt/C8zQwXrybbdJNOnSOJVW/1cbb94GjlQQFAKK0IYOZL14T92X6Yv8KZzlHXDLthbKmE53bQ3o41ylu9M/UjShSTxihmx1QP7EQMFBKVxmD6UDF7x3Vxn6pvEgLIuINIeFbKoyemJ85KMOMq6hGQHWiW/iiRentEU/HBSoICgBJjsbaQgSboxnx04kxhQ/tu8dq+UZa1S9e6MOMpbOmyoqfmA5PeThSQL9iUECgiKXOOcRc2SdiQJ/aU61ElSmhv6UAkNZNfKWVingKDsLV161sBwWDhe0tOk4XtLl0fIgQKCYjY49FZJVuEpPDHidnR3d6qXFQLlbrPNFm0uqaVyupYoIKgI/d3nvijZXJNerPAoGpqST72RNYICgmJeCUwVfqrSX7AgnNvX1bqctQGVYDgYqagJuVNAUEHy2dYnzfwdklZWcg6hgreyNlBAUNwH50ouIN2FiM3NLZ//DGsCKoVV3iVJO2nrdC0jj0qxqrPtQbfgaEmrK7eBOAWEAoIin45U6reDvQp11OoXU/9gHUCFNZBdK2yJq2J99Tsx8KgkPZ3z7ne3EyUNVeYM1/ZkLaCAoEg1Ny9ulFSJj6gckuyEfHfqz6wFqLwCYhX30AlXyIM2UHklpKv1RlPwfkmFilt49+1ZAyggKFKFYE0lbqBDgfkJ+Wzr71kDUJHct6vA1rUdA49KlMvOu0qmUyWFFbbo0Rkzz4+zBlBAUIwi2qHSyoeZn7Sqs+0aBh+VqGH2BS2SYhW46BQQVKx8Z+pH5vaJSishFlZzFoQCguJUUacoBwPzE3Kdbb9l3FGprFCozANyICYiqGi5rtYfu9kpkirmXVcRFXZg5CkgKM4Csm2FLOiAZO/izAfY5Cv0umjnDAjQ09n6C5d/VJVzTwjbPQUExTkXCTargMXslwXv4p4PQKrgeyE2nzNnUR3jj4ovIdm2n8n9ZFXCmRCzZkacAoJi3DalhjJfxD4L9M5857wljDYgBZX7jaD1jwxtyxoASPmutsv10uVYw+W8nKF7I6NNAUFRHpLLeuNcGcqPyC1P3cZAA6+o2EsSQudJWMArJaSz9Vd66WWFvWU7xZHNYKQpIChGXrZnQJ4JQ+3Xm227h0EG/nOT15zKLSCVu+zA2kvIvCUehIdJypbpHo8zIBQQFOlkpBwLyN+Gw5H9ertTjzLCwKu2eFNlvnj0pQOe+yzWAeDVepbP/1MYFg6U9HQZLl4DI0wBQRGycrv+0+32YNgP6u8+90VGF3jNkXjzBc2SplVs/ZJRQIC16O0+57ERt/0k/aXMtvkhRpcCguKUK6M2dXk+WnvkqlVteYYVeL2qkerKnoAHooAA69DX1bo8MlJ3sGS3ls0mb+phZCkgKMpvB8pi43SZMvnOgf+nJ84YZFSBtQs9rOwJuFNAgPVZufKMnny2/x0yZcpik3fjC8kiVUUEFd5AXXm3kl6E1SZ9ONeZ+g2jCayfyWe5rJIjoIAAG5QeyXeqLZpsf1Ju35ZUU8IVhDMgxTr/JILKFppWlPDHfzKw4G25LOUDGNWh2Cv+Hoi4dHmENQHYsHxn2w9D2aGSOkt2IUyrGEkKCIp0El+in/vOQlB426rOeQ8xhMAoC4gq/ilQkfqWxxOsCcDo9GZb764qVO8ltz+VZP8I7TFGkQKCovxywB4psY9ckOu8fHbgsNXLz+liBIEx7PAt2KzSM5gWqdmMNQEYvRUrznqhYVrVQZJdXGqfPYz4I4xgceIekAo3HA7fUx2UzGrQ6fIP93S13cTIARtxMHZFzSo7gxH3KGsCMDZLl541IOlTsUTmRpf+R1IpFPmBns0G/qrljF8x4gxIhXv5fRlPFPvndOl3YVXkTT1ZygewscyYfJuLAgJspFw2dXVkpGpPl+4q+g/rdr8eTvMekP/f3v3G6nnWdQD/XvdpR9m6dpv7o74wQhgKGGfMRBNj0AgOSbaQGBcSokZNrFnIHNt6Tge8OCTT/fPNUGPAEIiB4Lagi0zGoDHiZjbHZO1gC4yyIW5tz/Ocnp7ntD1nbZ/nvnyxvTRktT3P38/ndfs81/X73X3u69vr/iOAMMan5AfHeHAnSyk3rXXm33/s4K3LegVnxeK7UQM4Gysrt/zPWmfj10spN2WMX2ZcmjyoWwII46yt943pyP69HQx+YXVp/t6kVI2Cs7Zj1gtQXIIF58Biu7o0f2/ajOvb0/vN6fpFfRJAGGO95YWnkjw+RkNaLaXc1Ots/MaxIx/5jg7BOWPxnbpDDeDcrR96nY13vrYbcnxsBlbyTysrCy/pkADCuJ+Sa7l9PAaS+/q1vO3VXY/FVmfgnLL4dg8InGOL/dWl+XtTmp9PMg73abYZlDv1RQBhAqx157+c5OERDuHppFzT6y584ER33jMr4By74op7LognH6aURgCBTdBb2v1ir7Pw3tRyfZJRvn/j073l+W/qiADChOin/4fJ0B9Y998pZVev86Zf6nXmv6oLsDmODU7Z/XiVAAKbGUS68w/0OhvvSCm7anJwyF///bn+G2/VBQGECXKi89GlptbfTbK+2d9VkkNJvaHXuejK3tL8p5LrBzoAm+e8Lc0bVCGppZ6nCrDZFvu9pflPbd+ycWVqvS3JyhC+9EhTmvevrNy4pv4CCBPmaHfPYynttSk5uklf8UQt9YOrl238dK+z52+TXadVHTZfO5jbqgpJalUHGJKDBxfXe909d24rzU+llF1JntmUf9bJwVLb9xxd2v1tVZ8MRQn4v+y47I63NKX5bE1+9Rx83HpNvb+09a97y7f9l+rC8G3/8b98+1w7eHbmT3o1D612F651RMBoXHTp3e+qTf1QkuuSnIsdyYdPt/0/fu3FygggTL5adlxxzwdKrbcm+cUzPLAO1eShptQvXbD1vL0vvXTzhnrCCE/6l995VU3ZpxJ5pNdZeK8ywGhdcskndgzmXrmmlHptTd6X5MfOaIWSPFpLufvY0vxDqimAMKUuvuKen2tr+9spuTo1P5vkkpRckJrTSY4meSnJC0l9Om19sre855teHgjjY+eld12dJt9QifKvvc78b6oDjJP75y68/IVfLrVcXZp6VdrmzSn1J5NcnJItqTmW5EhJnmtrnkzaL691bzugbgIIAGNsxxV3/UqpY/XC0ZGoyWNrnYVfc0QAjI6b0AFmwFxb3HydpMRN6AACCACbrm0GFt6vRhB1ABBAANh0tZlThCTeBg8ggAAwBCWtIiRJ+koAIIAAsNn5o61e+pkkUQcAAQSATTcocxbeSWqKOgAIIABs+o9921p4JymvvrsIAAEEgE1deDcuPXotgagDgAACwGbrN1ssvJOU4hIsAAEEgM1fePdPefpTkuoSLAABBIAh/NjPbbXwTpIigAAIIABsuq2D9qQqJKUWdQAQQAAYgmNKkNTUNVUAEEAA2GTLy/PHkwxmvhClCCAAAggAQ1h519gFSdq251gAEEAAGA6L76IGAAIIAALIkFQBBEAAAWBIi28BJBmoAYAAAsBwfvCrxfdcadyEDiCAADAM1ROgklLsgAAIIAAMZ+1dl2e+Bv12xZEAIIAAMAS1rYdmvATtysrGYUcCgAACwBCUlFkPIN1kse9IABBAABiCttRZ/9//Q44CAAEEgCGZy9ysL8AFEAABBIBhOd2cnu0FeKkCCIAAAsCwHD9823KSUzNbgLYIIAACCADDU2qSzqzOvsYOCIAAAsCwl+Evz+wJr8wd1H8AAQSAoSovzOzMk+/rP4AAAsBwF+EHZnXuc237oiMAQAABYJjqzO4CHF5eXjjmAAAQQAAYokEpM7kDUmd45wdAAAFgZNrZ3QFx/weAAALAsJ3ozh9OMouXIgkgAAIIACMye0/CmtFLzwAEEADGYDGe52dvzgMBBEAAAWAUas23ZmzKg+3NyWd1HkAAAWAUP/wl+2crceX5gwcX13UeQAABYCS//HP7Z2zGz2g6gAACwIisHrrlhyk5OkNT3q/rAAIIACNTamboPpCaIoAACCAAjDSClDozi/Kt7RYBBEAAAWCUappZuS/iyJEjN7+s4wACCAAjVNo8NSNTfUq3AQQQAEZstbv+TJLetM+zlvKYbgMIIACM3GKb1P+c+pNcqf+h1wACCABjoKaZ9sV5f+tg4xs6DSCAADAGyrTvDpSyv9tdPK7TAAIIAGNgW5onkvSnNn/E5VcAAggAY2NpafeJJFP7ON7aCiAAAggA47VIT/5tWqd2ug4e1WEAAQSAMVJSHpnSqe1bX/7oIR0GEEAAGCO9Hdu+nmT6btSu9WHdBRBAABg3B248WUq+Pn0nt+YrmgsggAAwhto2U7ZYr2tHuzuf0FkAAQSAMVSa5l+mbEZfTXad1lkAAQSAMdRb2v1iku9NT/6Iy68ABBAAxnzR/o9TMpP+IM2XNBRAAAFgnPNHW/5hSqay9/jS7o6OAgggAIyx1e78vpL63MQHqVru000AAQSACdCm3D/hUziZ01sf1EkAAQSASVDbz0/4DB5eXf3wqkYCCCAATIC17m0Hkjw9sfmpVJdfAQggAEzUIr7msxM58JKj2+de+WcdBBBAAJgg59V8JsmxCQxOnzl4cHFdBwEEEAAmyPLywrEkX5i4/NEOPql7AALBFCxGAAACcUlEQVQIABNorqmfmLAhf+XY8kee1zkAAQSACbRyeM+zNXlsUsZb2/o3ugYggAAwycrELOpfWFt+5WENAxBAAJhga0tvfiClfGf8g1K5I1lsdQxAAAFgol0/qLXePuaD/EHv0vW/1ysAAQSAKbDW2fhCkm+N6/hKLR/Ps4undApAAAFgKiy2KeXPx3RwB1a765/TIwABBIAp0ltafyDJ/nEbV039eLLY1yEAAQSAqbLYNrV+KEkdn/CRR9c6C5/XGwABBIApdLS757HUfHpMhnOqbeb+NClVZwAEEACmVH3D1oUknVGPoyR3HT9863M6AiCAADDF1l66eaWm3jLiYRxYPX/jL3QDYLLNKQEAr8fJE3uf2bb9PW9P8o4RfP2pWnLdyZc/9gOdAJhsdkAAeN22pfmjJN8ewVf/2drSwhM6ADD5ihIAcCZ2XHb3laXUJ5NcNJwTVfncamf+91QeYDrYAQHgjKx1579XSv4gSTuE9PHU9vO2/ImqA0wP94AAcMZeObH3u288/7d+mJLrsnm76d/t13LNkcO3rqo4gAACwKyHkPWv7du2/d2HkvK+nPsd9f39Wt59ojt/WKUBpotLsAD4f+st7fm7UurvJDl+Dj/2a83p+i7hA2A6uQkdgLN24aV3/UzT5L4kV53Fx/Rrcvta5023J9cPVBVAAAGAH+GTW3defvTDSflYkgvP8C8/Xmq5YbU7v08dAQQQAHjddu684+Jsa25Ize8neeuP+KMna/JIKc1f9ZZ271U5AAEEAM7K9p+4621b+nlnUt+S0lzcpp4sNZ1a6r4t/fMfX1m5cU2VAAAAAAAAAJhs/wuzKrTF3IcW5QAAACV0RVh0ZGF0ZTpjcmVhdGUAMjAyNC0wOC0wOFQxMDoxODowMyswMDowMFQxE+cAAAAldEVYdGRhdGU6bW9kaWZ5ADIwMjQtMDgtMDhUMTA6MTg6MDMrMDA6MDAlbKtbAAAAAElFTkSuQmCC;" vertex="1" parent="1">
          <mxGeometry x="446.04" y="650.72" width="55.21" height="63.77" as="geometry" />
        </mxCell>
      </root>
    </mxGraphModel>
  </diagram>
</mxfile>
